<?xml version="1.0" encoding="UTF-8"?>
<svg xmlns="http://www.w3.org/2000/svg" xmlns:xlink="http://www.w3.org/1999/xlink" version="1.1" viewBox="0 0 577.2 519.6">
  <!-- Generator: Adobe Illustrator 29.5.0, SVG Export Plug-In . SVG Version: 2.1.0 Build 137)  -->
  <defs>
    <style>
      .st0 {
        font-family: MyriadPro-Regular, 'Myriad Pro';
        font-size: 12px;
      }

      .st1 {
        fill: none;
        stroke: red;
        stroke-miterlimit: 10;
      }

      .st2 {
        opacity: .5;
      }

      .st3 {
        fill: red;
      }

      .st4 {
        display: none;
      }
    </style>
  </defs>
  <g id="Layer_1" class="st4">
    <g id="RhEmh7" class="st2">
      <image id="RhEmh71" data-name="RhEmh7" width="1244" height="1190" transform="translate(-17.4 -21.2) scale(.5)" xlink:href="squares on AB 622 x 595-1.png"/>
    </g>
    <text class="st0" transform="translate(125.2 -87.3)"><tspan x="0" y="0">21 across</tspan><tspan x="0" y="14.4">19 down</tspan></text>
  </g>
  <g id="upper">
    <g>
      <path class="st3" d="M55.9-97.6v23.9h-23.9l23.9-23.9M56.9-100l-27.3,27.3h27.3v-27.3h0Z"/>
      <path class="st3" d="M54.5-99l-23.9,23.9v-23.9h23.9M56.9-100h-27.3v27.3l27.3-27.3h0Z"/>
    </g>
    <g>
      <path class="st3" d="M13.9-100v23.9l-23.9-23.9H13.9M14.9-101H-12.5l27.3,27.3v-27.3h0Z"/>
      <path class="st3" d="M-11.5-98.6l23.9,23.9H-11.5v-23.9M-12.5-101v27.3H14.9l-27.3-27.3h0Z"/>
    </g>
    <g>
      <path class="st3" d="M12.8-62.3v23.9H-11.1l23.9-23.9M13.8-64.7l-27.3,27.3H13.8v-27.3h0Z"/>
      <path class="st3" d="M11.4-63.7l-23.9,23.9v-23.9H11.4M13.8-64.7H-13.5v27.3l27.3-27.3h0Z"/>
    </g>
    <g>
      <path class="st3" d="M86.8-164.3v23.9h-23.9l23.9-23.9M87.8-166.7l-27.3,27.3h27.3v-27.3h0Z"/>
      <path class="st3" d="M85.4-165.7l-23.9,23.9v-23.9h23.9M87.8-166.7h-27.3v27.3l27.3-27.3h0Z"/>
    </g>
    <g>
      <path class="st3" d="M54.3-64.1v23.9l-23.9-23.9h23.9M55.3-65.1h-27.3l27.3,27.3v-27.3h0Z"/>
      <path class="st3" d="M28.9-62.6l23.9,23.9h-23.9v-23.9M27.9-65.1v27.3h27.3l-27.3-27.3h0Z"/>
    </g>
    <path class="st3" d="M103.1-71.2v25.3h-25.3v-25.3h25.3M104.1-72.2h-27.3v27.3h27.3v-27.3h0Z"/>
    <g>
      <g>
        <g>
          <g>
            <g>
              <path class="st3" d="M283.5-132.3v23.9h-23.9l23.9-23.9M284.5-134.7l-27.3,27.3h27.3v-27.3h0Z"/>
              <path class="st3" d="M282.1-133.7l-23.9,23.9v-23.9h23.9M284.5-134.7h-27.3v27.3l27.3-27.3h0Z"/>
            </g>
            <g>
              <path class="st3" d="M283.5-106.3v23.9l-23.9-23.9h23.9M284.5-107.3h-27.3l27.3,27.3v-27.3h0Z"/>
              <path class="st3" d="M258.1-104.9l23.9,23.9h-23.9v-23.9M257.1-107.3v27.3h27.3l-27.3-27.3h0Z"/>
            </g>
          </g>
          <g>
            <g>
              <path class="st3" d="M256.3-133.7v23.9l-23.9-23.9h23.9M257.3-134.7h-27.3l27.3,27.3v-27.3h0Z"/>
              <path class="st3" d="M231-132.3l23.9,23.9h-23.9v-23.9M230-134.7v27.3h27.3l-27.3-27.3h0Z"/>
            </g>
            <g>
              <path class="st3" d="M256.3-104.9v23.9h-23.9l23.9-23.9M257.3-107.3l-27.3,27.3h27.3v-27.3h0Z"/>
              <path class="st3" d="M254.9-106.3l-23.9,23.9v-23.9h23.9M257.3-107.3h-27.3v27.3l27.3-27.3h0Z"/>
            </g>
          </g>
        </g>
        <path class="st3" d="M256.6-79v25.3h-25.3v-25.3h25.3M257.6-80h-27.3v27.3h27.3v-27.3h0Z"/>
      </g>
      <path class="st3" d="M310.8-106.3v25.3h-25.3v-25.3h25.3M311.8-107.3h-27.3v27.3h27.3v-27.3h0Z"/>
    </g>
    <path class="st3" d="M981.5-106v23.9l-23.9-23.9h23.9M982.5-107h-27.3l27.3,27.3v-27.3h0Z"/>
    <path class="st3" d="M956.2-104.6l23.9,23.9h-23.9v-23.9M955.2-107v27.3h27.3l-27.3-27.3h0Z"/>
    <path class="st3" d="M434.7-106v23.9l-23.9-23.9h23.9M435.7-107h-27.3l27.3,27.3v-27.3h0Z"/>
    <path class="st3" d="M409.3-104.6l23.9,23.9h-23.9v-23.9M408.3-107v27.3h27.3l-27.3-27.3h0Z"/>
    <path class="st3" d="M462-104.6v23.9h-23.9l23.9-23.9M463-107l-27.3,27.3h27.3v-27.3h0Z"/>
    <path class="st3" d="M460.6-106l-23.9,23.9v-23.9h23.9M463-107h-27.3v27.3l27.3-27.3h0Z"/>
    <path class="st3" d="M491.4-104.6l23.9,23.9h-23.9v-23.9M490.4-107v27.3h27.3l-27.3-27.3h0Z"/>
    <path class="st3" d="M516.7-106v23.9l-23.9-23.9h23.9M517.7-107h-27.3l27.3,27.3v-27.3h0Z"/>
    <path class="st3" d="M488-106l-23.9,23.9v-23.9h23.9M490.4-107h-27.3v27.3l27.3-27.3h0Z"/>
    <path class="st3" d="M489.4-104.6v23.9h-23.9l23.9-23.9M490.4-107l-27.3,27.3h27.3v-27.3h0Z"/>
    <path class="st3" d="M544.1-106v25.3h-25.3v-25.3h25.3M545.1-107h-27.3v27.3h27.3v-27.3h0Z"/>
    <path class="st3" d="M571.4-106v23.9l-23.9-23.9h23.9M572.4-107h-27.3l27.3,27.3v-27.3h0Z"/>
    <path class="st3" d="M546.1-104.6l23.9,23.9h-23.9v-23.9M545.1-107v27.3h27.3l-27.3-27.3h0Z"/>
    <path class="st3" d="M598.7-104.6v23.9h-23.9l23.9-23.9M599.7-107l-27.3,27.3h27.3v-27.3h0Z"/>
    <path class="st3" d="M597.3-106l-23.9,23.9v-23.9h23.9M599.7-107h-27.3v27.3l27.3-27.3h0Z"/>
    <path class="st3" d="M628.1-104.6l23.9,23.9h-23.9v-23.9M627.1-107v27.3h27.3l-27.3-27.3h0Z"/>
    <path class="st3" d="M653.4-106v23.9l-23.9-23.9h23.9M654.4-107h-27.3l27.3,27.3v-27.3h0Z"/>
    <path class="st3" d="M624.7-106l-23.9,23.9v-23.9h23.9M627.1-107h-27.3v27.3l27.3-27.3h0Z"/>
    <path class="st3" d="M626.1-104.6v23.9h-23.9l23.9-23.9M627.1-107l-27.3,27.3h27.3v-27.3h0Z"/>
    <path class="st3" d="M680.8-106v25.3h-25.3v-25.3h25.3M681.8-107h-27.3v27.3h27.3v-27.3h0Z"/>
    <path class="st3" d="M708.1-106v23.9l-23.9-23.9h23.9M709.1-107h-27.3l27.3,27.3v-27.3h0Z"/>
    <path class="st3" d="M682.8-104.6l23.9,23.9h-23.9v-23.9M681.8-107v27.3h27.3l-27.3-27.3h0Z"/>
    <path class="st3" d="M735.4-104.6v23.9h-23.9l23.9-23.9M736.4-107l-27.3,27.3h27.3v-27.3h0Z"/>
    <path class="st3" d="M734-106l-23.9,23.9v-23.9h23.9M736.4-107h-27.3v27.3l27.3-27.3h0Z"/>
    <path class="st3" d="M764.8-104.6l23.9,23.9h-23.9v-23.9M763.8-107v27.3h27.3l-27.3-27.3h0Z"/>
    <path class="st3" d="M790.1-106v23.9l-23.9-23.9h23.9M791.1-107h-27.3l27.3,27.3v-27.3h0Z"/>
    <path class="st3" d="M761.4-106l-23.9,23.9v-23.9h23.9M763.8-107h-27.3v27.3l27.3-27.3h0Z"/>
    <path class="st3" d="M762.8-104.6v23.9h-23.9l23.9-23.9M763.8-107l-27.3,27.3h27.3v-27.3h0Z"/>
    <path class="st3" d="M817.5-106v25.3h-25.3v-25.3h25.3M818.5-107h-27.3v27.3h27.3v-27.3h0Z"/>
    <path class="st3" d="M844.8-106v23.9l-23.9-23.9h23.9M845.8-107h-27.3l27.3,27.3v-27.3h0Z"/>
    <path class="st3" d="M819.5-104.6l23.9,23.9h-23.9v-23.9M818.5-107v27.3h27.3l-27.3-27.3h0Z"/>
    <path class="st3" d="M901.5-104.6l23.9,23.9h-23.9v-23.9M900.5-107v27.3h27.3l-27.3-27.3h0Z"/>
    <path class="st3" d="M926.8-106v23.9l-23.9-23.9h23.9M927.8-107h-27.3l27.3,27.3v-27.3h0Z"/>
    <path class="st3" d="M954.2-106v25.3h-25.3v-25.3h25.3M955.2-107h-27.3v27.3h27.3v-27.3h0Z"/>
    <g>
      <path class="st3" d="M-96.8,442.4v23.9l-23.9-23.9h23.9M-95.8,441.4h-27.3l27.3,27.3v-27.3h0Z"/>
      <path class="st3" d="M-122.2,443.8l23.9,23.9h-23.9v-23.9M-123.2,441.4v27.3h27.3l-27.3-27.3h0Z"/>
      <path class="st3" d="M-98.2,469.8l-23.9,23.9v-23.9h23.9M-95.8,468.8h-27.3v27.3l27.3-27.3h0Z"/>
      <path class="st3" d="M-96.8,471.2v23.9h-23.9l23.9-23.9M-95.8,468.8l-27.3,27.3h27.3v-27.3h0Z"/>
    </g>
    <g>
      <g>
        <g>
          <g>
            <path class="st3" d="M574.7,1.5v23.9l-23.9-23.9h23.9M575.7.5h-27.3l27.3,27.3V.5h0Z"/>
            <path class="st3" d="M549.4,2.9l23.9,23.9h-23.9V2.9M548.4.5v27.3h27.3l-27.3-27.3h0Z"/>
          </g>
          <g>
            <g>
              <g>
                <g>
                  <path class="st3" d="M27.9,1.5v23.9L3.9,1.5h23.9M28.9.5H1.5l27.3,27.3V.5h0Z"/>
                  <path class="st3" d="M2.5,2.9l23.9,23.9H2.5V2.9M1.5.5v27.3h27.3L1.5.5h0Z"/>
                </g>
                <g>
                  <path class="st3" d="M55.2,2.9v23.9h-23.9L55.2,2.9M56.2.5l-27.3,27.3h27.3V.5h0Z"/>
                  <path class="st3" d="M53.8,1.5l-23.9,23.9V1.5h23.9M56.2.5h-27.3v27.3L56.2.5h0Z"/>
                </g>
              </g>
              <g>
                <g>
                  <path class="st3" d="M84.5,2.9l23.9,23.9h-23.9V2.9M83.5.5v27.3h27.3L83.5.5h0Z"/>
                  <path class="st3" d="M109.9,1.5v23.9L86,1.5h23.9M110.9.5h-27.3l27.3,27.3V.5h0Z"/>
                </g>
                <g>
                  <path class="st3" d="M81.1,1.5l-23.9,23.9V1.5h23.9M83.5.5h-27.3v27.3L83.5.5h0Z"/>
                  <path class="st3" d="M82.5,2.9v23.9h-23.9L82.5,2.9M83.5.5l-27.3,27.3h27.3V.5h0Z"/>
                </g>
              </g>
              <path class="st3" d="M137.2,1.5v25.3h-25.3V1.5h25.3M138.2.5h-27.3v27.3h27.3V.5h0Z"/>
            </g>
            <g>
              <g>
                <g>
                  <path class="st3" d="M164.6,1.5v23.9L140.6,1.5h23.9M165.6.5h-27.3l27.3,27.3V.5h0Z"/>
                  <path class="st3" d="M139.2,2.9l23.9,23.9h-23.9V2.9M138.2.5v27.3h27.3L138.2.5h0Z"/>
                </g>
                <g>
                  <path class="st3" d="M191.9,2.9v23.9h-23.9l23.9-23.9M192.9.5l-27.3,27.3h27.3V.5h0Z"/>
                  <path class="st3" d="M190.5,1.5l-23.9,23.9V1.5h23.9M192.9.5h-27.3v27.3L192.9.5h0Z"/>
                </g>
              </g>
              <g>
                <g>
                  <path class="st3" d="M221.3,2.9l23.9,23.9h-23.9V2.9M220.3.5v27.3h27.3L220.3.5h0Z"/>
                  <path class="st3" d="M246.6,1.5v23.9L222.7,1.5h23.9M247.6.5h-27.3l27.3,27.3V.5h0Z"/>
                </g>
                <g>
                  <path class="st3" d="M217.8,1.5l-23.9,23.9V1.5h23.9M220.3.5h-27.3v27.3L220.3.5h0Z"/>
                  <path class="st3" d="M219.3,2.9v23.9h-23.9l23.9-23.9M220.3.5l-27.3,27.3h27.3V.5h0Z"/>
                </g>
              </g>
              <path class="st3" d="M273.9,1.5v25.3h-25.3V1.5h25.3M274.9.5h-27.3v27.3h27.3V.5h0Z"/>
            </g>
          </g>
          <g>
            <g>
              <g>
                <g>
                  <path class="st3" d="M301.3,1.5v23.9l-23.9-23.9h23.9M302.3.5h-27.3l27.3,27.3V.5h0Z"/>
                  <path class="st3" d="M275.9,2.9l23.9,23.9h-23.9V2.9M274.9.5v27.3h27.3L274.9.5h0Z"/>
                </g>
                <g>
                  <path class="st3" d="M328.6,2.9v23.9h-23.9l23.9-23.9M329.6.5l-27.3,27.3h27.3V.5h0Z"/>
                  <path class="st3" d="M327.2,1.5l-23.9,23.9V1.5h23.9M329.6.5h-27.3v27.3L329.6.5h0Z"/>
                </g>
              </g>
              <g>
                <g>
                  <path class="st3" d="M358,2.9l23.9,23.9h-23.9V2.9M357,.5v27.3h27.3L357,.5h0Z"/>
                  <path class="st3" d="M383.3,1.5v23.9l-23.9-23.9h23.9M384.3.5h-27.3l27.3,27.3V.5h0Z"/>
                </g>
                <g>
                  <path class="st3" d="M354.5,1.5l-23.9,23.9V1.5h23.9M357,.5h-27.3v27.3L357,.5h0Z"/>
                  <path class="st3" d="M356,2.9v23.9h-23.9l23.9-23.9M357,.5l-27.3,27.3h27.3V.5h0Z"/>
                </g>
              </g>
              <path class="st3" d="M410.6,1.5v25.3h-25.3V1.5h25.3M411.6.5h-27.3v27.3h27.3V.5h0Z"/>
            </g>
            <g>
              <g>
                <g>
                  <path class="st3" d="M438,1.5v23.9l-23.9-23.9h23.9M439,.5h-27.3l27.3,27.3V.5h0Z"/>
                  <path class="st3" d="M412.6,2.9l23.9,23.9h-23.9V2.9M411.6.5v27.3h27.3L411.6.5h0Z"/>
                </g>
                <g>
                  <path class="st3" d="M465.3,2.9v23.9h-23.9l23.9-23.9M466.3.5l-27.3,27.3h27.3V.5h0Z"/>
                  <path class="st3" d="M463.9,1.5l-23.9,23.9V1.5h23.9M466.3.5h-27.3v27.3L466.3.5h0Z"/>
                </g>
              </g>
              <g>
                <g>
                  <path class="st3" d="M494.7,2.9l23.9,23.9h-23.9V2.9M493.7.5v27.3h27.3L493.7.5h0Z"/>
                  <path class="st3" d="M520,1.5v23.9l-23.9-23.9h23.9M521,.5h-27.3l27.3,27.3V.5h0Z"/>
                </g>
                <g>
                  <path class="st3" d="M491.3,1.5l-23.9,23.9V1.5h23.9M493.7.5h-27.3v27.3L493.7.5h0Z"/>
                  <path class="st3" d="M492.7,2.9v23.9h-23.9l23.9-23.9M493.7.5l-27.3,27.3h27.3V.5h0Z"/>
                </g>
              </g>
              <path class="st3" d="M547.4,1.5v25.3h-25.3V1.5h25.3M548.4.5h-27.3v27.3h27.3V.5h0Z"/>
            </g>
          </g>
        </g>
        <g>
          <g>
            <path class="st3" d="M547.4,30.3v23.9h-23.9l23.9-23.9M548.4,27.8l-27.3,27.3h27.3v-27.3h0Z"/>
            <path class="st3" d="M545.9,28.8l-23.9,23.9v-23.9h23.9M548.4,27.8h-27.3v27.3l27.3-27.3h0Z"/>
            <path class="st3" d="M573.3,28.8l-23.9,23.9v-23.9h23.9M575.7,27.8h-27.3v27.3l27.3-27.3h0Z"/>
            <path class="st3" d="M574.7,30.3v23.9h-23.9l23.9-23.9M575.7,27.8l-27.3,27.3h27.3v-27.3h0Z"/>
          </g>
          <g>
            <g>
              <path class="st3" d="M520.7,28.8v23.9l-23.9-23.9h23.9M521.7,27.8h-27.3l27.3,27.3v-27.3h0Z"/>
              <path class="st3" d="M495.4,30.3l23.9,23.9h-23.9v-23.9M494.4,27.8v27.3h27.3l-27.3-27.3h0Z"/>
            </g>
            <g>
              <g>
                <g>
                  <line class="st1" x1="2.2" y1="27.8" x2="2.2" y2="55.2"/>
                  <path class="st1" d="M2.2,27.8"/>
                </g>
                <g>
                  <g>
                    <path class="st3" d="M30.5,30.3l23.9,23.9h-23.9v-23.9M29.5,27.8v27.3h27.3l-27.3-27.3h0Z"/>
                    <path class="st3" d="M55.9,28.8v23.9l-23.9-23.9h23.9M56.9,27.8h-27.3l27.3,27.3v-27.3h0Z"/>
                  </g>
                  <g>
                    <path class="st3" d="M27.1,28.8L3.2,52.8v-23.9h23.9M29.5,27.8H2.2v27.3l27.3-27.3h0Z"/>
                    <path class="st3" d="M28.5,30.3v23.9H4.6l23.9-23.9M29.5,27.8L2.2,55.2h27.3v-27.3h0Z"/>
                  </g>
                </g>
                <path class="st3" d="M83.2,28.8v25.3h-25.3v-25.3h25.3M84.2,27.8h-27.3v27.3h27.3v-27.3h0Z"/>
              </g>
              <g>
                <g>
                  <g>
                    <path class="st3" d="M110.6,28.8v23.9l-23.9-23.9h23.9M111.6,27.8h-27.3l27.3,27.3v-27.3h0Z"/>
                    <path class="st3" d="M85.2,30.3l23.9,23.9h-23.9v-23.9M84.2,27.8v27.3h27.3l-27.3-27.3h0Z"/>
                  </g>
                  <g>
                    <path class="st3" d="M137.9,30.3v23.9h-23.9l23.9-23.9M138.9,27.8l-27.3,27.3h27.3v-27.3h0Z"/>
                    <path class="st3" d="M136.5,28.8l-23.9,23.9v-23.9h23.9M138.9,27.8h-27.3v27.3l27.3-27.3h0Z"/>
                  </g>
                </g>
                <g>
                  <g>
                    <path class="st3" d="M167.3,30.3l23.9,23.9h-23.9v-23.9M166.3,27.8v27.3h27.3l-27.3-27.3h0Z"/>
                    <path class="st3" d="M192.6,28.8v23.9l-23.9-23.9h23.9M193.6,27.8h-27.3l27.3,27.3v-27.3h0Z"/>
                  </g>
                  <g>
                    <path class="st3" d="M163.8,28.8l-23.9,23.9v-23.9h23.9M166.3,27.8h-27.3v27.3l27.3-27.3h0Z"/>
                    <path class="st3" d="M165.3,30.3v23.9h-23.9l23.9-23.9M166.3,27.8l-27.3,27.3h27.3v-27.3h0Z"/>
                  </g>
                </g>
                <path class="st3" d="M219.9,28.8v25.3h-25.3v-25.3h25.3M220.9,27.8h-27.3v27.3h27.3v-27.3h0Z"/>
              </g>
            </g>
            <g>
              <g>
                <g>
                  <g>
                    <path class="st3" d="M247.3,28.8v23.9l-23.9-23.9h23.9M248.3,27.8h-27.3l27.3,27.3v-27.3h0Z"/>
                    <path class="st3" d="M221.9,30.3l23.9,23.9h-23.9v-23.9M220.9,27.8v27.3h27.3l-27.3-27.3h0Z"/>
                  </g>
                  <g>
                    <path class="st3" d="M274.6,30.3v23.9h-23.9l23.9-23.9M275.6,27.8l-27.3,27.3h27.3v-27.3h0Z"/>
                    <path class="st3" d="M273.2,28.8l-23.9,23.9v-23.9h23.9M275.6,27.8h-27.3v27.3l27.3-27.3h0Z"/>
                  </g>
                </g>
                <g>
                  <g>
                    <path class="st3" d="M304,30.3l23.9,23.9h-23.9v-23.9M303,27.8v27.3h27.3l-27.3-27.3h0Z"/>
                    <path class="st3" d="M329.3,28.8v23.9l-23.9-23.9h23.9M330.3,27.8h-27.3l27.3,27.3v-27.3h0Z"/>
                  </g>
                  <g>
                    <path class="st3" d="M300.5,28.8l-23.9,23.9v-23.9h23.9M303,27.8h-27.3v27.3l27.3-27.3h0Z"/>
                    <path class="st3" d="M302,30.3v23.9h-23.9l23.9-23.9M303,27.8l-27.3,27.3h27.3v-27.3h0Z"/>
                  </g>
                </g>
                <path class="st3" d="M356.6,28.8v25.3h-25.3v-25.3h25.3M357.6,27.8h-27.3v27.3h27.3v-27.3h0Z"/>
              </g>
              <g>
                <g>
                  <g>
                    <path class="st3" d="M384,28.8v23.9l-23.9-23.9h23.9M385,27.8h-27.3l27.3,27.3v-27.3h0Z"/>
                    <path class="st3" d="M358.6,30.3l23.9,23.9h-23.9v-23.9M357.6,27.8v27.3h27.3l-27.3-27.3h0Z"/>
                  </g>
                  <g>
                    <path class="st3" d="M411.3,30.3v23.9h-23.9l23.9-23.9M412.3,27.8l-27.3,27.3h27.3v-27.3h0Z"/>
                    <path class="st3" d="M409.9,28.8l-23.9,23.9v-23.9h23.9M412.3,27.8h-27.3v27.3l27.3-27.3h0Z"/>
                  </g>
                </g>
                <g>
                  <g>
                    <path class="st3" d="M440.7,30.3l23.9,23.9h-23.9v-23.9M439.7,27.8v27.3h27.3l-27.3-27.3h0Z"/>
                    <path class="st3" d="M466,28.8v23.9l-23.9-23.9h23.9M467,27.8h-27.3l27.3,27.3v-27.3h0Z"/>
                  </g>
                  <g>
                    <path class="st3" d="M437.3,28.8l-23.9,23.9v-23.9h23.9M439.7,27.8h-27.3v27.3l27.3-27.3h0Z"/>
                    <path class="st3" d="M438.7,30.3v23.9h-23.9l23.9-23.9M439.7,27.8l-27.3,27.3h27.3v-27.3h0Z"/>
                  </g>
                </g>
                <path class="st3" d="M493.4,28.8v25.3h-25.3v-25.3h25.3M494.4,27.8h-27.3v27.3h27.3v-27.3h0Z"/>
              </g>
            </g>
          </g>
        </g>
      </g>
      <g>
        <g>
          <g>
            <path class="st3" d="M574.7,274.9v23.9l-23.9-23.9h23.9M575.7,273.9h-27.3l27.3,27.3v-27.3h0Z"/>
            <path class="st3" d="M549.4,276.3l23.9,23.9h-23.9v-23.9M548.4,273.9v27.3h27.3l-27.3-27.3h0Z"/>
          </g>
          <g>
            <g>
              <g>
                <g>
                  <path class="st3" d="M27.9,274.9v23.9l-23.9-23.9h23.9M28.9,273.9H1.5l27.3,27.3v-27.3h0Z"/>
                  <path class="st3" d="M2.5,276.3l23.9,23.9H2.5v-23.9M1.5,273.9v27.3h27.3l-27.3-27.3h0Z"/>
                </g>
                <g>
                  <path class="st3" d="M55.2,276.3v23.9h-23.9l23.9-23.9M56.2,273.9l-27.3,27.3h27.3v-27.3h0Z"/>
                  <path class="st3" d="M53.8,274.9l-23.9,23.9v-23.9h23.9M56.2,273.9h-27.3v27.3l27.3-27.3h0Z"/>
                </g>
              </g>
              <g>
                <g>
                  <path class="st3" d="M84.5,276.3l23.9,23.9h-23.9v-23.9M83.5,273.9v27.3h27.3l-27.3-27.3h0Z"/>
                  <path class="st3" d="M109.9,274.9v23.9l-23.9-23.9h23.9M110.9,273.9h-27.3l27.3,27.3v-27.3h0Z"/>
                </g>
                <g>
                  <path class="st3" d="M81.1,274.9l-23.9,23.9v-23.9h23.9M83.5,273.9h-27.3v27.3l27.3-27.3h0Z"/>
                  <path class="st3" d="M82.5,276.3v23.9h-23.9l23.9-23.9M83.5,273.9l-27.3,27.3h27.3v-27.3h0Z"/>
                </g>
              </g>
              <path class="st3" d="M137.2,274.9v25.3h-25.3v-25.3h25.3M138.2,273.9h-27.3v27.3h27.3v-27.3h0Z"/>
            </g>
            <g>
              <g>
                <g>
                  <path class="st3" d="M164.6,274.9v23.9l-23.9-23.9h23.9M165.6,273.9h-27.3l27.3,27.3v-27.3h0Z"/>
                  <path class="st3" d="M139.2,276.3l23.9,23.9h-23.9v-23.9M138.2,273.9v27.3h27.3l-27.3-27.3h0Z"/>
                </g>
                <g>
                  <path class="st3" d="M191.9,276.3v23.9h-23.9l23.9-23.9M192.9,273.9l-27.3,27.3h27.3v-27.3h0Z"/>
                  <path class="st3" d="M190.5,274.9l-23.9,23.9v-23.9h23.9M192.9,273.9h-27.3v27.3l27.3-27.3h0Z"/>
                </g>
              </g>
              <g>
                <g>
                  <path class="st3" d="M221.3,276.3l23.9,23.9h-23.9v-23.9M220.3,273.9v27.3h27.3l-27.3-27.3h0Z"/>
                  <path class="st3" d="M246.6,274.9v23.9l-23.9-23.9h23.9M247.6,273.9h-27.3l27.3,27.3v-27.3h0Z"/>
                </g>
                <g>
                  <path class="st3" d="M217.8,274.9l-23.9,23.9v-23.9h23.9M220.3,273.9h-27.3v27.3l27.3-27.3h0Z"/>
                  <path class="st3" d="M219.3,276.3v23.9h-23.9l23.9-23.9M220.3,273.9l-27.3,27.3h27.3v-27.3h0Z"/>
                </g>
              </g>
              <path class="st3" d="M273.9,274.9v25.3h-25.3v-25.3h25.3M274.9,273.9h-27.3v27.3h27.3v-27.3h0Z"/>
            </g>
          </g>
          <g>
            <g>
              <g>
                <g>
                  <path class="st3" d="M301.3,274.9v23.9l-23.9-23.9h23.9M302.3,273.9h-27.3l27.3,27.3v-27.3h0Z"/>
                  <path class="st3" d="M275.9,276.3l23.9,23.9h-23.9v-23.9M274.9,273.9v27.3h27.3l-27.3-27.3h0Z"/>
                </g>
                <g>
                  <path class="st3" d="M328.6,276.3v23.9h-23.9l23.9-23.9M329.6,273.9l-27.3,27.3h27.3v-27.3h0Z"/>
                  <path class="st3" d="M327.2,274.9l-23.9,23.9v-23.9h23.9M329.6,273.9h-27.3v27.3l27.3-27.3h0Z"/>
                </g>
              </g>
              <g>
                <g>
                  <path class="st3" d="M358,276.3l23.9,23.9h-23.9v-23.9M357,273.9v27.3h27.3l-27.3-27.3h0Z"/>
                  <path class="st3" d="M383.3,274.9v23.9l-23.9-23.9h23.9M384.3,273.9h-27.3l27.3,27.3v-27.3h0Z"/>
                </g>
                <g>
                  <path class="st3" d="M354.5,274.9l-23.9,23.9v-23.9h23.9M357,273.9h-27.3v27.3l27.3-27.3h0Z"/>
                  <path class="st3" d="M356,276.3v23.9h-23.9l23.9-23.9M357,273.9l-27.3,27.3h27.3v-27.3h0Z"/>
                </g>
              </g>
              <path class="st3" d="M410.6,274.9v25.3h-25.3v-25.3h25.3M411.6,273.9h-27.3v27.3h27.3v-27.3h0Z"/>
            </g>
            <g>
              <g>
                <g>
                  <path class="st3" d="M438,274.9v23.9l-23.9-23.9h23.9M439,273.9h-27.3l27.3,27.3v-27.3h0Z"/>
                  <path class="st3" d="M412.6,276.3l23.9,23.9h-23.9v-23.9M411.6,273.9v27.3h27.3l-27.3-27.3h0Z"/>
                </g>
                <g>
                  <path class="st3" d="M465.3,276.3v23.9h-23.9l23.9-23.9M466.3,273.9l-27.3,27.3h27.3v-27.3h0Z"/>
                  <path class="st3" d="M463.9,274.9l-23.9,23.9v-23.9h23.9M466.3,273.9h-27.3v27.3l27.3-27.3h0Z"/>
                </g>
              </g>
              <g>
                <g>
                  <path class="st3" d="M494.7,276.3l23.9,23.9h-23.9v-23.9M493.7,273.9v27.3h27.3l-27.3-27.3h0Z"/>
                  <path class="st3" d="M520,274.9v23.9l-23.9-23.9h23.9M521,273.9h-27.3l27.3,27.3v-27.3h0Z"/>
                </g>
                <g>
                  <path class="st3" d="M491.3,274.9l-23.9,23.9v-23.9h23.9M493.7,273.9h-27.3v27.3l27.3-27.3h0Z"/>
                  <path class="st3" d="M492.7,276.3v23.9h-23.9l23.9-23.9M493.7,273.9l-27.3,27.3h27.3v-27.3h0Z"/>
                </g>
              </g>
              <path class="st3" d="M547.4,274.9v25.3h-25.3v-25.3h25.3M548.4,273.9h-27.3v27.3h27.3v-27.3h0Z"/>
            </g>
          </g>
        </g>
        <g>
          <g>
            <path class="st3" d="M547.4,303.7v23.9h-23.9l23.9-23.9M548.4,301.3l-27.3,27.3h27.3v-27.3h0Z"/>
            <path class="st3" d="M545.9,302.3l-23.9,23.9v-23.9h23.9M548.4,301.3h-27.3v27.3l27.3-27.3h0Z"/>
            <path class="st3" d="M573.3,302.3l-23.9,23.9v-23.9h23.9M575.7,301.3h-27.3v27.3l27.3-27.3h0Z"/>
            <path class="st3" d="M574.7,303.7v23.9h-23.9l23.9-23.9M575.7,301.3l-27.3,27.3h27.3v-27.3h0Z"/>
          </g>
          <g>
            <g>
              <path class="st3" d="M520.7,302.3v23.9l-23.9-23.9h23.9M521.7,301.3h-27.3l27.3,27.3v-27.3h0Z"/>
              <path class="st3" d="M495.4,303.7l23.9,23.9h-23.9v-23.9M494.4,301.3v27.3h27.3l-27.3-27.3h0Z"/>
            </g>
            <g>
              <g>
                <g>
                  <line class="st1" x1="2.2" y1="301.3" x2="2.2" y2="328.6"/>
                  <path class="st1" d="M2.2,301.3"/>
                </g>
                <g>
                  <g>
                    <path class="st3" d="M30.5,303.7l23.9,23.9h-23.9v-23.9M29.5,301.3v27.3h27.3l-27.3-27.3h0Z"/>
                    <path class="st3" d="M55.9,302.3v23.9l-23.9-23.9h23.9M56.9,301.3h-27.3l27.3,27.3v-27.3h0Z"/>
                  </g>
                  <g>
                    <path class="st3" d="M27.1,302.3l-23.9,23.9v-23.9h23.9M29.5,301.3H2.2v27.3l27.3-27.3h0Z"/>
                    <path class="st3" d="M28.5,303.7v23.9H4.6l23.9-23.9M29.5,301.3l-27.3,27.3h27.3v-27.3h0Z"/>
                  </g>
                </g>
                <path class="st3" d="M83.2,302.3v25.3h-25.3v-25.3h25.3M84.2,301.3h-27.3v27.3h27.3v-27.3h0Z"/>
              </g>
              <g>
                <g>
                  <g>
                    <path class="st3" d="M110.6,302.3v23.9l-23.9-23.9h23.9M111.6,301.3h-27.3l27.3,27.3v-27.3h0Z"/>
                    <path class="st3" d="M85.2,303.7l23.9,23.9h-23.9v-23.9M84.2,301.3v27.3h27.3l-27.3-27.3h0Z"/>
                  </g>
                  <g>
                    <path class="st3" d="M137.9,303.7v23.9h-23.9l23.9-23.9M138.9,301.3l-27.3,27.3h27.3v-27.3h0Z"/>
                    <path class="st3" d="M136.5,302.3l-23.9,23.9v-23.9h23.9M138.9,301.3h-27.3v27.3l27.3-27.3h0Z"/>
                  </g>
                </g>
                <g>
                  <g>
                    <path class="st3" d="M167.3,303.7l23.9,23.9h-23.9v-23.9M166.3,301.3v27.3h27.3l-27.3-27.3h0Z"/>
                    <path class="st3" d="M192.6,302.3v23.9l-23.9-23.9h23.9M193.6,301.3h-27.3l27.3,27.3v-27.3h0Z"/>
                  </g>
                  <g>
                    <path class="st3" d="M163.8,302.3l-23.9,23.9v-23.9h23.9M166.3,301.3h-27.3v27.3l27.3-27.3h0Z"/>
                    <path class="st3" d="M165.3,303.7v23.9h-23.9l23.9-23.9M166.3,301.3l-27.3,27.3h27.3v-27.3h0Z"/>
                  </g>
                </g>
                <path class="st3" d="M219.9,302.3v25.3h-25.3v-25.3h25.3M220.9,301.3h-27.3v27.3h27.3v-27.3h0Z"/>
              </g>
            </g>
            <g>
              <g>
                <g>
                  <g>
                    <path class="st3" d="M247.3,302.3v23.9l-23.9-23.9h23.9M248.3,301.3h-27.3l27.3,27.3v-27.3h0Z"/>
                    <path class="st3" d="M221.9,303.7l23.9,23.9h-23.9v-23.9M220.9,301.3v27.3h27.3l-27.3-27.3h0Z"/>
                  </g>
                  <g>
                    <path class="st3" d="M274.6,303.7v23.9h-23.9l23.9-23.9M275.6,301.3l-27.3,27.3h27.3v-27.3h0Z"/>
                    <path class="st3" d="M273.2,302.3l-23.9,23.9v-23.9h23.9M275.6,301.3h-27.3v27.3l27.3-27.3h0Z"/>
                  </g>
                </g>
                <g>
                  <g>
                    <path class="st3" d="M304,303.7l23.9,23.9h-23.9v-23.9M303,301.3v27.3h27.3l-27.3-27.3h0Z"/>
                    <path class="st3" d="M329.3,302.3v23.9l-23.9-23.9h23.9M330.3,301.3h-27.3l27.3,27.3v-27.3h0Z"/>
                  </g>
                  <g>
                    <path class="st3" d="M300.5,302.3l-23.9,23.9v-23.9h23.9M303,301.3h-27.3v27.3l27.3-27.3h0Z"/>
                    <path class="st3" d="M302,303.7v23.9h-23.9l23.9-23.9M303,301.3l-27.3,27.3h27.3v-27.3h0Z"/>
                  </g>
                </g>
                <path class="st3" d="M356.6,302.3v25.3h-25.3v-25.3h25.3M357.6,301.3h-27.3v27.3h27.3v-27.3h0Z"/>
              </g>
              <g>
                <g>
                  <g>
                    <path class="st3" d="M384,302.3v23.9l-23.9-23.9h23.9M385,301.3h-27.3l27.3,27.3v-27.3h0Z"/>
                    <path class="st3" d="M358.6,303.7l23.9,23.9h-23.9v-23.9M357.6,301.3v27.3h27.3l-27.3-27.3h0Z"/>
                  </g>
                  <g>
                    <path class="st3" d="M411.3,303.7v23.9h-23.9l23.9-23.9M412.3,301.3l-27.3,27.3h27.3v-27.3h0Z"/>
                    <path class="st3" d="M409.9,302.3l-23.9,23.9v-23.9h23.9M412.3,301.3h-27.3v27.3l27.3-27.3h0Z"/>
                  </g>
                </g>
                <g>
                  <g>
                    <path class="st3" d="M440.7,303.7l23.9,23.9h-23.9v-23.9M439.7,301.3v27.3h27.3l-27.3-27.3h0Z"/>
                    <path class="st3" d="M466,302.3v23.9l-23.9-23.9h23.9M467,301.3h-27.3l27.3,27.3v-27.3h0Z"/>
                  </g>
                  <g>
                    <path class="st3" d="M437.3,302.3l-23.9,23.9v-23.9h23.9M439.7,301.3h-27.3v27.3l27.3-27.3h0Z"/>
                    <path class="st3" d="M438.7,303.7v23.9h-23.9l23.9-23.9M439.7,301.3l-27.3,27.3h27.3v-27.3h0Z"/>
                  </g>
                </g>
                <path class="st3" d="M493.4,302.3v25.3h-25.3v-25.3h25.3M494.4,301.3h-27.3v27.3h27.3v-27.3h0Z"/>
              </g>
            </g>
          </g>
        </g>
      </g>
      <g>
        <g>
          <path class="st3" d="M136.9,220.2v23.9l-23.9-23.9h23.9M137.9,219.2h-27.3l27.3,27.3v-27.3h0Z"/>
          <path class="st3" d="M111.5,221.7l23.9,23.9h-23.9v-23.9M110.5,219.2v27.3h27.3l-27.3-27.3h0Z"/>
          <path class="st3" d="M164.2,221.7v23.9h-23.9l23.9-23.9M165.2,219.2l-27.3,27.3h27.3v-27.3h0Z"/>
          <path class="st3" d="M162.8,220.2l-23.9,23.9v-23.9h23.9M165.2,219.2h-27.3v27.3l27.3-27.3h0Z"/>
          <path class="st3" d="M193.6,221.7l23.9,23.9h-23.9v-23.9M192.6,219.2v27.3h27.3l-27.3-27.3h0Z"/>
          <path class="st3" d="M218.9,220.2v23.9l-23.9-23.9h23.9M219.9,219.2h-27.3l27.3,27.3v-27.3h0Z"/>
          <path class="st3" d="M190.2,220.2l-23.9,23.9v-23.9h23.9M192.6,219.2h-27.3v27.3l27.3-27.3h0Z"/>
          <path class="st3" d="M191.6,221.7v23.9h-23.9l23.9-23.9M192.6,219.2l-27.3,27.3h27.3v-27.3h0Z"/>
          <path class="st3" d="M246.3,220.2v25.3h-25.3v-25.3h25.3M247.3,219.2h-27.3v27.3h27.3v-27.3h0Z"/>
          <path class="st3" d="M273.6,220.2v23.9l-23.9-23.9h23.9M274.6,219.2h-27.3l27.3,27.3v-27.3h0Z"/>
          <path class="st3" d="M248.3,221.7l23.9,23.9h-23.9v-23.9M247.3,219.2v27.3h27.3l-27.3-27.3h0Z"/>
          <path class="st3" d="M300.9,221.7v23.9h-23.9l23.9-23.9M301.9,219.2l-27.3,27.3h27.3v-27.3h0Z"/>
          <path class="st3" d="M299.5,220.2l-23.9,23.9v-23.9h23.9M301.9,219.2h-27.3v27.3l27.3-27.3h0Z"/>
          <path class="st3" d="M330.3,221.7l23.9,23.9h-23.9v-23.9M329.3,219.2v27.3h27.3l-27.3-27.3h0Z"/>
          <path class="st3" d="M355.6,220.2v23.9l-23.9-23.9h23.9M356.6,219.2h-27.3l27.3,27.3v-27.3h0Z"/>
          <path class="st3" d="M326.9,220.2l-23.9,23.9v-23.9h23.9M329.3,219.2h-27.3v27.3l27.3-27.3h0Z"/>
          <path class="st3" d="M328.3,221.7v23.9h-23.9l23.9-23.9M329.3,219.2l-27.3,27.3h27.3v-27.3h0Z"/>
          <path class="st3" d="M383,220.2v25.3h-25.3v-25.3h25.3M384,219.2h-27.3v27.3h27.3v-27.3h0Z"/>
          <path class="st3" d="M410.3,220.2v23.9l-23.9-23.9h23.9M411.3,219.2h-27.3l27.3,27.3v-27.3h0Z"/>
          <path class="st3" d="M385,221.7l23.9,23.9h-23.9v-23.9M384,219.2v27.3h27.3l-27.3-27.3h0Z"/>
          <path class="st3" d="M437.6,221.7v23.9h-23.9l23.9-23.9M438.6,219.2l-27.3,27.3h27.3v-27.3h0Z"/>
          <path class="st3" d="M436.2,220.2l-23.9,23.9v-23.9h23.9M438.6,219.2h-27.3v27.3l27.3-27.3h0Z"/>
          <path class="st3" d="M467,221.7l23.9,23.9h-23.9v-23.9M466,219.2v27.3h27.3l-27.3-27.3h0Z"/>
          <path class="st3" d="M492.3,220.2v23.9l-23.9-23.9h23.9M493.3,219.2h-27.3l27.3,27.3v-27.3h0Z"/>
          <path class="st3" d="M463.6,220.2l-23.9,23.9v-23.9h23.9M466,219.2h-27.3v27.3l27.3-27.3h0Z"/>
          <path class="st3" d="M465,221.7v23.9h-23.9l23.9-23.9M466,219.2l-27.3,27.3h27.3v-27.3h0Z"/>
          <path class="st3" d="M519.7,220.2v25.3h-25.3v-25.3h25.3M520.7,219.2h-27.3v27.3h27.3v-27.3h0Z"/>
          <path class="st3" d="M547,220.2v23.9l-23.9-23.9h23.9M548,219.2h-27.3l27.3,27.3v-27.3h0Z"/>
          <path class="st3" d="M521.7,221.7l23.9,23.9h-23.9v-23.9M520.7,219.2v27.3h27.3l-27.3-27.3h0Z"/>
          <path class="st3" d="M574.4,221.7v23.9h-23.9l23.9-23.9M575.4,219.2l-27.3,27.3h27.3v-27.3h0Z"/>
          <path class="st3" d="M572.9,220.2l-23.9,23.9v-23.9h23.9M575.4,219.2h-27.3v27.3l27.3-27.3h0Z"/>
          <line class="st1" x1="111.2" y1="246.6" x2="111.2" y2="273.9"/>
          <path class="st1" d="M111.2,246.6"/>
          <path class="st3" d="M139.6,249l23.9,23.9h-23.9v-23.9M138.6,246.6v27.3h27.3l-27.3-27.3h0Z"/>
          <path class="st3" d="M164.9,247.6v23.9l-23.9-23.9h23.9M165.9,246.6h-27.3l27.3,27.3v-27.3h0Z"/>
          <path class="st3" d="M136.2,247.6l-23.9,23.9v-23.9h23.9M138.6,246.6h-27.3v27.3l27.3-27.3h0Z"/>
          <path class="st3" d="M137.6,249v23.9h-23.9l23.9-23.9M138.6,246.6l-27.3,27.3h27.3v-27.3h0Z"/>
          <path class="st3" d="M192.3,247.6v25.3h-25.3v-25.3h25.3M193.3,246.6h-27.3v27.3h27.3v-27.3h0Z"/>
          <path class="st3" d="M219.6,247.6v23.9l-23.9-23.9h23.9M220.6,246.6h-27.3l27.3,27.3v-27.3h0Z"/>
          <path class="st3" d="M194.3,249l23.9,23.9h-23.9v-23.9M193.3,246.6v27.3h27.3l-27.3-27.3h0Z"/>
          <path class="st3" d="M246.9,249v23.9h-23.9l23.9-23.9M247.9,246.6l-27.3,27.3h27.3v-27.3h0Z"/>
          <path class="st3" d="M245.5,247.6l-23.9,23.9v-23.9h23.9M247.9,246.6h-27.3v27.3l27.3-27.3h0Z"/>
          <path class="st3" d="M276.3,249l23.9,23.9h-23.9v-23.9M275.3,246.6v27.3h27.3l-27.3-27.3h0Z"/>
          <path class="st3" d="M301.6,247.6v23.9l-23.9-23.9h23.9M302.6,246.6h-27.3l27.3,27.3v-27.3h0Z"/>
          <path class="st3" d="M272.9,247.6l-23.9,23.9v-23.9h23.9M275.3,246.6h-27.3v27.3l27.3-27.3h0Z"/>
          <path class="st3" d="M274.3,249v23.9h-23.9l23.9-23.9M275.3,246.6l-27.3,27.3h27.3v-27.3h0Z"/>
          <path class="st3" d="M329,247.6v25.3h-25.3v-25.3h25.3M330,246.6h-27.3v27.3h27.3v-27.3h0Z"/>
          <path class="st3" d="M356.3,247.6v23.9l-23.9-23.9h23.9M357.3,246.6h-27.3l27.3,27.3v-27.3h0Z"/>
          <path class="st3" d="M331,249l23.9,23.9h-23.9v-23.9M330,246.6v27.3h27.3l-27.3-27.3h0Z"/>
          <path class="st3" d="M383.6,249v23.9h-23.9l23.9-23.9M384.6,246.6l-27.3,27.3h27.3v-27.3h0Z"/>
          <path class="st3" d="M382.2,247.6l-23.9,23.9v-23.9h23.9M384.6,246.6h-27.3v27.3l27.3-27.3h0Z"/>
          <path class="st3" d="M413,249l23.9,23.9h-23.9v-23.9M412,246.6v27.3h27.3l-27.3-27.3h0Z"/>
          <path class="st3" d="M438.3,247.6v23.9l-23.9-23.9h23.9M439.3,246.6h-27.3l27.3,27.3v-27.3h0Z"/>
          <path class="st3" d="M409.6,247.6l-23.9,23.9v-23.9h23.9M412,246.6h-27.3v27.3l27.3-27.3h0Z"/>
          <path class="st3" d="M411,249v23.9h-23.9l23.9-23.9M412,246.6l-27.3,27.3h27.3v-27.3h0Z"/>
          <path class="st3" d="M465.7,247.6v25.3h-25.3v-25.3h25.3M466.7,246.6h-27.3v27.3h27.3v-27.3h0Z"/>
          <path class="st3" d="M493,247.6v23.9l-23.9-23.9h23.9M494,246.6h-27.3l27.3,27.3v-27.3h0Z"/>
          <path class="st3" d="M467.7,249l23.9,23.9h-23.9v-23.9M466.7,246.6v27.3h27.3l-27.3-27.3h0Z"/>
          <path class="st3" d="M520.4,249v23.9h-23.9l23.9-23.9M521.4,246.6l-27.3,27.3h27.3v-27.3h0Z"/>
          <path class="st3" d="M518.9,247.6l-23.9,23.9v-23.9h23.9M521.4,246.6h-27.3v27.3l27.3-27.3h0Z"/>
          <path class="st3" d="M549.7,249l23.9,23.9h-23.9v-23.9M548.7,246.6v27.3h27.3l-27.3-27.3h0Z"/>
          <path class="st3" d="M575,247.6v23.9l-23.9-23.9h23.9M576,246.6h-27.3l27.3,27.3v-27.3h0Z"/>
          <path class="st3" d="M546.3,247.6l-23.9,23.9v-23.9h23.9M548.7,246.6h-27.3v27.3l27.3-27.3h0Z"/>
          <path class="st3" d="M547.7,249v23.9h-23.9l23.9-23.9M548.7,246.6l-27.3,27.3h27.3v-27.3h0Z"/>
        </g>
        <g>
          <path class="st3" d="M2.2,249l23.9,23.9H2.2v-23.9M1.2,246.6v27.3h27.3L1.2,246.6h0Z"/>
          <path class="st3" d="M27.5,247.6v23.9l-23.9-23.9h23.9M28.5,246.6H1.2l27.3,27.3v-27.3h0Z"/>
          <path class="st3" d="M82.2,247.6v23.9l-23.9-23.9h23.9M83.2,246.6h-27.3l27.3,27.3v-27.3h0Z"/>
          <path class="st3" d="M56.9,249l23.9,23.9h-23.9v-23.9M55.9,246.6v27.3h27.3l-27.3-27.3h0Z"/>
          <path class="st3" d="M109.5,249v23.9h-23.9l23.9-23.9M110.5,246.6l-27.3,27.3h27.3v-27.3h0Z"/>
          <path class="st3" d="M108.1,247.6l-23.9,23.9v-23.9h23.9M110.5,246.6h-27.3v27.3l27.3-27.3h0Z"/>
          <path class="st3" d="M54.9,247.6v25.3h-25.3v-25.3h25.3M55.9,246.6h-27.3v27.3h27.3v-27.3h0Z"/>
          <path class="st3" d="M53.4,220.2l-23.9,23.9v-23.9h23.9M55.9,219.2h-27.3v27.3l27.3-27.3h0Z"/>
          <path class="st3" d="M54.9,221.7v23.9h-23.9l23.9-23.9M55.9,219.2l-27.3,27.3h27.3v-27.3h0Z"/>
          <path class="st3" d="M27.5,221.7v23.9H3.6l23.9-23.9M28.5,219.2L1.2,246.6h27.3v-27.3h0Z"/>
          <path class="st3" d="M26.1,220.2l-23.9,23.9v-23.9h23.9M28.5,219.2H1.2v27.3l27.3-27.3h0Z"/>
          <path class="st3" d="M56.2,221.7l23.9,23.9h-23.9v-23.9M55.2,219.2v27.3h27.3l-27.3-27.3h0Z"/>
          <path class="st3" d="M81.5,220.2v23.9l-23.9-23.9h23.9M82.5,219.2h-27.3l27.3,27.3v-27.3h0Z"/>
          <path class="st3" d="M108.9,220.2v25.3h-25.3v-25.3h25.3M109.9,219.2h-27.3v27.3h27.3v-27.3h0Z"/>
        </g>
      </g>
      <g>
        <g>
          <path class="st3" d="M2.2,194.3l23.9,23.9H2.2v-23.9M1.2,191.9v27.3h27.3L1.2,191.9h0Z"/>
          <path class="st3" d="M27.5,192.9v23.9l-23.9-23.9h23.9M28.5,191.9H1.2l27.3,27.3v-27.3h0Z"/>
          <path class="st3" d="M82.2,192.9v23.9l-23.9-23.9h23.9M83.2,191.9h-27.3l27.3,27.3v-27.3h0Z"/>
          <path class="st3" d="M56.9,194.3l23.9,23.9h-23.9v-23.9M55.9,191.9v27.3h27.3l-27.3-27.3h0Z"/>
          <path class="st3" d="M54.9,192.9v25.3h-25.3v-25.3h25.3M55.9,191.9h-27.3v27.3h27.3v-27.3h0Z"/>
          <path class="st3" d="M53.4,165.6l-23.9,23.9v-23.9h23.9M55.9,164.6h-27.3v27.3l27.3-27.3h0Z"/>
          <path class="st3" d="M54.9,167v23.9h-23.9l23.9-23.9M55.9,164.6l-27.3,27.3h27.3v-27.3h0Z"/>
          <path class="st3" d="M27.5,167v23.9H3.6l23.9-23.9M28.5,164.6L1.2,191.9h27.3v-27.3h0Z"/>
          <path class="st3" d="M26.1,165.6l-23.9,23.9v-23.9h23.9M28.5,164.6H1.2v27.3l27.3-27.3h0Z"/>
          <path class="st3" d="M56.2,167l23.9,23.9h-23.9v-23.9M55.2,164.6v27.3h27.3l-27.3-27.3h0Z"/>
          <path class="st3" d="M81.5,165.6v23.9l-23.9-23.9h23.9M82.5,164.6h-27.3l27.3,27.3v-27.3h0Z"/>
        </g>
        <g>
          <path class="st3" d="M109.5,165.6v23.9l-23.9-23.9h23.9M110.5,164.6h-27.3l27.3,27.3v-27.3h0Z"/>
          <path class="st3" d="M84.2,167l23.9,23.9h-23.9v-23.9M83.2,164.6v27.3h27.3l-27.3-27.3h0Z"/>
          <path class="st3" d="M136.9,167v23.9h-23.9l23.9-23.9M137.9,164.6l-27.3,27.3h27.3v-27.3h0Z"/>
          <path class="st3" d="M135.5,165.6l-23.9,23.9v-23.9h23.9M137.9,164.6h-27.3v27.3l27.3-27.3h0Z"/>
          <path class="st3" d="M166.2,167l23.9,23.9h-23.9v-23.9M165.2,164.6v27.3h27.3l-27.3-27.3h0Z"/>
          <path class="st3" d="M191.6,165.6v23.9l-23.9-23.9h23.9M192.6,164.6h-27.3l27.3,27.3v-27.3h0Z"/>
          <path class="st3" d="M162.8,165.6l-23.9,23.9v-23.9h23.9M165.2,164.6h-27.3v27.3l27.3-27.3h0Z"/>
          <path class="st3" d="M164.2,167v23.9h-23.9l23.9-23.9M165.2,164.6l-27.3,27.3h27.3v-27.3h0Z"/>
          <path class="st3" d="M218.9,165.6v25.3h-25.3v-25.3h25.3M219.9,164.6h-27.3v27.3h27.3v-27.3h0Z"/>
          <path class="st3" d="M246.3,165.6v23.9l-23.9-23.9h23.9M247.3,164.6h-27.3l27.3,27.3v-27.3h0Z"/>
          <path class="st3" d="M220.9,167l23.9,23.9h-23.9v-23.9M219.9,164.6v27.3h27.3l-27.3-27.3h0Z"/>
          <path class="st3" d="M273.6,167v23.9h-23.9l23.9-23.9M274.6,164.6l-27.3,27.3h27.3v-27.3h0Z"/>
          <path class="st3" d="M272.2,165.6l-23.9,23.9v-23.9h23.9M274.6,164.6h-27.3v27.3l27.3-27.3h0Z"/>
          <path class="st3" d="M302.9,167l23.9,23.9h-23.9v-23.9M301.9,164.6v27.3h27.3l-27.3-27.3h0Z"/>
          <path class="st3" d="M328.3,165.6v23.9l-23.9-23.9h23.9M329.3,164.6h-27.3l27.3,27.3v-27.3h0Z"/>
          <path class="st3" d="M299.5,165.6l-23.9,23.9v-23.9h23.9M301.9,164.6h-27.3v27.3l27.3-27.3h0Z"/>
          <path class="st3" d="M300.9,167v23.9h-23.9l23.9-23.9M301.9,164.6l-27.3,27.3h27.3v-27.3h0Z"/>
          <path class="st3" d="M355.6,165.6v25.3h-25.3v-25.3h25.3M356.6,164.6h-27.3v27.3h27.3v-27.3h0Z"/>
          <path class="st3" d="M383,165.6v23.9l-23.9-23.9h23.9M384,164.6h-27.3l27.3,27.3v-27.3h0Z"/>
          <path class="st3" d="M357.6,167l23.9,23.9h-23.9v-23.9M356.6,164.6v27.3h27.3l-27.3-27.3h0Z"/>
          <path class="st3" d="M410.3,167v23.9h-23.9l23.9-23.9M411.3,164.6l-27.3,27.3h27.3v-27.3h0Z"/>
          <path class="st3" d="M408.9,165.6l-23.9,23.9v-23.9h23.9M411.3,164.6h-27.3v27.3l27.3-27.3h0Z"/>
          <path class="st3" d="M439.6,167l23.9,23.9h-23.9v-23.9M438.6,164.6v27.3h27.3l-27.3-27.3h0Z"/>
          <path class="st3" d="M465,165.6v23.9l-23.9-23.9h23.9M466,164.6h-27.3l27.3,27.3v-27.3h0Z"/>
          <path class="st3" d="M436.2,165.6l-23.9,23.9v-23.9h23.9M438.6,164.6h-27.3v27.3l27.3-27.3h0Z"/>
          <path class="st3" d="M437.6,167v23.9h-23.9l23.9-23.9M438.6,164.6l-27.3,27.3h27.3v-27.3h0Z"/>
          <path class="st3" d="M492.3,165.6v25.3h-25.3v-25.3h25.3M493.3,164.6h-27.3v27.3h27.3v-27.3h0Z"/>
          <path class="st3" d="M519.7,165.6v23.9l-23.9-23.9h23.9M520.7,164.6h-27.3l27.3,27.3v-27.3h0Z"/>
          <path class="st3" d="M494.3,167l23.9,23.9h-23.9v-23.9M493.3,164.6v27.3h27.3l-27.3-27.3h0Z"/>
          <path class="st3" d="M547,167v23.9h-23.9l23.9-23.9M548,164.6l-27.3,27.3h27.3v-27.3h0Z"/>
          <path class="st3" d="M545.6,165.6l-23.9,23.9v-23.9h23.9M548,164.6h-27.3v27.3l27.3-27.3h0Z"/>
          <path class="st3" d="M572.9,165.6l-23.9,23.9v-23.9h23.9M575.4,164.6h-27.3v27.3l27.3-27.3h0Z"/>
          <path class="st3" d="M574.4,167v23.9h-23.9l23.9-23.9M575.4,164.6l-27.3,27.3h27.3v-27.3h0Z"/>
          <line class="st1" x1="83.9" y1="191.9" x2="83.9" y2="219.2"/>
          <path class="st1" d="M83.9,191.9"/>
          <path class="st3" d="M112.2,194.3l23.9,23.9h-23.9v-23.9M111.2,191.9v27.3h27.3l-27.3-27.3h0Z"/>
          <path class="st3" d="M137.6,192.9v23.9l-23.9-23.9h23.9M138.6,191.9h-27.3l27.3,27.3v-27.3h0Z"/>
          <path class="st3" d="M108.8,192.9l-23.9,23.9v-23.9h23.9M111.2,191.9h-27.3v27.3l27.3-27.3h0Z"/>
          <path class="st3" d="M110.2,194.3v23.9h-23.9l23.9-23.9M111.2,191.9l-27.3,27.3h27.3v-27.3h0Z"/>
          <path class="st3" d="M164.9,192.9v25.3h-25.3v-25.3h25.3M165.9,191.9h-27.3v27.3h27.3v-27.3h0Z"/>
          <path class="st3" d="M192.3,192.9v23.9l-23.9-23.9h23.9M193.3,191.9h-27.3l27.3,27.3v-27.3h0Z"/>
          <path class="st3" d="M166.9,194.3l23.9,23.9h-23.9v-23.9M165.9,191.9v27.3h27.3l-27.3-27.3h0Z"/>
          <path class="st3" d="M219.6,194.3v23.9h-23.9l23.9-23.9M220.6,191.9l-27.3,27.3h27.3v-27.3h0Z"/>
          <path class="st3" d="M218.2,192.9l-23.9,23.9v-23.9h23.9M220.6,191.9h-27.3v27.3l27.3-27.3h0Z"/>
          <path class="st3" d="M248.9,194.3l23.9,23.9h-23.9v-23.9M247.9,191.9v27.3h27.3l-27.3-27.3h0Z"/>
          <path class="st3" d="M274.3,192.9v23.9l-23.9-23.9h23.9M275.3,191.9h-27.3l27.3,27.3v-27.3h0Z"/>
          <path class="st3" d="M245.5,192.9l-23.9,23.9v-23.9h23.9M247.9,191.9h-27.3v27.3l27.3-27.3h0Z"/>
          <path class="st3" d="M246.9,194.3v23.9h-23.9l23.9-23.9M247.9,191.9l-27.3,27.3h27.3v-27.3h0Z"/>
          <path class="st3" d="M301.6,192.9v25.3h-25.3v-25.3h25.3M302.6,191.9h-27.3v27.3h27.3v-27.3h0Z"/>
          <path class="st3" d="M329,192.9v23.9l-23.9-23.9h23.9M330,191.9h-27.3l27.3,27.3v-27.3h0Z"/>
          <path class="st3" d="M303.6,194.3l23.9,23.9h-23.9v-23.9M302.6,191.9v27.3h27.3l-27.3-27.3h0Z"/>
          <path class="st3" d="M356.3,194.3v23.9h-23.9l23.9-23.9M357.3,191.9l-27.3,27.3h27.3v-27.3h0Z"/>
          <path class="st3" d="M354.9,192.9l-23.9,23.9v-23.9h23.9M357.3,191.9h-27.3v27.3l27.3-27.3h0Z"/>
          <path class="st3" d="M385.6,194.3l23.9,23.9h-23.9v-23.9M384.6,191.9v27.3h27.3l-27.3-27.3h0Z"/>
          <path class="st3" d="M411,192.9v23.9l-23.9-23.9h23.9M412,191.9h-27.3l27.3,27.3v-27.3h0Z"/>
          <path class="st3" d="M382.2,192.9l-23.9,23.9v-23.9h23.9M384.6,191.9h-27.3v27.3l27.3-27.3h0Z"/>
          <path class="st3" d="M383.6,194.3v23.9h-23.9l23.9-23.9M384.6,191.9l-27.3,27.3h27.3v-27.3h0Z"/>
          <path class="st3" d="M438.3,192.9v25.3h-25.3v-25.3h25.3M439.3,191.9h-27.3v27.3h27.3v-27.3h0Z"/>
          <path class="st3" d="M465.7,192.9v23.9l-23.9-23.9h23.9M466.7,191.9h-27.3l27.3,27.3v-27.3h0Z"/>
          <path class="st3" d="M440.3,194.3l23.9,23.9h-23.9v-23.9M439.3,191.9v27.3h27.3l-27.3-27.3h0Z"/>
          <path class="st3" d="M493,194.3v23.9h-23.9l23.9-23.9M494,191.9l-27.3,27.3h27.3v-27.3h0Z"/>
          <path class="st3" d="M491.6,192.9l-23.9,23.9v-23.9h23.9M494,191.9h-27.3v27.3l27.3-27.3h0Z"/>
          <path class="st3" d="M522.4,194.3l23.9,23.9h-23.9v-23.9M521.4,191.9v27.3h27.3l-27.3-27.3h0Z"/>
          <path class="st3" d="M547.7,192.9v23.9l-23.9-23.9h23.9M548.7,191.9h-27.3l27.3,27.3v-27.3h0Z"/>
          <path class="st3" d="M518.9,192.9l-23.9,23.9v-23.9h23.9M521.4,191.9h-27.3v27.3l27.3-27.3h0Z"/>
          <path class="st3" d="M520.4,194.3v23.9h-23.9l23.9-23.9M521.4,191.9l-27.3,27.3h27.3v-27.3h0Z"/>
          <path class="st3" d="M575,192.9v25.3h-25.3v-25.3h25.3M576,191.9h-27.3v27.3h27.3v-27.3h0Z"/>
        </g>
      </g>
      <g>
        <g>
          <path class="st3" d="M2.8,84.9l23.9,23.9H2.8v-23.9M1.8,82.5v27.3h27.3L1.8,82.5h0Z"/>
          <path class="st3" d="M28.1,83.5v23.9l-23.9-23.9h23.9M29.1,82.5H1.8l27.3,27.3v-27.3h0Z"/>
          <path class="st3" d="M28.1,57.6v23.9H4.2l23.9-23.9M29.1,55.2L1.8,82.5h27.3v-27.3h0Z"/>
          <path class="st3" d="M26.7,56.2L2.8,80.1v-23.9h23.9M29.1,55.2H1.8v27.3l27.3-27.3h0Z"/>
        </g>
        <g>
          <g>
            <g>
              <g>
                <g>
                  <path class="st3" d="M54.9,56.2v23.9l-23.9-23.9h23.9M55.9,55.2h-27.3l27.3,27.3v-27.3h0Z"/>
                  <path class="st3" d="M29.6,57.6l23.9,23.9h-23.9v-23.9M28.6,55.2v27.3h27.3l-27.3-27.3h0Z"/>
                </g>
                <g>
                  <path class="st3" d="M82.3,57.6v23.9h-23.9l23.9-23.9M83.3,55.2l-27.3,27.3h27.3v-27.3h0Z"/>
                  <path class="st3" d="M80.9,56.2l-23.9,23.9v-23.9h23.9M83.3,55.2h-27.3v27.3l27.3-27.3h0Z"/>
                </g>
              </g>
              <g>
                <g>
                  <path class="st3" d="M111.6,57.6l23.9,23.9h-23.9v-23.9M110.6,55.2v27.3h27.3l-27.3-27.3h0Z"/>
                  <path class="st3" d="M137,56.2v23.9l-23.9-23.9h23.9M138,55.2h-27.3l27.3,27.3v-27.3h0Z"/>
                </g>
                <g>
                  <path class="st3" d="M108.2,56.2l-23.9,23.9v-23.9h23.9M110.6,55.2h-27.3v27.3l27.3-27.3h0Z"/>
                  <path class="st3" d="M109.6,57.6v23.9h-23.9l23.9-23.9M110.6,55.2l-27.3,27.3h27.3v-27.3h0Z"/>
                </g>
              </g>
              <path class="st3" d="M164.3,56.2v25.3h-25.3v-25.3h25.3M165.3,55.2h-27.3v27.3h27.3v-27.3h0Z"/>
            </g>
            <g>
              <g>
                <g>
                  <path class="st3" d="M191.6,56.2v23.9l-23.9-23.9h23.9M192.6,55.2h-27.3l27.3,27.3v-27.3h0Z"/>
                  <path class="st3" d="M166.3,57.6l23.9,23.9h-23.9v-23.9M165.3,55.2v27.3h27.3l-27.3-27.3h0Z"/>
                </g>
                <g>
                  <path class="st3" d="M219,57.6v23.9h-23.9l23.9-23.9M220,55.2l-27.3,27.3h27.3v-27.3h0Z"/>
                  <path class="st3" d="M217.6,56.2l-23.9,23.9v-23.9h23.9M220,55.2h-27.3v27.3l27.3-27.3h0Z"/>
                </g>
              </g>
              <g>
                <g>
                  <path class="st3" d="M248.3,57.6l23.9,23.9h-23.9v-23.9M247.3,55.2v27.3h27.3l-27.3-27.3h0Z"/>
                  <path class="st3" d="M273.7,56.2v23.9l-23.9-23.9h23.9M274.7,55.2h-27.3l27.3,27.3v-27.3h0Z"/>
                </g>
                <g>
                  <path class="st3" d="M244.9,56.2l-23.9,23.9v-23.9h23.9M247.3,55.2h-27.3v27.3l27.3-27.3h0Z"/>
                  <path class="st3" d="M246.3,57.6v23.9h-23.9l23.9-23.9M247.3,55.2l-27.3,27.3h27.3v-27.3h0Z"/>
                </g>
              </g>
              <path class="st3" d="M301,56.2v25.3h-25.3v-25.3h25.3M302,55.2h-27.3v27.3h27.3v-27.3h0Z"/>
            </g>
          </g>
          <g>
            <g>
              <g>
                <g>
                  <path class="st3" d="M328.4,56.2v23.9l-23.9-23.9h23.9M329.4,55.2h-27.3l27.3,27.3v-27.3h0Z"/>
                  <path class="st3" d="M303,57.6l23.9,23.9h-23.9v-23.9M302,55.2v27.3h27.3l-27.3-27.3h0Z"/>
                </g>
                <g>
                  <path class="st3" d="M355.7,57.6v23.9h-23.9l23.9-23.9M356.7,55.2l-27.3,27.3h27.3v-27.3h0Z"/>
                  <path class="st3" d="M354.3,56.2l-23.9,23.9v-23.9h23.9M356.7,55.2h-27.3v27.3l27.3-27.3h0Z"/>
                </g>
              </g>
              <g>
                <g>
                  <path class="st3" d="M385,57.6l23.9,23.9h-23.9v-23.9M384,55.2v27.3h27.3l-27.3-27.3h0Z"/>
                  <path class="st3" d="M410.4,56.2v23.9l-23.9-23.9h23.9M411.4,55.2h-27.3l27.3,27.3v-27.3h0Z"/>
                </g>
                <g>
                  <path class="st3" d="M381.6,56.2l-23.9,23.9v-23.9h23.9M384,55.2h-27.3v27.3l27.3-27.3h0Z"/>
                  <path class="st3" d="M383,57.6v23.9h-23.9l23.9-23.9M384,55.2l-27.3,27.3h27.3v-27.3h0Z"/>
                </g>
              </g>
              <path class="st3" d="M437.7,56.2v25.3h-25.3v-25.3h25.3M438.7,55.2h-27.3v27.3h27.3v-27.3h0Z"/>
            </g>
            <g>
              <g>
                <g>
                  <path class="st3" d="M465.1,56.2v23.9l-23.9-23.9h23.9M466.1,55.2h-27.3l27.3,27.3v-27.3h0Z"/>
                  <path class="st3" d="M439.7,57.6l23.9,23.9h-23.9v-23.9M438.7,55.2v27.3h27.3l-27.3-27.3h0Z"/>
                </g>
                <g>
                  <path class="st3" d="M492.4,57.6v23.9h-23.9l23.9-23.9M493.4,55.2l-27.3,27.3h27.3v-27.3h0Z"/>
                  <path class="st3" d="M491,56.2l-23.9,23.9v-23.9h23.9M493.4,55.2h-27.3v27.3l27.3-27.3h0Z"/>
                </g>
              </g>
              <g>
                <g>
                  <path class="st3" d="M521.7,57.6l23.9,23.9h-23.9v-23.9M520.7,55.2v27.3h27.3l-27.3-27.3h0Z"/>
                  <path class="st3" d="M547.1,56.2v23.9l-23.9-23.9h23.9M548.1,55.2h-27.3l27.3,27.3v-27.3h0Z"/>
                </g>
                <g>
                  <path class="st3" d="M518.3,56.2l-23.9,23.9v-23.9h23.9M520.7,55.2h-27.3v27.3l27.3-27.3h0Z"/>
                  <path class="st3" d="M519.7,57.6v23.9h-23.9l23.9-23.9M520.7,55.2l-27.3,27.3h27.3v-27.3h0Z"/>
                </g>
              </g>
              <path class="st3" d="M574.4,56.2v25.3h-25.3v-25.3h25.3M575.4,55.2h-27.3v27.3h27.3v-27.3h0Z"/>
            </g>
          </g>
          <path class="st3" d="M574.4,84.9v23.9h-23.9l23.9-23.9M575.4,82.5l-27.3,27.3h27.3v-27.3h0Z"/>
          <path class="st3" d="M573,83.5l-23.9,23.9v-23.9h23.9M575.4,82.5h-27.3v27.3l27.3-27.3h0Z"/>
          <g>
            <g>
              <path class="st3" d="M547.8,83.5v23.9l-23.9-23.9h23.9M548.8,82.5h-27.3l27.3,27.3v-27.3h0Z"/>
              <path class="st3" d="M522.4,84.9l23.9,23.9h-23.9v-23.9M521.4,82.5v27.3h27.3l-27.3-27.3h0Z"/>
            </g>
            <g>
              <g>
                <g>
                  <line class="st1" x1="29.3" y1="82.5" x2="29.3" y2="109.9"/>
                  <path class="st1" d="M29.3,82.5"/>
                </g>
                <g>
                  <g>
                    <path class="st3" d="M57.6,84.9l23.9,23.9h-23.9v-23.9M56.6,82.5v27.3h27.3l-27.3-27.3h0Z"/>
                    <path class="st3" d="M83,83.5v23.9l-23.9-23.9h23.9M84,82.5h-27.3l27.3,27.3v-27.3h0Z"/>
                  </g>
                  <g>
                    <path class="st3" d="M54.2,83.5l-23.9,23.9v-23.9h23.9M56.6,82.5h-27.3v27.3l27.3-27.3h0Z"/>
                    <path class="st3" d="M55.6,84.9v23.9h-23.9l23.9-23.9M56.6,82.5l-27.3,27.3h27.3v-27.3h0Z"/>
                  </g>
                </g>
                <path class="st3" d="M110.3,83.5v25.3h-25.3v-25.3h25.3M111.3,82.5h-27.3v27.3h27.3v-27.3h0Z"/>
              </g>
              <g>
                <g>
                  <g>
                    <path class="st3" d="M137.6,83.5v23.9l-23.9-23.9h23.9M138.6,82.5h-27.3l27.3,27.3v-27.3h0Z"/>
                    <path class="st3" d="M112.3,84.9l23.9,23.9h-23.9v-23.9M111.3,82.5v27.3h27.3l-27.3-27.3h0Z"/>
                  </g>
                  <g>
                    <path class="st3" d="M165,84.9v23.9h-23.9l23.9-23.9M166,82.5l-27.3,27.3h27.3v-27.3h0Z"/>
                    <path class="st3" d="M163.6,83.5l-23.9,23.9v-23.9h23.9M166,82.5h-27.3v27.3l27.3-27.3h0Z"/>
                  </g>
                </g>
                <g>
                  <g>
                    <path class="st3" d="M194.3,84.9l23.9,23.9h-23.9v-23.9M193.3,82.5v27.3h27.3l-27.3-27.3h0Z"/>
                    <path class="st3" d="M219.7,83.5v23.9l-23.9-23.9h23.9M220.7,82.5h-27.3l27.3,27.3v-27.3h0Z"/>
                  </g>
                  <g>
                    <path class="st3" d="M190.9,83.5l-23.9,23.9v-23.9h23.9M193.3,82.5h-27.3v27.3l27.3-27.3h0Z"/>
                    <path class="st3" d="M192.3,84.9v23.9h-23.9l23.9-23.9M193.3,82.5l-27.3,27.3h27.3v-27.3h0Z"/>
                  </g>
                </g>
                <path class="st3" d="M247,83.5v25.3h-25.3v-25.3h25.3M248,82.5h-27.3v27.3h27.3v-27.3h0Z"/>
              </g>
            </g>
            <g>
              <g>
                <g>
                  <g>
                    <path class="st3" d="M274.4,83.5v23.9l-23.9-23.9h23.9M275.4,82.5h-27.3l27.3,27.3v-27.3h0Z"/>
                    <path class="st3" d="M249,84.9l23.9,23.9h-23.9v-23.9M248,82.5v27.3h27.3l-27.3-27.3h0Z"/>
                  </g>
                  <g>
                    <path class="st3" d="M301.7,84.9v23.9h-23.9l23.9-23.9M302.7,82.5l-27.3,27.3h27.3v-27.3h0Z"/>
                    <path class="st3" d="M300.3,83.5l-23.9,23.9v-23.9h23.9M302.7,82.5h-27.3v27.3l27.3-27.3h0Z"/>
                  </g>
                </g>
                <g>
                  <g>
                    <path class="st3" d="M331,84.9l23.9,23.9h-23.9v-23.9M330,82.5v27.3h27.3l-27.3-27.3h0Z"/>
                    <path class="st3" d="M356.4,83.5v23.9l-23.9-23.9h23.9M357.4,82.5h-27.3l27.3,27.3v-27.3h0Z"/>
                  </g>
                  <g>
                    <path class="st3" d="M327.6,83.5l-23.9,23.9v-23.9h23.9M330,82.5h-27.3v27.3l27.3-27.3h0Z"/>
                    <path class="st3" d="M329,84.9v23.9h-23.9l23.9-23.9M330,82.5l-27.3,27.3h27.3v-27.3h0Z"/>
                  </g>
                </g>
                <path class="st3" d="M383.7,83.5v25.3h-25.3v-25.3h25.3M384.7,82.5h-27.3v27.3h27.3v-27.3h0Z"/>
              </g>
              <g>
                <g>
                  <g>
                    <path class="st3" d="M411.1,83.5v23.9l-23.9-23.9h23.9M412.1,82.5h-27.3l27.3,27.3v-27.3h0Z"/>
                    <path class="st3" d="M385.7,84.9l23.9,23.9h-23.9v-23.9M384.7,82.5v27.3h27.3l-27.3-27.3h0Z"/>
                  </g>
                  <g>
                    <path class="st3" d="M438.4,84.9v23.9h-23.9l23.9-23.9M439.4,82.5l-27.3,27.3h27.3v-27.3h0Z"/>
                    <path class="st3" d="M437,83.5l-23.9,23.9v-23.9h23.9M439.4,82.5h-27.3v27.3l27.3-27.3h0Z"/>
                  </g>
                </g>
                <g>
                  <g>
                    <path class="st3" d="M467.7,84.9l23.9,23.9h-23.9v-23.9M466.7,82.5v27.3h27.3l-27.3-27.3h0Z"/>
                    <path class="st3" d="M493.1,83.5v23.9l-23.9-23.9h23.9M494.1,82.5h-27.3l27.3,27.3v-27.3h0Z"/>
                  </g>
                  <g>
                    <path class="st3" d="M464.3,83.5l-23.9,23.9v-23.9h23.9M466.7,82.5h-27.3v27.3l27.3-27.3h0Z"/>
                    <path class="st3" d="M465.7,84.9v23.9h-23.9l23.9-23.9M466.7,82.5l-27.3,27.3h27.3v-27.3h0Z"/>
                  </g>
                </g>
                <path class="st3" d="M520.4,83.5v25.3h-25.3v-25.3h25.3M521.4,82.5h-27.3v27.3h27.3v-27.3h0Z"/>
              </g>
            </g>
          </g>
        </g>
      </g>
      <g>
        <g>
          <path class="st3" d="M54.9,139.6v23.9h-23.9l23.9-23.9M55.9,137.2l-27.3,27.3h27.3v-27.3h0Z"/>
          <path class="st3" d="M53.4,138.2l-23.9,23.9v-23.9h23.9M55.9,137.2h-27.3v27.3l27.3-27.3h0Z"/>
          <path class="st3" d="M54.9,110.9v25.3h-25.3v-25.3h25.3M55.9,109.9h-27.3v27.3h27.3v-27.3h0Z"/>
          <path class="st3" d="M2.2,112.3l23.9,23.9H2.2v-23.9M1.2,109.9v27.3h27.3L1.2,109.9h0Z"/>
          <path class="st3" d="M27.5,110.9v23.9L3.6,110.9h23.9M28.5,109.9H1.2l27.3,27.3v-27.3h0Z"/>
          <path class="st3" d="M27.5,138.2v23.9l-23.9-23.9h23.9M28.5,137.2H1.2l27.3,27.3v-27.3h0Z"/>
          <path class="st3" d="M2.2,139.6l23.9,23.9H2.2v-23.9M1.2,137.2v27.3h27.3L1.2,137.2h0Z"/>
        </g>
        <g>
          <path class="st3" d="M82.2,110.9v23.9l-23.9-23.9h23.9M83.2,109.9h-27.3l27.3,27.3v-27.3h0Z"/>
          <path class="st3" d="M56.9,112.3l23.9,23.9h-23.9v-23.9M55.9,109.9v27.3h27.3l-27.3-27.3h0Z"/>
          <path class="st3" d="M109.5,112.3v23.9h-23.9l23.9-23.9M110.5,109.9l-27.3,27.3h27.3v-27.3h0Z"/>
          <path class="st3" d="M108.1,110.9l-23.9,23.9v-23.9h23.9M110.5,109.9h-27.3v27.3l27.3-27.3h0Z"/>
          <path class="st3" d="M138.9,112.3l23.9,23.9h-23.9v-23.9M137.9,109.9v27.3h27.3l-27.3-27.3h0Z"/>
          <path class="st3" d="M164.2,110.9v23.9l-23.9-23.9h23.9M165.2,109.9h-27.3l27.3,27.3v-27.3h0Z"/>
          <path class="st3" d="M135.5,110.9l-23.9,23.9v-23.9h23.9M137.9,109.9h-27.3v27.3l27.3-27.3h0Z"/>
          <path class="st3" d="M136.9,112.3v23.9h-23.9l23.9-23.9M137.9,109.9l-27.3,27.3h27.3v-27.3h0Z"/>
          <path class="st3" d="M191.6,110.9v25.3h-25.3v-25.3h25.3M192.6,109.9h-27.3v27.3h27.3v-27.3h0Z"/>
          <path class="st3" d="M218.9,110.9v23.9l-23.9-23.9h23.9M219.9,109.9h-27.3l27.3,27.3v-27.3h0Z"/>
          <path class="st3" d="M193.6,112.3l23.9,23.9h-23.9v-23.9M192.6,109.9v27.3h27.3l-27.3-27.3h0Z"/>
          <path class="st3" d="M246.3,112.3v23.9h-23.9l23.9-23.9M247.3,109.9l-27.3,27.3h27.3v-27.3h0Z"/>
          <path class="st3" d="M244.8,110.9l-23.9,23.9v-23.9h23.9M247.3,109.9h-27.3v27.3l27.3-27.3h0Z"/>
          <path class="st3" d="M275.6,112.3l23.9,23.9h-23.9v-23.9M274.6,109.9v27.3h27.3l-27.3-27.3h0Z"/>
          <path class="st3" d="M300.9,110.9v23.9l-23.9-23.9h23.9M301.9,109.9h-27.3l27.3,27.3v-27.3h0Z"/>
          <path class="st3" d="M272.2,110.9l-23.9,23.9v-23.9h23.9M274.6,109.9h-27.3v27.3l27.3-27.3h0Z"/>
          <path class="st3" d="M273.6,112.3v23.9h-23.9l23.9-23.9M274.6,109.9l-27.3,27.3h27.3v-27.3h0Z"/>
          <path class="st3" d="M328.3,110.9v25.3h-25.3v-25.3h25.3M329.3,109.9h-27.3v27.3h27.3v-27.3h0Z"/>
          <path class="st3" d="M355.6,110.9v23.9l-23.9-23.9h23.9M356.6,109.9h-27.3l27.3,27.3v-27.3h0Z"/>
          <path class="st3" d="M330.3,112.3l23.9,23.9h-23.9v-23.9M329.3,109.9v27.3h27.3l-27.3-27.3h0Z"/>
          <path class="st3" d="M383,112.3v23.9h-23.9l23.9-23.9M384,109.9l-27.3,27.3h27.3v-27.3h0Z"/>
          <path class="st3" d="M381.5,110.9l-23.9,23.9v-23.9h23.9M384,109.9h-27.3v27.3l27.3-27.3h0Z"/>
          <path class="st3" d="M412.3,112.3l23.9,23.9h-23.9v-23.9M411.3,109.9v27.3h27.3l-27.3-27.3h0Z"/>
          <path class="st3" d="M437.6,110.9v23.9l-23.9-23.9h23.9M438.6,109.9h-27.3l27.3,27.3v-27.3h0Z"/>
          <path class="st3" d="M408.9,110.9l-23.9,23.9v-23.9h23.9M411.3,109.9h-27.3v27.3l27.3-27.3h0Z"/>
          <path class="st3" d="M410.3,112.3v23.9h-23.9l23.9-23.9M411.3,109.9l-27.3,27.3h27.3v-27.3h0Z"/>
          <path class="st3" d="M465,110.9v25.3h-25.3v-25.3h25.3M466,109.9h-27.3v27.3h27.3v-27.3h0Z"/>
          <path class="st3" d="M492.3,110.9v23.9l-23.9-23.9h23.9M493.3,109.9h-27.3l27.3,27.3v-27.3h0Z"/>
          <path class="st3" d="M467,112.3l23.9,23.9h-23.9v-23.9M466,109.9v27.3h27.3l-27.3-27.3h0Z"/>
          <path class="st3" d="M519.7,112.3v23.9h-23.9l23.9-23.9M520.7,109.9l-27.3,27.3h27.3v-27.3h0Z"/>
          <path class="st3" d="M518.3,110.9l-23.9,23.9v-23.9h23.9M520.7,109.9h-27.3v27.3l27.3-27.3h0Z"/>
          <path class="st3" d="M549,112.3l23.9,23.9h-23.9v-23.9M548,109.9v27.3h27.3l-27.3-27.3h0Z"/>
          <path class="st3" d="M574.4,110.9v23.9l-23.9-23.9h23.9M575.4,109.9h-27.3l27.3,27.3v-27.3h0Z"/>
          <path class="st3" d="M545.6,110.9l-23.9,23.9v-23.9h23.9M548,109.9h-27.3v27.3l27.3-27.3h0Z"/>
          <path class="st3" d="M547,112.3v23.9h-23.9l23.9-23.9M548,109.9l-27.3,27.3h27.3v-27.3h0Z"/>
          <path class="st3" d="M575,138.2v23.9l-23.9-23.9h23.9M576,137.2h-27.3l27.3,27.3v-27.3h0Z"/>
          <path class="st3" d="M549.7,139.6l23.9,23.9h-23.9v-23.9M548.7,137.2v27.3h27.3l-27.3-27.3h0Z"/>
          <line class="st1" x1="56.5" y1="137.2" x2="56.5" y2="164.6"/>
          <path class="st1" d="M56.5,137.2"/>
          <path class="st3" d="M84.9,139.6l23.9,23.9h-23.9v-23.9M83.9,137.2v27.3h27.3l-27.3-27.3h0Z"/>
          <path class="st3" d="M110.2,138.2v23.9l-23.9-23.9h23.9M111.2,137.2h-27.3l27.3,27.3v-27.3h0Z"/>
          <path class="st3" d="M81.5,138.2l-23.9,23.9v-23.9h23.9M83.9,137.2h-27.3v27.3l27.3-27.3h0Z"/>
          <path class="st3" d="M82.9,139.6v23.9h-23.9l23.9-23.9M83.9,137.2l-27.3,27.3h27.3v-27.3h0Z"/>
          <path class="st3" d="M137.6,138.2v25.3h-25.3v-25.3h25.3M138.6,137.2h-27.3v27.3h27.3v-27.3h0Z"/>
          <path class="st3" d="M164.9,138.2v23.9l-23.9-23.9h23.9M165.9,137.2h-27.3l27.3,27.3v-27.3h0Z"/>
          <path class="st3" d="M139.6,139.6l23.9,23.9h-23.9v-23.9M138.6,137.2v27.3h27.3l-27.3-27.3h0Z"/>
          <path class="st3" d="M192.3,139.6v23.9h-23.9l23.9-23.9M193.3,137.2l-27.3,27.3h27.3v-27.3h0Z"/>
          <path class="st3" d="M190.8,138.2l-23.9,23.9v-23.9h23.9M193.3,137.2h-27.3v27.3l27.3-27.3h0Z"/>
          <path class="st3" d="M221.6,139.6l23.9,23.9h-23.9v-23.9M220.6,137.2v27.3h27.3l-27.3-27.3h0Z"/>
          <path class="st3" d="M246.9,138.2v23.9l-23.9-23.9h23.9M247.9,137.2h-27.3l27.3,27.3v-27.3h0Z"/>
          <path class="st3" d="M218.2,138.2l-23.9,23.9v-23.9h23.9M220.6,137.2h-27.3v27.3l27.3-27.3h0Z"/>
          <path class="st3" d="M219.6,139.6v23.9h-23.9l23.9-23.9M220.6,137.2l-27.3,27.3h27.3v-27.3h0Z"/>
          <path class="st3" d="M274.3,138.2v25.3h-25.3v-25.3h25.3M275.3,137.2h-27.3v27.3h27.3v-27.3h0Z"/>
          <path class="st3" d="M301.6,138.2v23.9l-23.9-23.9h23.9M302.6,137.2h-27.3l27.3,27.3v-27.3h0Z"/>
          <path class="st3" d="M276.3,139.6l23.9,23.9h-23.9v-23.9M275.3,137.2v27.3h27.3l-27.3-27.3h0Z"/>
          <path class="st3" d="M329,139.6v23.9h-23.9l23.9-23.9M330,137.2l-27.3,27.3h27.3v-27.3h0Z"/>
          <path class="st3" d="M327.5,138.2l-23.9,23.9v-23.9h23.9M330,137.2h-27.3v27.3l27.3-27.3h0Z"/>
          <path class="st3" d="M358.3,139.6l23.9,23.9h-23.9v-23.9M357.3,137.2v27.3h27.3l-27.3-27.3h0Z"/>
          <path class="st3" d="M383.6,138.2v23.9l-23.9-23.9h23.9M384.6,137.2h-27.3l27.3,27.3v-27.3h0Z"/>
          <path class="st3" d="M354.9,138.2l-23.9,23.9v-23.9h23.9M357.3,137.2h-27.3v27.3l27.3-27.3h0Z"/>
          <path class="st3" d="M356.3,139.6v23.9h-23.9l23.9-23.9M357.3,137.2l-27.3,27.3h27.3v-27.3h0Z"/>
          <path class="st3" d="M411,138.2v25.3h-25.3v-25.3h25.3M412,137.2h-27.3v27.3h27.3v-27.3h0Z"/>
          <path class="st3" d="M438.3,138.2v23.9l-23.9-23.9h23.9M439.3,137.2h-27.3l27.3,27.3v-27.3h0Z"/>
          <path class="st3" d="M413,139.6l23.9,23.9h-23.9v-23.9M412,137.2v27.3h27.3l-27.3-27.3h0Z"/>
          <path class="st3" d="M465.7,139.6v23.9h-23.9l23.9-23.9M466.7,137.2l-27.3,27.3h27.3v-27.3h0Z"/>
          <path class="st3" d="M464.3,138.2l-23.9,23.9v-23.9h23.9M466.7,137.2h-27.3v27.3l27.3-27.3h0Z"/>
          <path class="st3" d="M495,139.6l23.9,23.9h-23.9v-23.9M494,137.2v27.3h27.3l-27.3-27.3h0Z"/>
          <path class="st3" d="M520.4,138.2v23.9l-23.9-23.9h23.9M521.4,137.2h-27.3l27.3,27.3v-27.3h0Z"/>
          <path class="st3" d="M491.6,138.2l-23.9,23.9v-23.9h23.9M494,137.2h-27.3v27.3l27.3-27.3h0Z"/>
          <path class="st3" d="M493,139.6v23.9h-23.9l23.9-23.9M494,137.2l-27.3,27.3h27.3v-27.3h0Z"/>
          <path class="st3" d="M547.7,138.2v25.3h-25.3v-25.3h25.3M548.7,137.2h-27.3v27.3h27.3v-27.3h0Z"/>
        </g>
      </g>
      <g>
        <g>
          <path class="st3" d="M55.2,329.6v23.9l-23.9-23.9h23.9M56.2,328.6h-27.3l27.3,27.3v-27.3h0Z"/>
          <path class="st3" d="M29.9,331l23.9,23.9h-23.9v-23.9M28.9,328.6v27.3h27.3l-27.3-27.3h0Z"/>
          <path class="st3" d="M82.5,331v23.9h-23.9l23.9-23.9M83.5,328.6l-27.3,27.3h27.3v-27.3h0Z"/>
          <path class="st3" d="M81.1,329.6l-23.9,23.9v-23.9h23.9M83.5,328.6h-27.3v27.3l27.3-27.3h0Z"/>
          <path class="st3" d="M111.9,331l23.9,23.9h-23.9v-23.9M110.9,328.6v27.3h27.3l-27.3-27.3h0Z"/>
          <path class="st3" d="M137.2,329.6v23.9l-23.9-23.9h23.9M138.2,328.6h-27.3l27.3,27.3v-27.3h0Z"/>
          <path class="st3" d="M108.5,329.6l-23.9,23.9v-23.9h23.9M110.9,328.6h-27.3v27.3l27.3-27.3h0Z"/>
          <path class="st3" d="M109.9,331v23.9h-23.9l23.9-23.9M110.9,328.6l-27.3,27.3h27.3v-27.3h0Z"/>
          <path class="st3" d="M164.6,329.6v25.3h-25.3v-25.3h25.3M165.6,328.6h-27.3v27.3h27.3v-27.3h0Z"/>
          <path class="st3" d="M191.9,329.6v23.9l-23.9-23.9h23.9M192.9,328.6h-27.3l27.3,27.3v-27.3h0Z"/>
          <path class="st3" d="M166.6,331l23.9,23.9h-23.9v-23.9M165.6,328.6v27.3h27.3l-27.3-27.3h0Z"/>
          <path class="st3" d="M219.3,331v23.9h-23.9l23.9-23.9M220.3,328.6l-27.3,27.3h27.3v-27.3h0Z"/>
          <path class="st3" d="M217.8,329.6l-23.9,23.9v-23.9h23.9M220.3,328.6h-27.3v27.3l27.3-27.3h0Z"/>
          <path class="st3" d="M248.6,331l23.9,23.9h-23.9v-23.9M247.6,328.6v27.3h27.3l-27.3-27.3h0Z"/>
          <path class="st3" d="M273.9,329.6v23.9l-23.9-23.9h23.9M274.9,328.6h-27.3l27.3,27.3v-27.3h0Z"/>
          <path class="st3" d="M245.2,329.6l-23.9,23.9v-23.9h23.9M247.6,328.6h-27.3v27.3l27.3-27.3h0Z"/>
          <path class="st3" d="M246.6,331v23.9h-23.9l23.9-23.9M247.6,328.6l-27.3,27.3h27.3v-27.3h0Z"/>
          <path class="st3" d="M301.3,329.6v25.3h-25.3v-25.3h25.3M302.3,328.6h-27.3v27.3h27.3v-27.3h0Z"/>
          <path class="st3" d="M328.6,329.6v23.9l-23.9-23.9h23.9M329.6,328.6h-27.3l27.3,27.3v-27.3h0Z"/>
          <path class="st3" d="M303.3,331l23.9,23.9h-23.9v-23.9M302.3,328.6v27.3h27.3l-27.3-27.3h0Z"/>
          <path class="st3" d="M356,331v23.9h-23.9l23.9-23.9M357,328.6l-27.3,27.3h27.3v-27.3h0Z"/>
          <path class="st3" d="M354.5,329.6l-23.9,23.9v-23.9h23.9M357,328.6h-27.3v27.3l27.3-27.3h0Z"/>
          <path class="st3" d="M385.3,331l23.9,23.9h-23.9v-23.9M384.3,328.6v27.3h27.3l-27.3-27.3h0Z"/>
          <path class="st3" d="M410.6,329.6v23.9l-23.9-23.9h23.9M411.6,328.6h-27.3l27.3,27.3v-27.3h0Z"/>
          <path class="st3" d="M381.9,329.6l-23.9,23.9v-23.9h23.9M384.3,328.6h-27.3v27.3l27.3-27.3h0Z"/>
          <path class="st3" d="M383.3,331v23.9h-23.9l23.9-23.9M384.3,328.6l-27.3,27.3h27.3v-27.3h0Z"/>
          <path class="st3" d="M438,329.6v25.3h-25.3v-25.3h25.3M439,328.6h-27.3v27.3h27.3v-27.3h0Z"/>
          <path class="st3" d="M465.3,329.6v23.9l-23.9-23.9h23.9M466.3,328.6h-27.3l27.3,27.3v-27.3h0Z"/>
          <path class="st3" d="M440,331l23.9,23.9h-23.9v-23.9M439,328.6v27.3h27.3l-27.3-27.3h0Z"/>
          <path class="st3" d="M492.7,331v23.9h-23.9l23.9-23.9M493.7,328.6l-27.3,27.3h27.3v-27.3h0Z"/>
          <path class="st3" d="M491.3,329.6l-23.9,23.9v-23.9h23.9M493.7,328.6h-27.3v27.3l27.3-27.3h0Z"/>
          <path class="st3" d="M522,331l23.9,23.9h-23.9v-23.9M521,328.6v27.3h27.3l-27.3-27.3h0Z"/>
          <path class="st3" d="M547.4,329.6v23.9l-23.9-23.9h23.9M548.4,328.6h-27.3l27.3,27.3v-27.3h0Z"/>
          <path class="st3" d="M518.6,329.6l-23.9,23.9v-23.9h23.9M521,328.6h-27.3v27.3l27.3-27.3h0Z"/>
          <path class="st3" d="M520,331v23.9h-23.9l23.9-23.9M521,328.6l-27.3,27.3h27.3v-27.3h0Z"/>
          <g>
            <path class="st3" d="M574.7,329.6v25.3h-25.3v-25.3h25.3M575.7,328.6h-27.3v27.3h27.3v-27.3h0Z"/>
            <path class="st3" d="M574.7,358.4v23.9h-23.9l23.9-23.9M575.7,355.9l-27.3,27.3h27.3v-27.3h0Z"/>
            <path class="st3" d="M573.3,356.9l-23.9,23.9v-23.9h23.9M575.7,355.9h-27.3v27.3l27.3-27.3h0Z"/>
          </g>
          <path class="st3" d="M548,356.9v23.9l-23.9-23.9h23.9M549,355.9h-27.3l27.3,27.3v-27.3h0Z"/>
          <path class="st3" d="M522.7,358.4l23.9,23.9h-23.9v-23.9M521.7,355.9v27.3h27.3l-27.3-27.3h0Z"/>
          <line class="st1" x1="29.5" y1="355.9" x2="29.5" y2="383.3"/>
          <path class="st1" d="M29.5,355.9"/>
          <path class="st3" d="M57.9,358.4l23.9,23.9h-23.9v-23.9M56.9,355.9v27.3h27.3l-27.3-27.3h0Z"/>
          <path class="st3" d="M83.2,356.9v23.9l-23.9-23.9h23.9M84.2,355.9h-27.3l27.3,27.3v-27.3h0Z"/>
          <path class="st3" d="M54.5,356.9l-23.9,23.9v-23.9h23.9M56.9,355.9h-27.3v27.3l27.3-27.3h0Z"/>
          <path class="st3" d="M55.9,358.4v23.9h-23.9l23.9-23.9M56.9,355.9l-27.3,27.3h27.3v-27.3h0Z"/>
          <path class="st3" d="M110.6,356.9v25.3h-25.3v-25.3h25.3M111.6,355.9h-27.3v27.3h27.3v-27.3h0Z"/>
          <path class="st3" d="M137.9,356.9v23.9l-23.9-23.9h23.9M138.9,355.9h-27.3l27.3,27.3v-27.3h0Z"/>
          <path class="st3" d="M112.6,358.4l23.9,23.9h-23.9v-23.9M111.6,355.9v27.3h27.3l-27.3-27.3h0Z"/>
          <path class="st3" d="M165.3,358.4v23.9h-23.9l23.9-23.9M166.3,355.9l-27.3,27.3h27.3v-27.3h0Z"/>
          <path class="st3" d="M163.8,356.9l-23.9,23.9v-23.9h23.9M166.3,355.9h-27.3v27.3l27.3-27.3h0Z"/>
          <path class="st3" d="M194.6,358.4l23.9,23.9h-23.9v-23.9M193.6,355.9v27.3h27.3l-27.3-27.3h0Z"/>
          <path class="st3" d="M219.9,356.9v23.9l-23.9-23.9h23.9M220.9,355.9h-27.3l27.3,27.3v-27.3h0Z"/>
          <path class="st3" d="M191.2,356.9l-23.9,23.9v-23.9h23.9M193.6,355.9h-27.3v27.3l27.3-27.3h0Z"/>
          <path class="st3" d="M192.6,358.4v23.9h-23.9l23.9-23.9M193.6,355.9l-27.3,27.3h27.3v-27.3h0Z"/>
          <path class="st3" d="M247.3,356.9v25.3h-25.3v-25.3h25.3M248.3,355.9h-27.3v27.3h27.3v-27.3h0Z"/>
          <path class="st3" d="M274.6,356.9v23.9l-23.9-23.9h23.9M275.6,355.9h-27.3l27.3,27.3v-27.3h0Z"/>
          <path class="st3" d="M249.3,358.4l23.9,23.9h-23.9v-23.9M248.3,355.9v27.3h27.3l-27.3-27.3h0Z"/>
          <path class="st3" d="M302,358.4v23.9h-23.9l23.9-23.9M303,355.9l-27.3,27.3h27.3v-27.3h0Z"/>
          <path class="st3" d="M300.5,356.9l-23.9,23.9v-23.9h23.9M303,355.9h-27.3v27.3l27.3-27.3h0Z"/>
          <path class="st3" d="M331.3,358.4l23.9,23.9h-23.9v-23.9M330.3,355.9v27.3h27.3l-27.3-27.3h0Z"/>
          <path class="st3" d="M356.6,356.9v23.9l-23.9-23.9h23.9M357.6,355.9h-27.3l27.3,27.3v-27.3h0Z"/>
          <path class="st3" d="M327.9,356.9l-23.9,23.9v-23.9h23.9M330.3,355.9h-27.3v27.3l27.3-27.3h0Z"/>
          <path class="st3" d="M329.3,358.4v23.9h-23.9l23.9-23.9M330.3,355.9l-27.3,27.3h27.3v-27.3h0Z"/>
          <path class="st3" d="M384,356.9v25.3h-25.3v-25.3h25.3M385,355.9h-27.3v27.3h27.3v-27.3h0Z"/>
          <path class="st3" d="M411.3,356.9v23.9l-23.9-23.9h23.9M412.3,355.9h-27.3l27.3,27.3v-27.3h0Z"/>
          <path class="st3" d="M386,358.4l23.9,23.9h-23.9v-23.9M385,355.9v27.3h27.3l-27.3-27.3h0Z"/>
          <path class="st3" d="M438.7,358.4v23.9h-23.9l23.9-23.9M439.7,355.9l-27.3,27.3h27.3v-27.3h0Z"/>
          <path class="st3" d="M437.3,356.9l-23.9,23.9v-23.9h23.9M439.7,355.9h-27.3v27.3l27.3-27.3h0Z"/>
          <path class="st3" d="M468,358.4l23.9,23.9h-23.9v-23.9M467,355.9v27.3h27.3l-27.3-27.3h0Z"/>
          <path class="st3" d="M493.4,356.9v23.9l-23.9-23.9h23.9M494.4,355.9h-27.3l27.3,27.3v-27.3h0Z"/>
          <path class="st3" d="M464.6,356.9l-23.9,23.9v-23.9h23.9M467,355.9h-27.3v27.3l27.3-27.3h0Z"/>
          <path class="st3" d="M466,358.4v23.9h-23.9l23.9-23.9M467,355.9l-27.3,27.3h27.3v-27.3h0Z"/>
          <path class="st3" d="M520.7,356.9v25.3h-25.3v-25.3h25.3M521.7,355.9h-27.3v27.3h27.3v-27.3h0Z"/>
        </g>
        <g>
          <path class="st3" d="M27.9,329.6v25.3H2.5v-25.3h25.3M28.9,328.6H1.5v27.3h27.3v-27.3h0Z"/>
          <path class="st3" d="M27.9,358.4v23.9H3.9l23.9-23.9M28.9,355.9l-27.3,27.3h27.3v-27.3h0Z"/>
          <path class="st3" d="M26.4,356.9l-23.9,23.9v-23.9h23.9M28.9,355.9H1.5v27.3l27.3-27.3h0Z"/>
        </g>
      </g>
      <path class="st1" d="M288.6,447.6"/>
      <g>
        <g>
          <path class="st3" d="M81.7,384.3v23.9l-23.9-23.9h23.9M82.7,383.3h-27.3l27.3,27.3v-27.3h0Z"/>
          <path class="st3" d="M56.4,385.7l23.9,23.9h-23.9v-23.9M55.4,383.3v27.3h27.3l-27.3-27.3h0Z"/>
          <path class="st3" d="M109,385.7v23.9h-23.9l23.9-23.9M110,383.3l-27.3,27.3h27.3v-27.3h0Z"/>
          <path class="st3" d="M107.6,384.3l-23.9,23.9v-23.9h23.9M110,383.3h-27.3v27.3l27.3-27.3h0Z"/>
          <path class="st3" d="M138.4,385.7l23.9,23.9h-23.9v-23.9M137.4,383.3v27.3h27.3l-27.3-27.3h0Z"/>
          <path class="st3" d="M163.7,384.3v23.9l-23.9-23.9h23.9M164.7,383.3h-27.3l27.3,27.3v-27.3h0Z"/>
          <path class="st3" d="M135,384.3l-23.9,23.9v-23.9h23.9M137.4,383.3h-27.3v27.3l27.3-27.3h0Z"/>
          <path class="st3" d="M136.4,385.7v23.9h-23.9l23.9-23.9M137.4,383.3l-27.3,27.3h27.3v-27.3h0Z"/>
          <path class="st3" d="M191.1,384.3v25.3h-25.3v-25.3h25.3M192.1,383.3h-27.3v27.3h27.3v-27.3h0Z"/>
          <path class="st3" d="M218.4,384.3v23.9l-23.9-23.9h23.9M219.4,383.3h-27.3l27.3,27.3v-27.3h0Z"/>
          <path class="st3" d="M193.1,385.7l23.9,23.9h-23.9v-23.9M192.1,383.3v27.3h27.3l-27.3-27.3h0Z"/>
          <path class="st3" d="M245.8,385.7v23.9h-23.9l23.9-23.9M246.8,383.3l-27.3,27.3h27.3v-27.3h0Z"/>
          <path class="st3" d="M244.3,384.3l-23.9,23.9v-23.9h23.9M246.8,383.3h-27.3v27.3l27.3-27.3h0Z"/>
          <path class="st3" d="M275.1,385.7l23.9,23.9h-23.9v-23.9M274.1,383.3v27.3h27.3l-27.3-27.3h0Z"/>
          <path class="st3" d="M300.4,384.3v23.9l-23.9-23.9h23.9M301.4,383.3h-27.3l27.3,27.3v-27.3h0Z"/>
          <path class="st3" d="M271.7,384.3l-23.9,23.9v-23.9h23.9M274.1,383.3h-27.3v27.3l27.3-27.3h0Z"/>
          <path class="st3" d="M273.1,385.7v23.9h-23.9l23.9-23.9M274.1,383.3l-27.3,27.3h27.3v-27.3h0Z"/>
          <path class="st3" d="M327.8,384.3v25.3h-25.3v-25.3h25.3M328.8,383.3h-27.3v27.3h27.3v-27.3h0Z"/>
          <path class="st3" d="M355.1,384.3v23.9l-23.9-23.9h23.9M356.1,383.3h-27.3l27.3,27.3v-27.3h0Z"/>
          <path class="st3" d="M329.8,385.7l23.9,23.9h-23.9v-23.9M328.8,383.3v27.3h27.3l-27.3-27.3h0Z"/>
          <path class="st3" d="M382.5,385.7v23.9h-23.9l23.9-23.9M383.5,383.3l-27.3,27.3h27.3v-27.3h0Z"/>
          <path class="st3" d="M381,384.3l-23.9,23.9v-23.9h23.9M383.5,383.3h-27.3v27.3l27.3-27.3h0Z"/>
          <path class="st3" d="M411.8,385.7l23.9,23.9h-23.9v-23.9M410.8,383.3v27.3h27.3l-27.3-27.3h0Z"/>
          <path class="st3" d="M437.1,384.3v23.9l-23.9-23.9h23.9M438.1,383.3h-27.3l27.3,27.3v-27.3h0Z"/>
          <path class="st3" d="M408.4,384.3l-23.9,23.9v-23.9h23.9M410.8,383.3h-27.3v27.3l27.3-27.3h0Z"/>
          <path class="st3" d="M409.8,385.7v23.9h-23.9l23.9-23.9M410.8,383.3l-27.3,27.3h27.3v-27.3h0Z"/>
          <path class="st3" d="M464.5,384.3v25.3h-25.3v-25.3h25.3M465.5,383.3h-27.3v27.3h27.3v-27.3h0Z"/>
          <path class="st3" d="M491.8,384.3v23.9l-23.9-23.9h23.9M492.8,383.3h-27.3l27.3,27.3v-27.3h0Z"/>
          <path class="st3" d="M466.5,385.7l23.9,23.9h-23.9v-23.9M465.5,383.3v27.3h27.3l-27.3-27.3h0Z"/>
          <path class="st3" d="M519.2,385.7v23.9h-23.9l23.9-23.9M520.2,383.3l-27.3,27.3h27.3v-27.3h0Z"/>
          <path class="st3" d="M517.8,384.3l-23.9,23.9v-23.9h23.9M520.2,383.3h-27.3v27.3l27.3-27.3h0Z"/>
          <path class="st3" d="M548.5,385.7l23.9,23.9h-23.9v-23.9M547.5,383.3v27.3h27.3l-27.3-27.3h0Z"/>
          <path class="st3" d="M573.9,384.3v23.9l-23.9-23.9h23.9M574.9,383.3h-27.3l27.3,27.3v-27.3h0Z"/>
          <path class="st3" d="M545.1,384.3l-23.9,23.9v-23.9h23.9M547.5,383.3h-27.3v27.3l27.3-27.3h0Z"/>
          <path class="st3" d="M546.5,385.7v23.9h-23.9l23.9-23.9M547.5,383.3l-27.3,27.3h27.3v-27.3h0Z"/>
          <path class="st3" d="M574.5,411.6v23.9l-23.9-23.9h23.9M575.5,410.6h-27.3l27.3,27.3v-27.3h0Z"/>
          <path class="st3" d="M549.2,413l23.9,23.9h-23.9v-23.9M548.2,410.6v27.3h27.3l-27.3-27.3h0Z"/>
          <path class="st3" d="M84.4,413l23.9,23.9h-23.9v-23.9M83.4,410.6v27.3h27.3l-27.3-27.3h0Z"/>
          <path class="st3" d="M109.7,411.6v23.9l-23.9-23.9h23.9M110.7,410.6h-27.3l27.3,27.3v-27.3h0Z"/>
          <path class="st3" d="M81,411.6l-23.9,23.9v-23.9h23.9M83.4,410.6h-27.3v27.3l27.3-27.3h0Z"/>
          <path class="st3" d="M82.4,413v23.9h-23.9l23.9-23.9M83.4,410.6l-27.3,27.3h27.3v-27.3h0Z"/>
          <path class="st3" d="M137.1,411.6v25.3h-25.3v-25.3h25.3M138.1,410.6h-27.3v27.3h27.3v-27.3h0Z"/>
          <path class="st3" d="M164.4,411.6v23.9l-23.9-23.9h23.9M165.4,410.6h-27.3l27.3,27.3v-27.3h0Z"/>
          <path class="st3" d="M139.1,413l23.9,23.9h-23.9v-23.9M138.1,410.6v27.3h27.3l-27.3-27.3h0Z"/>
          <path class="st3" d="M191.8,413v23.9h-23.9l23.9-23.9M192.8,410.6l-27.3,27.3h27.3v-27.3h0Z"/>
          <path class="st3" d="M190.3,411.6l-23.9,23.9v-23.9h23.9M192.8,410.6h-27.3v27.3l27.3-27.3h0Z"/>
          <path class="st3" d="M221.1,413l23.9,23.9h-23.9v-23.9M220.1,410.6v27.3h27.3l-27.3-27.3h0Z"/>
          <path class="st3" d="M246.4,411.6v23.9l-23.9-23.9h23.9M247.4,410.6h-27.3l27.3,27.3v-27.3h0Z"/>
          <path class="st3" d="M217.7,411.6l-23.9,23.9v-23.9h23.9M220.1,410.6h-27.3v27.3l27.3-27.3h0Z"/>
          <path class="st3" d="M219.1,413v23.9h-23.9l23.9-23.9M220.1,410.6l-27.3,27.3h27.3v-27.3h0Z"/>
          <path class="st3" d="M273.8,411.6v25.3h-25.3v-25.3h25.3M274.8,410.6h-27.3v27.3h27.3v-27.3h0Z"/>
          <path class="st3" d="M301.1,411.6v23.9l-23.9-23.9h23.9M302.1,410.6h-27.3l27.3,27.3v-27.3h0Z"/>
          <path class="st3" d="M275.8,413l23.9,23.9h-23.9v-23.9M274.8,410.6v27.3h27.3l-27.3-27.3h0Z"/>
          <path class="st3" d="M328.5,413v23.9h-23.9l23.9-23.9M329.5,410.6l-27.3,27.3h27.3v-27.3h0Z"/>
          <path class="st3" d="M327,411.6l-23.9,23.9v-23.9h23.9M329.5,410.6h-27.3v27.3l27.3-27.3h0Z"/>
          <path class="st3" d="M357.8,413l23.9,23.9h-23.9v-23.9M356.8,410.6v27.3h27.3l-27.3-27.3h0Z"/>
          <path class="st3" d="M383.1,411.6v23.9l-23.9-23.9h23.9M384.1,410.6h-27.3l27.3,27.3v-27.3h0Z"/>
          <path class="st3" d="M354.4,411.6l-23.9,23.9v-23.9h23.9M356.8,410.6h-27.3v27.3l27.3-27.3h0Z"/>
          <path class="st3" d="M355.8,413v23.9h-23.9l23.9-23.9M356.8,410.6l-27.3,27.3h27.3v-27.3h0Z"/>
          <path class="st3" d="M410.5,411.6v25.3h-25.3v-25.3h25.3M411.5,410.6h-27.3v27.3h27.3v-27.3h0Z"/>
          <path class="st3" d="M437.8,411.6v23.9l-23.9-23.9h23.9M438.8,410.6h-27.3l27.3,27.3v-27.3h0Z"/>
          <path class="st3" d="M412.5,413l23.9,23.9h-23.9v-23.9M411.5,410.6v27.3h27.3l-27.3-27.3h0Z"/>
          <path class="st3" d="M465.2,413v23.9h-23.9l23.9-23.9M466.2,410.6l-27.3,27.3h27.3v-27.3h0Z"/>
          <path class="st3" d="M463.8,411.6l-23.9,23.9v-23.9h23.9M466.2,410.6h-27.3v27.3l27.3-27.3h0Z"/>
          <path class="st3" d="M494.5,413l23.9,23.9h-23.9v-23.9M493.5,410.6v27.3h27.3l-27.3-27.3h0Z"/>
          <path class="st3" d="M519.9,411.6v23.9l-23.9-23.9h23.9M520.9,410.6h-27.3l27.3,27.3v-27.3h0Z"/>
          <path class="st3" d="M491.1,411.6l-23.9,23.9v-23.9h23.9M493.5,410.6h-27.3v27.3l27.3-27.3h0Z"/>
          <path class="st3" d="M492.5,413v23.9h-23.9l23.9-23.9M493.5,410.6l-27.3,27.3h27.3v-27.3h0Z"/>
          <path class="st3" d="M547.2,411.6v25.3h-25.3v-25.3h25.3M548.2,410.6h-27.3v27.3h27.3v-27.3h0Z"/>
        </g>
        <g>
          <g>
            <path class="st3" d="M55.4,384.3v25.3h-25.3v-25.3h25.3M56.4,383.3h-27.3v27.3h27.3v-27.3h0Z"/>
            <path class="st3" d="M55.4,413v23.9h-23.9l23.9-23.9M56.4,410.6l-27.3,27.3h27.3v-27.3h0Z"/>
            <path class="st3" d="M53.9,411.6l-23.9,23.9v-23.9h23.9M56.4,410.6h-27.3v27.3l27.3-27.3h0Z"/>
          </g>
          <path class="st3" d="M2.7,385.7l23.9,23.9H2.7v-23.9M1.7,383.3v27.3h27.3l-27.3-27.3h0Z"/>
          <path class="st3" d="M28,384.3v23.9l-23.9-23.9h23.9M29,383.3H1.7l27.3,27.3v-27.3h0Z"/>
          <g>
            <path class="st3" d="M28,411.6v23.9l-23.9-23.9h23.9M29,410.6H1.7l27.3,27.3v-27.3h0Z"/>
            <path class="st3" d="M2.7,413l23.9,23.9H2.7v-23.9M1.7,410.6v27.3h27.3l-27.3-27.3h0Z"/>
          </g>
        </g>
      </g>
      <g>
        <g>
          <path class="st3" d="M29.8,440.4l24,23.9h-23.9s0-23.9,0-23.9M28.8,438v27.3s27.4,0,27.4,0l-27.4-27.3h0Z"/>
          <path class="st3" d="M55.1,439v23.9s-23.9-23.9-23.9-23.9h23.9M56.1,438h-27.3s27.4,27.3,27.4,27.3v-27.3h0Z"/>
          <path class="st3" d="M26.4,439l-23.9,24v-23.9s23.9,0,23.9,0M28.8,438H1.5s0,27.4,0,27.4l27.3-27.4h0Z"/>
          <path class="st3" d="M27.8,440.5v23.9s-23.9,0-23.9,0l23.9-24M28.8,438l-27.3,27.4h27.3s0-27.4,0-27.4h0Z"/>
          <path class="st3" d="M82.5,439v25.3s-25.3,0-25.3,0v-25.3s25.3,0,25.3,0M83.5,438h-27.3s0,27.4,0,27.4h27.3s0-27.4,0-27.4h0Z"/>
          <path class="st3" d="M28.5,466.4v25.3s-25.3,0-25.3,0v-25.3s25.3,0,25.3,0M29.5,465.4H2.2s0,27.4,0,27.4h27.3s0-27.4,0-27.4h0Z"/>
          <path class="st3" d="M55.9,466.3v23.9s-23.9-23.9-23.9-23.9h23.9M56.9,465.3h-27.3s27.4,27.3,27.4,27.3v-27.3h0Z"/>
          <path class="st3" d="M30.5,467.8l24,23.9h-23.9s0-23.9,0-23.9M29.5,465.4v27.3s27.4,0,27.4,0l-27.4-27.3h0Z"/>
          <path class="st3" d="M83.2,467.7v23.9s-23.9,0-23.9,0l23.9-24M84.2,465.3l-27.3,27.4h27.3s0-27.4,0-27.4h0Z"/>
          <path class="st3" d="M81.8,466.3l-23.9,24v-23.9s23.9,0,23.9,0M84.2,465.3h-27.3s0,27.4,0,27.4l27.3-27.4h0Z"/>
        </g>
        <g>
          <path class="st3" d="M109.2,438.5v23.9s-23.9-23.9-23.9-23.9h23.9M110.2,437.5h-27.3s27.4,27.3,27.4,27.3v-27.3h0Z"/>
          <path class="st3" d="M83.8,439.9l24,23.9h-23.9s0-23.9,0-23.9M82.8,437.5v27.3s27.4,0,27.4,0l-27.4-27.3h0Z"/>
          <path class="st3" d="M136.5,439.9v23.9s-23.9,0-23.9,0l23.9-24M137.5,437.5l-27.3,27.4h27.3s0-27.4,0-27.4h0Z"/>
          <path class="st3" d="M135.1,438.5l-23.9,24v-23.9s23.9,0,23.9,0M137.5,437.5h-27.3s0,27.4,0,27.4l27.3-27.4h0Z"/>
          <path class="st3" d="M165.9,439.9l24,23.9h-23.9s0-23.9,0-23.9M164.9,437.4v27.3s27.4,0,27.4,0l-27.4-27.3h0Z"/>
          <path class="st3" d="M191.2,438.4v23.9s-23.9-23.9-23.9-23.9h23.9M192.2,437.4h-27.3s27.4,27.3,27.4,27.3v-27.3h0Z"/>
          <path class="st3" d="M162.5,438.4l-23.9,24v-23.9s23.9,0,23.9,0M164.9,437.4h-27.3s0,27.4,0,27.4l27.3-27.4h0Z"/>
          <path class="st3" d="M163.9,439.9v23.9s-23.9,0-23.9,0l23.9-24M164.9,437.4l-27.3,27.4h27.3s0-27.4,0-27.4h0Z"/>
          <path class="st3" d="M218.6,438.4v25.3s-25.3,0-25.3,0v-25.3s25.3,0,25.3,0M219.6,437.4h-27.3s0,27.4,0,27.4h27.3s0-27.4,0-27.4h0Z"/>
          <path class="st3" d="M245.9,438.3v23.9s-23.9-23.9-23.9-23.9h23.9M246.9,437.3h-27.3s27.4,27.3,27.4,27.3v-27.3h0Z"/>
          <path class="st3" d="M220.6,439.8l24,23.9h-23.9s0-23.9,0-23.9M219.6,437.4v27.3s27.4,0,27.4,0l-27.4-27.3h0Z"/>
          <path class="st3" d="M273.2,439.7v23.9s-23.9,0-23.9,0l23.9-24M274.2,437.3l-27.3,27.4h27.3s0-27.4,0-27.4h0Z"/>
          <path class="st3" d="M271.8,438.3l-23.9,24v-23.9s23.9,0,23.9,0M274.2,437.3h-27.3s0,27.4,0,27.4l27.3-27.4h0Z"/>
          <path class="st3" d="M302.6,439.7l24,23.9h-23.9s0-23.9,0-23.9M301.6,437.3v27.3s27.4,0,27.4,0l-27.4-27.3h0Z"/>
          <path class="st3" d="M327.9,438.3v23.9s-23.9-23.9-23.9-23.9h23.9M328.9,437.3h-27.3s27.4,27.3,27.4,27.3v-27.3h0Z"/>
          <path class="st3" d="M299.2,438.3l-23.9,24v-23.9s23.9,0,23.9,0M301.6,437.3h-27.3s0,27.4,0,27.4l27.3-27.4h0Z"/>
          <path class="st3" d="M300.6,439.7v23.9s-23.9,0-23.9,0l23.9-24M301.6,437.3l-27.3,27.4h27.3s0-27.4,0-27.4h0Z"/>
          <path class="st3" d="M355.3,438.2v25.3s-25.3,0-25.3,0v-25.3s25.3,0,25.3,0M356.3,437.2h-27.3s0,27.4,0,27.4h27.3s0-27.4,0-27.4h0Z"/>
          <path class="st3" d="M382.6,438.2v23.9s-23.9-23.9-23.9-23.9h23.9M383.6,437.2h-27.3s27.4,27.3,27.4,27.3v-27.3h0Z"/>
          <path class="st3" d="M357.3,439.6l24,23.9h-23.9s0-23.9,0-23.9M356.3,437.2v27.3s27.4,0,27.4,0l-27.4-27.3h0Z"/>
          <path class="st3" d="M410,439.6v23.9s-23.9,0-23.9,0l23.9-24M410.9,437.2l-27.3,27.4h27.3s0-27.4,0-27.4h0Z"/>
          <path class="st3" d="M408.5,438.2l-23.9,24v-23.9s23.9,0,23.9,0M410.9,437.2h-27.3s0,27.4,0,27.4l27.3-27.4h0Z"/>
          <path class="st3" d="M439.3,439.5l24,23.9h-23.9s0-23.9,0-23.9M438.3,437.1v27.3s27.4,0,27.4,0l-27.4-27.3h0Z"/>
          <path class="st3" d="M464.6,438.1v23.9s-23.9-23.9-23.9-23.9h23.9M465.6,437.1h-27.3s27.4,27.3,27.4,27.3v-27.3h0Z"/>
          <path class="st3" d="M435.9,438.1l-23.9,24v-23.9s23.9,0,23.9,0M438.3,437.1h-27.3s0,27.4,0,27.4l27.3-27.4h0Z"/>
          <path class="st3" d="M437.3,439.5v23.9s-23.9,0-23.9,0l23.9-24M438.3,437.1l-27.3,27.4h27.3s0-27.4,0-27.4h0Z"/>
          <path class="st3" d="M492,438.1v25.3s-25.3,0-25.3,0v-25.3s25.3,0,25.3,0M493,437.1h-27.3s0,27.4,0,27.4h27.3s0-27.4,0-27.4h0Z"/>
          <path class="st3" d="M519.3,438v23.9s-23.9-23.9-23.9-23.9h23.9M520.3,437h-27.3s27.4,27.3,27.4,27.3v-27.3h0Z"/>
          <path class="st3" d="M494,439.5l24,23.9h-23.9s0-23.9,0-23.9M493,437.1v27.3s27.4,0,27.4,0l-27.4-27.3h0Z"/>
          <path class="st3" d="M546.7,439.4v23.9s-23.9,0-23.9,0l23.9-24M547.7,437l-27.3,27.4h27.3s0-27.4,0-27.4h0Z"/>
          <path class="st3" d="M545.2,438l-23.9,24v-23.9s23.9,0,23.9,0M547.7,437h-27.3s0,27.4,0,27.4l27.3-27.4h0Z"/>
          <path class="st3" d="M572.6,438l-23.9,24v-23.9s23.9,0,23.9,0M575,437h-27.3s0,27.4,0,27.4l27.3-27.4h0Z"/>
          <path class="st3" d="M574,439.4v23.9s-23.9,0-23.9,0l23.9-24M575,437l-27.3,27.4h27.3s0-27.4,0-27.4h0Z"/>
          <path class="st3" d="M111.9,467.3l24,23.9h-23.9s0-23.9,0-23.9M110.9,464.8v27.3s27.4,0,27.4,0l-27.4-27.3h0Z"/>
          <path class="st3" d="M137.2,465.8v23.9s-23.9-23.9-23.9-23.9h23.9M138.2,464.8h-27.3s27.4,27.3,27.4,27.3v-27.3h0Z"/>
          <path class="st3" d="M108.5,465.8l-23.9,24v-23.9s23.9,0,23.9,0M110.9,464.8h-27.3s0,27.4,0,27.4l27.3-27.4h0Z"/>
          <path class="st3" d="M109.9,467.3v23.9s-23.9,0-23.9,0l23.9-24M110.9,464.8l-27.3,27.4h27.3s0-27.4,0-27.4h0Z"/>
          <path class="st3" d="M164.6,465.8v25.3s-25.3,0-25.3,0v-25.3s25.3,0,25.3,0M165.6,464.8h-27.3s0,27.4,0,27.4h27.3s0-27.4,0-27.4h0Z"/>
          <path class="st3" d="M191.9,465.8v23.9s-23.9-23.9-23.9-23.9h23.9M192.9,464.8h-27.3s27.4,27.3,27.4,27.3v-27.3h0Z"/>
          <path class="st3" d="M166.6,467.2l24,23.9h-23.9s0-23.9,0-23.9M165.6,464.8v27.3s27.4,0,27.4,0l-27.4-27.3h0Z"/>
          <path class="st3" d="M219.3,467.1v23.9s-23.9,0-23.9,0l23.9-24M220.3,464.7l-27.3,27.4h27.3s0-27.4,0-27.4h0Z"/>
          <path class="st3" d="M217.9,465.7l-23.9,24v-23.9s23.9,0,23.9,0M220.3,464.7h-27.3s0,27.4,0,27.4l27.3-27.4h0Z"/>
          <path class="st3" d="M248.6,467.1l24,23.9h-23.9s0-23.9,0-23.9M247.6,464.7v27.3s27.4,0,27.4,0l-27.4-27.3h0Z"/>
          <path class="st3" d="M274,465.7v23.9s-23.9-23.9-23.9-23.9h23.9M275,464.7h-27.3s27.4,27.3,27.4,27.3v-27.3h0Z"/>
          <path class="st3" d="M245.2,465.7l-23.9,24v-23.9s23.9,0,23.9,0M247.6,464.7h-27.3s0,27.4,0,27.4l27.3-27.4h0Z"/>
          <path class="st3" d="M246.6,467.1v23.9s-23.9,0-23.9,0l23.9-24M247.6,464.7l-27.3,27.4h27.3s0-27.4,0-27.4h0Z"/>
          <path class="st3" d="M301.3,465.6v25.3s-25.3,0-25.3,0v-25.3s25.3,0,25.3,0M302.3,464.6h-27.3s0,27.4,0,27.4h27.3s0-27.4,0-27.4h0Z"/>
          <path class="st3" d="M328.6,465.6v23.9s-23.9-23.9-23.9-23.9h23.9M329.6,464.6h-27.3s27.4,27.3,27.4,27.3v-27.3h0Z"/>
          <path class="st3" d="M303.3,467l24,23.9h-23.9s0-23.9,0-23.9M302.3,464.6v27.3s27.4,0,27.4,0l-27.4-27.3h0Z"/>
          <path class="st3" d="M356,467v23.9s-23.9,0-23.9,0l23.9-24M357,464.6l-27.3,27.4h27.3s0-27.4,0-27.4h0Z"/>
          <path class="st3" d="M354.6,465.6l-23.9,24v-23.9s23.9,0,23.9,0M357,464.6h-27.3s0,27.4,0,27.4l27.3-27.4h0Z"/>
          <path class="st3" d="M385.3,466.9l24,23.9h-23.9s0-23.9,0-23.9M384.3,464.5v27.3s27.4,0,27.4,0l-27.4-27.3h0Z"/>
          <path class="st3" d="M410.7,465.5v23.9s-23.9-23.9-23.9-23.9h23.9M411.7,464.5h-27.3s27.4,27.3,27.4,27.3v-27.3h0Z"/>
          <path class="st3" d="M381.9,465.5l-23.9,24v-23.9s23.9,0,23.9,0M384.3,464.5h-27.3s0,27.4,0,27.4l27.3-27.4h0Z"/>
          <path class="st3" d="M383.3,466.9v23.9s-23.9,0-23.9,0l23.9-24M384.3,464.5l-27.3,27.4h27.3s0-27.4,0-27.4h0Z"/>
          <path class="st3" d="M438,465.5v25.3s-25.3,0-25.3,0v-25.3s25.3,0,25.3,0M439,464.5h-27.3s0,27.4,0,27.4h27.3s0-27.4,0-27.4h0Z"/>
          <path class="st3" d="M465.3,465.4v23.9s-23.9-23.9-23.9-23.9h23.9M466.3,464.4h-27.3s27.4,27.3,27.4,27.3v-27.3h0Z"/>
          <path class="st3" d="M440,466.9l24,23.9h-23.9s0-23.9,0-23.9M439,464.5v27.3s27.4,0,27.4,0l-27.4-27.3h0Z"/>
          <path class="st3" d="M492.7,466.8v23.9s-23.9,0-23.9,0l23.9-24M493.7,464.4l-27.3,27.4h27.3s0-27.4,0-27.4h0Z"/>
          <path class="st3" d="M491.3,465.4l-23.9,24v-23.9s23.9,0,23.9,0M493.7,464.4h-27.3s0,27.4,0,27.4l27.3-27.4h0Z"/>
          <path class="st3" d="M522,466.8l24,23.9h-23.9s0-23.9,0-23.9M521,464.4v27.3s27.4,0,27.4,0l-27.4-27.3h0Z"/>
          <path class="st3" d="M547.4,465.3v23.9s-23.9-23.9-23.9-23.9h23.9M548.4,464.3h-27.3s27.4,27.3,27.4,27.3v-27.3h0Z"/>
          <path class="st3" d="M518.6,465.4l-23.9,24v-23.9s23.9,0,23.9,0M521,464.4h-27.3s0,27.4,0,27.4l27.3-27.4h0Z"/>
          <path class="st3" d="M520,466.8v23.9s-23.9,0-23.9,0l23.9-24M521,464.4l-27.3,27.4h27.3s0-27.4,0-27.4h0Z"/>
          <path class="st3" d="M574.7,465.3v25.3s-25.3,0-25.3,0v-25.3s25.3,0,25.3,0M575.7,464.3h-27.3s0,27.4,0,27.4h27.3s0-27.4,0-27.4h0Z"/>
        </g>
      </g>
      <g>
        <path class="st3" d="M574.7,494.2v23.9h-23.9l23.9-23.9M575.7,491.8l-27.3,27.3h27.3v-27.3h0Z"/>
        <path class="st3" d="M573.3,492.8l-23.9,23.9v-23.9h23.9M575.7,491.8h-27.3v27.3l27.3-27.3h0Z"/>
        <path class="st3" d="M548,492.8v23.9l-23.9-23.9h23.9M549,491.8h-27.3l27.3,27.3v-27.3h0Z"/>
        <path class="st3" d="M522.7,494.2l23.9,23.9h-23.9v-23.9M521.7,491.8v27.3h27.3l-27.3-27.3h0Z"/>
        <line class="st1" x1="29.5" y1="491.8" x2="29.5" y2="519.1"/>
        <path class="st1" d="M29.5,491.8"/>
        <path class="st3" d="M57.9,494.2l23.9,23.9h-23.9v-23.9M56.9,491.8v27.3h27.3l-27.3-27.3h0Z"/>
        <path class="st3" d="M83.2,492.8v23.9l-23.9-23.9h23.9M84.2,491.8h-27.3l27.3,27.3v-27.3h0Z"/>
        <path class="st3" d="M54.5,492.8l-23.9,23.9v-23.9h23.9M56.9,491.8h-27.3v27.3l27.3-27.3h0Z"/>
        <path class="st3" d="M55.9,494.2v23.9h-23.9l23.9-23.9M56.9,491.8l-27.3,27.3h27.3v-27.3h0Z"/>
        <path class="st3" d="M110.6,492.8v25.3h-25.3v-25.3h25.3M111.6,491.8h-27.3v27.3h27.3v-27.3h0Z"/>
        <path class="st3" d="M137.9,492.8v23.9l-23.9-23.9h23.9M138.9,491.8h-27.3l27.3,27.3v-27.3h0Z"/>
        <path class="st3" d="M112.6,494.2l23.9,23.9h-23.9v-23.9M111.6,491.8v27.3h27.3l-27.3-27.3h0Z"/>
        <path class="st3" d="M165.3,494.2v23.9h-23.9l23.9-23.9M166.3,491.8l-27.3,27.3h27.3v-27.3h0Z"/>
        <path class="st3" d="M163.8,492.8l-23.9,23.9v-23.9h23.9M166.3,491.8h-27.3v27.3l27.3-27.3h0Z"/>
        <path class="st3" d="M194.6,494.2l23.9,23.9h-23.9v-23.9M193.6,491.8v27.3h27.3l-27.3-27.3h0Z"/>
        <path class="st3" d="M219.9,492.8v23.9l-23.9-23.9h23.9M220.9,491.8h-27.3l27.3,27.3v-27.3h0Z"/>
        <path class="st3" d="M191.2,492.8l-23.9,23.9v-23.9h23.9M193.6,491.8h-27.3v27.3l27.3-27.3h0Z"/>
        <path class="st3" d="M192.6,494.2v23.9h-23.9l23.9-23.9M193.6,491.8l-27.3,27.3h27.3v-27.3h0Z"/>
        <path class="st3" d="M247.3,492.8v25.3h-25.3v-25.3h25.3M248.3,491.8h-27.3v27.3h27.3v-27.3h0Z"/>
        <path class="st3" d="M274.6,492.8v23.9l-23.9-23.9h23.9M275.6,491.8h-27.3l27.3,27.3v-27.3h0Z"/>
        <path class="st3" d="M249.3,494.2l23.9,23.9h-23.9v-23.9M248.3,491.8v27.3h27.3l-27.3-27.3h0Z"/>
        <path class="st3" d="M302,494.2v23.9h-23.9l23.9-23.9M303,491.8l-27.3,27.3h27.3v-27.3h0Z"/>
        <path class="st3" d="M300.5,492.8l-23.9,23.9v-23.9h23.9M303,491.8h-27.3v27.3l27.3-27.3h0Z"/>
        <path class="st3" d="M331.3,494.2l23.9,23.9h-23.9v-23.9M330.3,491.8v27.3h27.3l-27.3-27.3h0Z"/>
        <path class="st3" d="M356.6,492.8v23.9l-23.9-23.9h23.9M357.6,491.8h-27.3l27.3,27.3v-27.3h0Z"/>
        <path class="st3" d="M327.9,492.8l-23.9,23.9v-23.9h23.9M330.3,491.8h-27.3v27.3l27.3-27.3h0Z"/>
        <path class="st3" d="M329.3,494.2v23.9h-23.9l23.9-23.9M330.3,491.8l-27.3,27.3h27.3v-27.3h0Z"/>
        <path class="st3" d="M384,492.8v25.3h-25.3v-25.3h25.3M385,491.8h-27.3v27.3h27.3v-27.3h0Z"/>
        <path class="st3" d="M411.3,492.8v23.9l-23.9-23.9h23.9M412.3,491.8h-27.3l27.3,27.3v-27.3h0Z"/>
        <path class="st3" d="M386,494.2l23.9,23.9h-23.9v-23.9M385,491.8v27.3h27.3l-27.3-27.3h0Z"/>
        <path class="st3" d="M438.7,494.2v23.9h-23.9l23.9-23.9M439.7,491.8l-27.3,27.3h27.3v-27.3h0Z"/>
        <path class="st3" d="M437.3,492.8l-23.9,23.9v-23.9h23.9M439.7,491.8h-27.3v27.3l27.3-27.3h0Z"/>
        <path class="st3" d="M468,494.2l23.9,23.9h-23.9v-23.9M467,491.8v27.3h27.3l-27.3-27.3h0Z"/>
        <path class="st3" d="M493.4,492.8v23.9l-23.9-23.9h23.9M494.4,491.8h-27.3l27.3,27.3v-27.3h0Z"/>
        <path class="st3" d="M464.6,492.8l-23.9,23.9v-23.9h23.9M467,491.8h-27.3v27.3l27.3-27.3h0Z"/>
        <path class="st3" d="M466,494.2v23.9h-23.9l23.9-23.9M467,491.8l-27.3,27.3h27.3v-27.3h0Z"/>
        <path class="st3" d="M520.7,492.8v25.3h-25.3v-25.3h25.3M521.7,491.8h-27.3v27.3h27.3v-27.3h0Z"/>
        <path class="st3" d="M27.9,494.2v23.9H3.9l23.9-23.9M28.9,491.8l-27.3,27.3h27.3v-27.3h0Z"/>
        <path class="st3" d="M26.4,492.8l-23.9,23.9v-23.9h23.9M28.9,491.8H1.5v27.3l27.3-27.3h0Z"/>
      </g>
    </g>
  </g>
</svg>