<?xml version="1.0" encoding="UTF-8"?>
<svg id="Layer_1" xmlns="http://www.w3.org/2000/svg" version="1.1" viewBox="0 0 256 256">
  <!-- Generator: Adobe Illustrator 29.5.0, SVG Export Plug-In . SVG Version: 2.1.0 Build 137)  -->
  <defs>
    <style>
      .st0 {
        fill: #662d91;
      }

      .st1 {
        fill: #1b1464;
      }

      .st2 {
        fill: #009245;
      }

      .st3 {
        fill: blue;
      }

      .st4 {
        fill: #ff0;
      }

      .st5 {
        fill: red;
      }
    </style>
  </defs>
  <g>
    <rect class="st5" width="42.7" height="42.7"/>
    <rect class="st4" x="42.7" width="42.7" height="42.7"/>
    <rect class="st2" x="85.3" width="42.7" height="42.7"/>
    <rect class="st3" x="128" width="42.7" height="42.7"/>
    <rect class="st0" x="213.3" width="42.7" height="42.7"/>
    <rect class="st1" x="170.7" width="42.7" height="42.7"/>
  </g>
  <g>
    <rect class="st4" y="42.7" width="42.7" height="42.7" transform="translate(85.3 42.7) rotate(90)"/>
    <rect class="st5" x="42.7" y="42.7" width="42.7" height="42.7"/>
    <rect class="st0" x="85.3" y="42.7" width="42.7" height="42.7"/>
    <rect class="st2" x="128" y="42.7" width="42.7" height="42.7"/>
    <rect class="st3" x="170.7" y="42.7" width="42.7" height="42.7"/>
    <rect class="st1" x="213.3" y="42.7" width="42.7" height="42.7"/>
  </g>
  <g>
    <rect class="st2" x="0" y="85.3" width="42.7" height="42.7" transform="translate(128 85.3) rotate(90)"/>
    <rect class="st0" x="42.7" y="85.3" width="42.7" height="42.7"/>
    <rect class="st5" x="85.3" y="85.3" width="42.7" height="42.7"/>
    <rect class="st4" x="128" y="85.3" width="42.7" height="42.7"/>
    <rect class="st2" x="170.7" y="85.3" width="42.7" height="42.7"/>
    <rect class="st3" x="213.3" y="85.3" width="42.7" height="42.7"/>
  </g>
  <g>
    <rect class="st3" x="170.3" y="128" width="42.7" height="42.7" transform="translate(383.2 298.7) rotate(180)"/>
    <rect class="st0" x="85.1" y="128" width="42.7" height="42.7" transform="translate(212.8 298.7) rotate(180)"/>
    <rect class="st1" x="127.7" y="128" width="42.7" height="42.7" transform="translate(298 298.7) rotate(180)"/>
    <rect class="st4" x="212.9" y="128" width="42.7" height="42.7"/>
    <rect class="st5" x="-.1" y="128" width="42.7" height="42.7"/>
    <rect class="st2" x="42.5" y="128" width="42.7" height="42.7" transform="translate(213.1 85.5) rotate(90)"/>
  </g>
  <g>
    <rect class="st5" x="213.3" y="213.3" width="42.7" height="42.7" transform="translate(469.3 469.3) rotate(180)"/>
    <rect class="st4" x="170.7" y="213.3" width="42.7" height="42.7" transform="translate(384 469.3) rotate(180)"/>
    <rect class="st2" x="128" y="213.3" width="42.7" height="42.7" transform="translate(298.7 469.3) rotate(180)"/>
    <rect class="st3" x="85.3" y="213.3" width="42.7" height="42.7" transform="translate(213.3 469.3) rotate(180)"/>
    <rect class="st0" y="213.3" width="42.7" height="42.7" transform="translate(42.7 469.3) rotate(180)"/>
    <rect class="st1" x="42.7" y="213.3" width="42.7" height="42.7" transform="translate(128 469.3) rotate(180)"/>
  </g>
  <g>
    <rect class="st0" x="213.2" y="170.7" width="42.7" height="42.7" transform="translate(42.5 426.5) rotate(-90)"/>
    <rect class="st5" x="170.5" y="170.7" width="42.7" height="42.7" transform="translate(383.7 384) rotate(180)"/>
    <rect class="st4" x="127.9" y="170.7" width="42.7" height="42.7" transform="translate(298.4 384) rotate(180)"/>
    <rect class="st2" x="85.2" y="170.7" width="42.7" height="42.7" transform="translate(213.1 384) rotate(180)"/>
    <rect class="st3" x="42.5" y="170.7" width="42.7" height="42.7" transform="translate(127.7 384) rotate(180)"/>
    <rect class="st1" x="-.1" y="170.7" width="42.7" height="42.7" transform="translate(42.4 384) rotate(180)"/>
  </g>
</svg>