<?xml version="1.0" encoding="UTF-8"?>
<svg id="Layer_1" xmlns="http://www.w3.org/2000/svg" xmlns:xlink="http://www.w3.org/1999/xlink" version="1.1" viewBox="0 0 256 256">
  <!-- Generator: Adobe Illustrator 29.5.0, SVG Export Plug-In . SVG Version: 2.1.0 Build 137)  -->
  <defs>
    <style>
      .st0 {
        fill: none;
      }

      .st1 {
        fill: url(#Jive);
      }

      .st2 {
        fill: #00427e;
      }

      .st3 {
        fill: #9ddcf9;
        opacity: .4;
      }
    </style>
    <pattern id="Jive" x="0" y="0" width="108.3" height="109.6" patternTransform="translate(-4 -650.2) scale(1 .9)" patternUnits="userSpaceOnUse" viewBox="0 0 108.3 109.6">
      <g>
        <rect class="st0" x="0" width="108.3" height="109.6"/>
        <g>
          <path class="st2" d="M87.5,144.3c0-.1.1-.2.2-.2,12.9-.1,24.8-3.3,34-11.5-8,5.6-22.9,7.5-31.5,3.6-.1,0-.2-.2-.1-.3,0-.1.1-.2.3-.2,10.7.3,19.3-3,26-9-6.9-.4-12.6-4.7-12.6-9.8,0-.1,0-.2.2-.2.1,0,.2,0,.3.1,1.1,2.5,4.7,3.8,8.6,2.9,4.2-1,7-4.2,6.3-7.2-.5-2-2.4-3.4-5-3.8-.1,0-.2-.1-.2-.3,0-.1.1-.2.2-.2,1.1-.1,2.2-.1,3.3,0,6.5.6,11.5,4.6,11.9,9.2,4.7-.5,8.9-3.2,10.4-6.8,0-.1.2-.2.3-.2.1,0,.2.1.2.2.4,4.8-1.3,7.8-5,10.9,5.4-2.1,11.4-2.2,17.3.5.1,0,.2.2.1.3,0,.1-.1.2-.2.2-4.9.2-8.4,1.8-11.7,5.1,18.3-5.1,33.1,6.2,28,23.1,0,.1-.1.2-.3.2-.1,0-.2-.1-.2-.2-.9-9.7-7.7-16.1-17.9-17.1,5.4,2.1,11,7,11.6,15.5,0,.1,0,.2-.2.3-.1,0-.2,0-.3-.1-2.8-6.2-8.3-9.3-14.2-9.8,6.3,2.6,10.4,8.6,11.6,16.4,0,.1,0,.2-.2.3-.1,0-.2,0-.3-.1-3.9-7.6-12.2-12.8-22.4-8.8-10.6,4.1-15.3,16.4-16.3,25,0,.1-.1.2-.2.2s-.2,0-.3-.2c-3.7-15.7,3.6-31.9,16.6-38.8-7.1,2-13.4,6.3-17,13.4-8.3,1-14,3.9-16.9,9.2,0,.1-.2.2-.3.1-.1,0-.2-.1-.2-.3.2-2.1.9-6.3,4.1-8.3-7,0-12.5-.9-17.8-3-.1,0-.2-.2-.2-.3ZM117,197.8c0,0-.2,0-.3,0,0,0-.1.2,0,.3,1.6,2.8.1,6.8-3.1,6.8-5.7,0-8.5-10.8-7.6-20.6,2.2,5.8,4,8.1,7.3,10.8,0,0,.2,0,.3,0,0,0,.1-.2,0-.3-4.9-9.1-5.9-16.1-5.9-24.1,1.5,6,3.2,9.3,8.1,14.4,0,0,.2.1.3,0,.1,0,.1-.2,0-.3-5.3-11.6-4.9-24.4-.9-34.3,0,0,0-.2,0-.3,0,0-.2,0-.3,0-5.2,2.6-8.3,4.2-12.8,10.4,1.4,7.4.2,11-3.2,17.2,3.9-9.9,1.8-23.9-8.2-29.6-.1,0-.2,0-.3,0,0,0,0,.2,0,.3,3.8,4,6.5,10.6,4.2,17.9,1.5-10.4-7.6-19.1-17.8-19.1s-16.2,7.5-15.6,14.9c.5,7.4,5.4,11,9.7,12.5.1,0,.2,0,.3-.1,0-.1,0-.2,0-.3-5.6-5.7-6.4-16.5,3.6-19.8-5.9,5.1-3.7,16.8,5.7,17.7.1,0,.2,0,.3-.2s0-.2-.1-.3c-2-1.3-3.7-3.8-3.7-6.6,0-4.7,3.4-6.5,5.7-6.5,3.4,0,6.3,3.3,6.3,8.2s-5.3,10.7-12,11.4c-6.6.7-12.8-2.2-15.7-6.5,0-.1-.2-.1-.3,0s-.2.2-.1.3c3,11.7,16.8,16.9,26.9,9.5-6.6,7.5-17,7.6-25.7,0,0,0-.2,0-.3,0,0,0-.1.2,0,.3,2.7,5.4,9.3,11.8,18.6,10.9,8.6-.9,13.5-9,14.5-15.7.6,8.5-1.4,14.5-8.8,20.1,0,0-.1.2,0,.3,0,.1.2.2.3.1,6.8-2,12.2-5.4,15-12.5,0,6.2-2.1,12.4-7.5,16.5,0,0-.1.2,0,.3s.2.2.3.1c3.5-1,6.2-2.5,8.1-5.2,1.3,11.1,6.5,17.7,12.5,17.7s7.2-3,7.2-7.9-1.5-6.8-4.8-9ZM216.2,106.2c-3.2-3.9-9.5-5.4-16.4-4,.5-4.3-.3-8.8-1.6-11.5,0-.1-.2-.2-.3-.1-.1,0-.2.1-.2.3.4,8.8-4.6,15.8-13.4,18.9,6.9-4.8,8.9-14.2,5.6-19.1,0,0-.2-.1-.3,0-.1,0-.2.2-.2.3.4,2.1-.6,4.7-2.7,6.7-2.9,2.8-6.8,3.5-8.8,1.4-2-2-1.2-5.9,1.7-8.8,1.1-1,2.3-1.8,3.4-2.2.1,0,.2-.2.2-.3,0-.1-.1-.2-.2-.2-6.4-.6-10.8,3.3-13.5,7.9-2.8,4.7-7.6,8.4-13.2,7.7-.1,0-.2,0-.3.2,0,.1,0,.2.1.3,2.8,1.7,5.9,2.4,9.9,1.1-5.8,4.9-14,7.7-21.8,5.2-.1,0-.2,0-.3.1,0,0,0,.2,0,.3,5.9,6.6,17.7,6.7,25.1,1.4-3,4.3-7.1,7.5-14.3,8.5-.1,0-.2.1-.2.2,0,.1,0,.2.2.3,8.3,3.1,16.6,0,23.4-8.2-3,6.4-7.9,11.5-14.8,14-.1,0-.2.2-.2.3,0,.1.1.2.2.2,3.9,0,7.5-.9,12.3-3.6-3.5,5.7-2.7,15.6,2.4,22.3,0,0,.2.1.3,0,.1,0,.2-.2.1-.3-1.2-7.2,1.3-15.3,5.6-19.6-2.2,7.6,0,14.6,5.9,19.6,0,0,.2,0,.3,0,0,0,.1-.1.2-.2,1.2-9.4,11.8-19,20.6-19.8.1,0,.2-.1.2-.2s0-.2-.2-.3c-4.3-1-8.7-.5-12.4,1,2.7-2.9,5.9-5.1,9.6-6.2.1,0,.2-.2.2-.3,0-.1-.1-.2-.2-.2-4.5-.3-8.9,1-12.7,3.5,4.4-6.6,11-11.5,19.4-13.5.1,0,.2-.1.2-.3,0-.1-.1-.2-.2-.2-11.9-1.3-21.7,3.3-28.2,11.9,1.6-4.9,6.4-9.8,12.9-12.6,5.8-2.5,11.9-2.9,16.4-1.5.1,0,.2,0,.3,0,0,0,0-.2,0-.3ZM163.3,181.8c4.8-10.5,4.5-18.7.6-29.1,0-.1-.2-.2-.3-.2-.1,0-.2.1-.2.3.6,12.6-2.8,21.7-10.3,27.8,8.2-9.9,4.4-29.6-8.8-29.6s-17.5,8-19.5,17.5c0,.1,0,.2.2.3.1,0,.2,0,.3-.1,2.8-4.8,7.4-7.9,12.5-7.9,8.1,0,10.5,6.5,10.5,11s-4.9,11.3-8.7,11.3-5-2.8-5-4.9c0-3.9,3-7.2,6.4-8.2.1,0,.2-.2.2-.3,0-.1-.1-.2-.2-.2-4.1,0-7.6,1.9-9.6,5.6-.3-2.9-.3-4.7.6-7.7,0-.1,0-.2-.1-.3-.1,0-.2,0-.3,0-7.4,9.4-3.8,25.6,2,32.4-5.5-4-10.4-12.6-10.3-24.4,0-.1,0-.2-.2-.2-.1,0-.2,0-.3.2-4.1,10.3-1.9,29.2,9.3,39.9-2.9.4-5.9.3-9.1-.7-.1,0-.2,0-.3.1,0,.1,0,.2,0,.3,4.1,3.5,9.8,4.5,15.3,4.5-4.7-5.5-3.1-16.6,4.4-16.6s7.8,8.3,3.6,12.8c0,0,0,.2,0,.3,0,0,.2.1.3.1,4.8-1.7,9.9-5.8,9.9-11s-4.8-9.4-11.8-9.1c8.8-2.5,18.1.3,22.9,6.3,0,0,.2.1.3,0,.1,0,.2-.2.1-.3-2.8-10.7-12-15.2-23.4-13.7,9.3-3.8,23.2-.5,29.4,7.3,0,0,.2.1.3,0,.1,0,.2-.2.1-.3-1.4-6.6-4.9-11.6-10.6-13.5Z"/>
          <path class="st3" d="M189.7,162.5c0,.1-.1.2-.2.2-12.9.1-24.8,3.3-34,11.5,8-5.6,22.9-7.5,31.5-3.6.1,0,.2.2.1.3,0,.1-.1.2-.3.2-10.7-.3-19.3,3-26,9,6.9.4,12.6,4.7,12.6,9.8,0,.1,0,.2-.2.2-.1,0-.2,0-.3-.1-1.1-2.5-4.7-3.8-8.6-2.9-4.2,1-7,4.2-6.3,7.2.5,2,2.4,3.4,5,3.8.1,0,.2.1.2.3,0,.1-.1.2-.2.2-1.1.1-2.2.1-3.3,0-6.5-.6-11.5-4.6-11.9-9.2-4.7.5-8.9,3.2-10.4,6.8,0,.1-.2.2-.3.2-.1,0-.2-.1-.2-.2-.4-4.8,1.3-7.8,5-10.9-5.4,2.1-11.4,2.2-17.3-.5-.1,0-.2-.2-.1-.3,0-.1.1-.2.2-.2,4.9-.2,8.4-1.8,11.7-5.1-18.3,5.1-33.1-6.2-28-23.1,0-.1.1-.2.3-.2s.2.1.2.2c.9,9.7,7.7,16.1,17.9,17.1-5.4-2.1-11-7-11.6-15.5,0-.1,0-.2.2-.3.1,0,.2,0,.3.1,2.8,6.2,8.3,9.3,14.2,9.8-6.3-2.6-10.4-8.6-11.6-16.4,0-.1,0-.2.2-.3.1,0,.2,0,.3.1,3.9,7.6,12.2,12.8,22.4,8.8,10.6-4.1,15.3-16.4,16.3-25,0-.1.1-.2.2-.2.1,0,.2,0,.3.2,3.7,15.7-3.6,31.9-16.6,38.8,7.1-2,13.4-6.3,17-13.4,8.3-1,14-3.9,16.9-9.2,0-.1.2-.2.3-.1.1,0,.2.1.2.3-.2,2.1-.9,6.3-4.1,8.3,7,0,12.5.9,17.8,3,.1,0,.2.2.2.3ZM160.2,109c0,0,.2,0,.3,0,0,0,.1-.2,0-.3-1.6-2.8-.1-6.8,3.1-6.8,5.7,0,8.5,10.8,7.6,20.6-2.2-5.8-4-8.1-7.3-10.8,0,0-.2,0-.3,0,0,0-.1.2,0,.3,4.9,9.1,5.9,16.1,5.9,24.1-1.5-6-3.2-9.3-8.1-14.4,0,0-.2-.1-.3,0-.1,0-.1.2,0,.3,5.3,11.6,4.9,24.4.9,34.3,0,0,0,.2,0,.3,0,0,.2,0,.3,0,5.2-2.6,8.3-4.2,12.8-10.4-1.4-7.4-.2-11,3.2-17.2-3.9,9.9-1.8,23.9,8.2,29.6.1,0,.2,0,.3,0,0,0,0-.2,0-.3-3.8-4-6.5-10.6-4.2-17.9-1.5,10.4,7.6,19.1,17.8,19.1s16.2-7.5,15.6-14.9c-.5-7.4-5.4-11-9.7-12.5-.1,0-.2,0-.3.1,0,0,0,.2,0,.3,5.6,5.7,6.4,16.5-3.6,19.8,5.9-5.1,3.7-16.8-5.7-17.7-.1,0-.2,0-.3.2,0,.1,0,.2.1.3,2,1.3,3.7,3.8,3.7,6.6,0,4.7-3.4,6.5-5.7,6.5-3.4,0-6.3-3.3-6.3-8.2s5.3-10.7,12-11.4c6.6-.7,12.8,2.2,15.8,6.5,0,.1.2.1.3,0,.1,0,.2-.2.1-.3-3-11.7-16.8-16.9-26.9-9.5,6.6-7.5,17-7.6,25.7,0,0,0,.2,0,.3,0,0,0,.1-.2,0-.3-2.7-5.4-9.3-11.8-18.6-10.9-8.6.9-13.5,9-14.5,15.7-.6-8.5,1.4-14.5,8.8-20.1,0,0,.1-.2,0-.3,0-.1-.2-.2-.3-.1-6.8,2-12.2,5.4-15,12.5,0-6.2,2.1-12.4,7.5-16.5,0,0,.1-.2,0-.3,0-.1-.2-.2-.3-.1-3.5,1-6.2,2.5-8.1,5.2-1.3-11.1-6.5-17.7-12.5-17.7s-7.2,3-7.2,7.9,1.5,6.8,4.8,9ZM61,200.6c3.2,3.9,9.5,5.4,16.4,4-.5,4.3.3,8.8,1.6,11.5,0,.1.2.2.3.1.1,0,.2-.1.2-.3-.4-8.8,4.6-15.8,13.4-18.9-6.9,4.8-8.9,14.2-5.6,19.1,0,0,.2.1.3,0,.1,0,.2-.2.2-.3-.4-2.1.6-4.7,2.7-6.7,2.9-2.8,6.8-3.5,8.8-1.4,2,2,1.2,5.9-1.7,8.8-1.1,1-2.3,1.8-3.4,2.2-.1,0-.2.2-.2.3,0,.1.1.2.2.2,6.4.6,10.8-3.3,13.5-7.9,2.8-4.7,7.6-8.4,13.2-7.7.1,0,.2,0,.3-.2,0-.1,0-.2-.1-.3-2.8-1.7-5.9-2.4-9.9-1.1,5.8-4.9,14-7.7,21.8-5.2.1,0,.2,0,.3-.1s0-.2,0-.3c-5.9-6.6-17.7-6.7-25.1-1.4,3-4.3,7.1-7.5,14.3-8.5.1,0,.2-.1.2-.2,0-.1,0-.2-.2-.3-8.3-3.1-16.6,0-23.4,8.2,3-6.4,7.9-11.5,14.8-14,.1,0,.2-.2.2-.3,0-.1-.1-.2-.2-.2-3.9,0-7.5.9-12.3,3.6,3.5-5.7,2.7-15.6-2.4-22.3,0,0-.2-.1-.3,0-.1,0-.2.2-.1.3,1.2,7.2-1.3,15.3-5.6,19.6,2.2-7.6,0-14.6-5.9-19.6,0,0-.2,0-.3,0,0,0-.1.1-.2.2-1.2,9.4-11.8,19-20.6,19.8-.1,0-.2.1-.2.2,0,.1,0,.2.2.3,4.3,1,8.7.5,12.4-1-2.7,2.9-5.9,5.1-9.6,6.2-.1,0-.2.2-.2.3,0,.1.1.2.2.2,4.5.3,8.9-1,12.7-3.5-4.4,6.6-11,11.5-19.4,13.5-.1,0-.2.1-.2.3,0,.1.1.2.2.2,11.9,1.3,21.7-3.3,28.2-11.9-1.6,4.9-6.4,9.8-12.9,12.6-5.8,2.5-11.8,2.9-16.4,1.5-.1,0-.2,0-.3,0,0,0,0,.2,0,.3ZM113.9,125c-4.8,10.5-4.5,18.7-.6,29.1,0,.1.2.2.3.2.1,0,.2-.1.2-.3-.6-12.6,2.8-21.7,10.3-27.8-8.2,9.9-4.4,29.6,8.8,29.6s17.5-8,19.5-17.5c0-.1,0-.2-.2-.3-.1,0-.2,0-.3.1-2.8,4.8-7.4,7.9-12.5,7.9-8.1,0-10.5-6.5-10.5-11s4.9-11.3,8.7-11.3,5,2.8,5,4.9c0,3.9-3,7.2-6.4,8.2-.1,0-.2.2-.2.3,0,.1.1.2.2.2,4.1,0,7.6-1.9,9.6-5.6.3,2.9.3,4.7-.6,7.7,0,.1,0,.2.1.3.1,0,.2,0,.3,0,7.4-9.4,3.8-25.6-2-32.4,5.5,4,10.4,12.6,10.3,24.4,0,.1,0,.2.2.2.1,0,.2,0,.3-.2,4.1-10.3,1.9-29.2-9.3-39.9,2.9-.4,5.9-.3,9.1.7.1,0,.2,0,.3-.1,0-.1,0-.2,0-.3-4.1-3.5-9.8-4.5-15.3-4.5,4.7,5.5,3.1,16.6-4.4,16.6s-7.8-8.3-3.6-12.8c0,0,0-.2,0-.3,0,0-.2-.1-.3-.1-4.8,1.7-9.9,5.8-9.9,11s4.8,9.4,11.8,9.1c-8.8,2.5-18.1-.3-22.9-6.3,0,0-.2-.1-.3,0-.1,0-.2.2-.1.3,2.8,10.7,12,15.2,23.4,13.7-9.3,3.8-23.2.5-29.4-7.3,0,0-.2-.1-.3,0-.1,0-.2.2-.1.3,1.4,6.6,4.9,11.6,10.6,13.5Z"/>
        </g>
        <g>
          <path class="st2" d="M-20.9,144.3c0-.1.1-.2.2-.2,12.9-.1,24.8-3.3,34-11.5-8,5.6-22.9,7.5-31.5,3.6-.1,0-.2-.2-.1-.3,0-.1.1-.2.3-.2,10.7.3,19.3-3,26-9-6.9-.4-12.6-4.7-12.6-9.8,0-.1,0-.2.2-.2.1,0,.2,0,.3.1,1.1,2.5,4.7,3.8,8.6,2.9,4.2-1,7-4.2,6.3-7.2-.5-2-2.4-3.4-5-3.8-.1,0-.2-.1-.2-.3,0-.1.1-.2.2-.2,1.1-.1,2.2-.1,3.3,0,6.5.6,11.5,4.6,11.9,9.2,4.7-.5,8.9-3.2,10.4-6.8,0-.1.2-.2.3-.2.1,0,.2.1.2.2.4,4.8-1.3,7.8-5,10.9,5.4-2.1,11.4-2.2,17.3.5.1,0,.2.2.1.3,0,.1-.1.2-.2.2-4.9.2-8.4,1.8-11.7,5.1,18.3-5.1,33.1,6.2,28,23.1,0,.1-.1.2-.3.2-.1,0-.2-.1-.2-.2-.9-9.7-7.7-16.1-17.9-17.1,5.4,2.1,11,7,11.6,15.5,0,.1,0,.2-.2.3-.1,0-.2,0-.3-.1-2.8-6.2-8.3-9.3-14.2-9.8,6.3,2.6,10.4,8.6,11.6,16.4,0,.1,0,.2-.2.3-.1,0-.2,0-.3-.1-3.9-7.6-12.2-12.8-22.4-8.8-10.6,4.1-15.3,16.4-16.3,25,0,.1-.1.2-.2.2-.1,0-.2,0-.3-.2-3.7-15.7,3.6-31.9,16.6-38.8-7.1,2-13.4,6.3-17,13.4-8.3,1-14,3.9-16.9,9.2,0,.1-.2.2-.3.1-.1,0-.2-.1-.2-.3.2-2.1.9-6.3,4.1-8.3-7,0-12.5-.9-17.8-3-.1,0-.2-.2-.2-.3ZM8.6,197.8c0,0-.2,0-.3,0,0,0-.1.2,0,.3,1.6,2.8.1,6.8-3.1,6.8-5.7,0-8.5-10.8-7.6-20.6,2.2,5.8,4,8.1,7.3,10.8,0,0,.2,0,.3,0,0,0,.1-.2,0-.3-4.9-9.1-5.9-16.1-5.9-24.1,1.5,6,3.2,9.3,8.1,14.4,0,0,.2.1.3,0,.1,0,.1-.2,0-.3-5.3-11.6-4.9-24.4-.9-34.3,0,0,0-.2,0-.3,0,0-.2,0-.3,0-5.2,2.6-8.3,4.2-12.8,10.4,1.4,7.4.2,11-3.2,17.2,3.9-9.9,1.8-23.9-8.2-29.6-.1,0-.2,0-.3,0,0,0,0,.2,0,.3,3.8,4,6.5,10.6,4.2,17.9,1.5-10.4-7.6-19.1-17.8-19.1s-16.2,7.5-15.6,14.9c.5,7.4,5.4,11,9.7,12.5.1,0,.2,0,.3-.1,0-.1,0-.2,0-.3-5.6-5.7-6.4-16.5,3.6-19.8-5.9,5.1-3.7,16.8,5.7,17.7.1,0,.2,0,.3-.2s0-.2-.1-.3c-2-1.3-3.7-3.8-3.7-6.6,0-4.7,3.4-6.5,5.7-6.5,3.4,0,6.3,3.3,6.3,8.2s-5.3,10.7-12,11.4c-6.6.7-12.8-2.2-15.7-6.5,0-.1-.2-.1-.3,0-.1,0-.2.2-.1.3,3,11.7,16.8,16.9,26.9,9.5-6.6,7.5-17,7.6-25.7,0,0,0-.2,0-.3,0,0,0-.1.2,0,.3,2.7,5.4,9.3,11.8,18.6,10.9,8.6-.9,13.5-9,14.5-15.7.6,8.5-1.4,14.5-8.8,20.1,0,0-.1.2,0,.3,0,.1.2.2.3.1,6.8-2,12.2-5.4,15-12.5,0,6.2-2.1,12.4-7.5,16.5,0,0-.1.2,0,.3s.2.2.3.1c3.5-1,6.2-2.5,8.1-5.2,1.3,11.1,6.5,17.7,12.5,17.7s7.2-3,7.2-7.9-1.5-6.8-4.8-9ZM107.8,106.2c-3.2-3.9-9.5-5.4-16.4-4,.5-4.3-.3-8.8-1.6-11.5,0-.1-.2-.2-.3-.1-.1,0-.2.1-.2.3.4,8.8-4.6,15.8-13.4,18.9,6.9-4.8,8.9-14.2,5.6-19.1,0,0-.2-.1-.3,0-.1,0-.2.2-.2.3.4,2.1-.6,4.7-2.7,6.7-2.9,2.8-6.8,3.5-8.8,1.4-2-2-1.2-5.9,1.7-8.8,1.1-1,2.3-1.8,3.4-2.2.1,0,.2-.2.2-.3,0-.1-.1-.2-.2-.2-6.4-.6-10.8,3.3-13.5,7.9-2.8,4.7-7.6,8.4-13.2,7.7-.1,0-.2,0-.3.2,0,.1,0,.2.1.3,2.8,1.7,5.9,2.4,9.9,1.1-5.8,4.9-14,7.7-21.8,5.2-.1,0-.2,0-.3.1,0,0,0,.2,0,.3,5.9,6.6,17.7,6.7,25.1,1.4-3,4.3-7.1,7.5-14.3,8.5-.1,0-.2.1-.2.2,0,.1,0,.2.2.3,8.3,3.1,16.6,0,23.4-8.2-3,6.4-7.9,11.5-14.8,14-.1,0-.2.2-.2.3,0,.1.1.2.2.2,3.9,0,7.5-.9,12.3-3.6-3.5,5.7-2.7,15.6,2.4,22.3,0,0,.2.1.3,0,.1,0,.2-.2.1-.3-1.2-7.2,1.3-15.3,5.6-19.6-2.2,7.6,0,14.6,5.9,19.6,0,0,.2,0,.3,0,0,0,.1-.1.2-.2,1.2-9.4,11.8-19,20.6-19.8.1,0,.2-.1.2-.2s0-.2-.2-.3c-4.3-1-8.7-.5-12.4,1,2.7-2.9,5.9-5.1,9.6-6.2.1,0,.2-.2.2-.3,0-.1-.1-.2-.2-.2-4.5-.3-8.9,1-12.7,3.5,4.4-6.6,11-11.5,19.4-13.5.1,0,.2-.1.2-.3,0-.1-.1-.2-.2-.2-11.9-1.3-21.7,3.3-28.2,11.9,1.6-4.9,6.4-9.8,12.9-12.6,5.8-2.5,11.8-2.9,16.4-1.5.1,0,.2,0,.3,0,0,0,0-.2,0-.3ZM54.9,181.8c4.8-10.5,4.5-18.7.6-29.1,0-.1-.2-.2-.3-.2-.1,0-.2.1-.2.3.6,12.6-2.8,21.7-10.3,27.8,8.2-9.9,4.4-29.6-8.8-29.6s-17.5,8-19.5,17.5c0,.1,0,.2.2.3.1,0,.2,0,.3-.1,2.8-4.8,7.4-7.9,12.5-7.9,8.1,0,10.5,6.5,10.5,11s-4.9,11.3-8.7,11.3-5-2.8-5-4.9c0-3.9,3-7.2,6.4-8.2.1,0,.2-.2.2-.3,0-.1-.1-.2-.2-.2-4.1,0-7.6,1.9-9.6,5.6-.3-2.9-.3-4.7.6-7.7,0-.1,0-.2-.1-.3-.1,0-.2,0-.3,0-7.4,9.4-3.8,25.6,2,32.4-5.5-4-10.4-12.6-10.3-24.4,0-.1,0-.2-.2-.2-.1,0-.2,0-.3.2-4.1,10.3-1.9,29.2,9.3,39.9-2.9.4-5.9.3-9.1-.7-.1,0-.2,0-.3.1,0,.1,0,.2,0,.3,4.1,3.5,9.8,4.5,15.3,4.5-4.7-5.5-3.1-16.6,4.4-16.6s7.8,8.3,3.6,12.8c0,0,0,.2,0,.3,0,0,.2.1.3.1,4.8-1.7,9.9-5.8,9.9-11s-4.8-9.4-11.8-9.1c8.8-2.5,18.1.3,22.9,6.3,0,0,.2.1.3,0,.1,0,.2-.2.1-.3-2.8-10.7-12-15.2-23.4-13.7,9.3-3.8,23.2-.5,29.4,7.3,0,0,.2.1.3,0,.1,0,.2-.2.1-.3-1.4-6.6-4.9-11.6-10.6-13.5Z"/>
          <path class="st3" d="M81.3,162.5c0,.1-.1.2-.2.2-12.9.1-24.8,3.3-34,11.5,8-5.6,22.9-7.5,31.5-3.6.1,0,.2.2.1.3,0,.1-.1.2-.3.2-10.7-.3-19.3,3-26,9,6.9.4,12.6,4.7,12.6,9.8,0,.1,0,.2-.2.2-.1,0-.2,0-.3-.1-1.1-2.5-4.7-3.8-8.6-2.9-4.2,1-7,4.2-6.3,7.2.5,2,2.4,3.4,5,3.8.1,0,.2.1.2.3,0,.1-.1.2-.2.2-1.1.1-2.2.1-3.3,0-6.5-.6-11.5-4.6-11.9-9.2-4.7.5-8.9,3.2-10.4,6.8,0,.1-.2.2-.3.2-.1,0-.2-.1-.2-.2-.4-4.8,1.3-7.8,5-10.9-5.4,2.1-11.4,2.2-17.3-.5-.1,0-.2-.2-.1-.3,0-.1.1-.2.2-.2,4.9-.2,8.4-1.8,11.7-5.1-18.3,5.1-33.1-6.2-28-23.1,0-.1.1-.2.3-.2s.2.1.2.2c.9,9.7,7.7,16.1,17.9,17.1-5.4-2.1-11-7-11.6-15.5,0-.1,0-.2.2-.3.1,0,.2,0,.3.1,2.8,6.2,8.3,9.3,14.2,9.8-6.3-2.6-10.4-8.6-11.6-16.4,0-.1,0-.2.2-.3.1,0,.2,0,.3.1,3.9,7.6,12.2,12.8,22.4,8.8,10.6-4.1,15.3-16.4,16.3-25,0-.1.1-.2.2-.2.1,0,.2,0,.3.2,3.7,15.7-3.6,31.9-16.6,38.8,7.1-2,13.4-6.3,17-13.4,8.3-1,14-3.9,16.9-9.2,0-.1.2-.2.3-.1.1,0,.2.1.2.3-.2,2.1-.9,6.3-4.1,8.3,7,0,12.5.9,17.8,3,.1,0,.2.2.2.3ZM51.8,109c0,0,.2,0,.3,0,0,0,.1-.2,0-.3-1.6-2.8-.1-6.8,3.1-6.8,5.7,0,8.5,10.8,7.6,20.6-2.2-5.8-4-8.1-7.3-10.8,0,0-.2,0-.3,0,0,0-.1.2,0,.3,4.9,9.1,5.9,16.1,5.9,24.1-1.5-6-3.2-9.3-8.1-14.4,0,0-.2-.1-.3,0-.1,0-.1.2,0,.3,5.3,11.6,4.9,24.4.9,34.3,0,0,0,.2,0,.3,0,0,.2,0,.3,0,5.2-2.6,8.3-4.2,12.8-10.4-1.4-7.4-.2-11,3.2-17.2-3.9,9.9-1.8,23.9,8.2,29.6.1,0,.2,0,.3,0,0,0,0-.2,0-.3-3.8-4-6.5-10.6-4.2-17.9-1.5,10.4,7.6,19.1,17.8,19.1s16.2-7.5,15.6-14.9c-.5-7.4-5.4-11-9.7-12.5-.1,0-.2,0-.3.1,0,0,0,.2,0,.3,5.6,5.7,6.4,16.5-3.6,19.8,5.9-5.1,3.7-16.8-5.7-17.7-.1,0-.2,0-.3.2,0,.1,0,.2.1.3,2,1.3,3.7,3.8,3.7,6.6,0,4.7-3.4,6.5-5.7,6.5-3.4,0-6.3-3.3-6.3-8.2s5.3-10.7,12-11.4c6.6-.7,12.8,2.2,15.7,6.5,0,.1.2.1.3,0,.1,0,.2-.2.1-.3-3-11.7-16.8-16.9-26.9-9.5,6.6-7.5,17-7.6,25.7,0,0,0,.2,0,.3,0,0,0,.1-.2,0-.3-2.7-5.4-9.3-11.8-18.6-10.9-8.6.9-13.5,9-14.5,15.7-.6-8.5,1.4-14.5,8.8-20.1,0,0,.1-.2,0-.3s-.2-.2-.3-.1c-6.8,2-12.2,5.4-15,12.5,0-6.2,2.1-12.4,7.5-16.5,0,0,.1-.2,0-.3,0-.1-.2-.2-.3-.1-3.5,1-6.2,2.5-8.1,5.2-1.3-11.1-6.5-17.7-12.5-17.7s-7.2,3-7.2,7.9,1.5,6.8,4.8,9ZM-47.4,200.6c3.2,3.9,9.5,5.4,16.4,4-.5,4.3.3,8.8,1.6,11.5,0,.1.2.2.3.1s.2-.1.2-.3c-.4-8.8,4.6-15.8,13.4-18.9-6.9,4.8-8.9,14.2-5.6,19.1,0,0,.2.1.3,0,.1,0,.2-.2.2-.3-.4-2.1.6-4.7,2.7-6.7,2.9-2.8,6.8-3.5,8.8-1.4,2,2,1.2,5.9-1.7,8.8-1.1,1-2.3,1.8-3.4,2.2-.1,0-.2.2-.2.3,0,.1.1.2.2.2,6.4.6,10.8-3.3,13.5-7.9,2.8-4.7,7.6-8.4,13.2-7.7.1,0,.2,0,.3-.2,0-.1,0-.2-.1-.3-2.8-1.7-5.9-2.4-9.9-1.1,5.8-4.9,14-7.7,21.8-5.2.1,0,.2,0,.3-.1s0-.2,0-.3c-5.9-6.6-17.7-6.7-25.1-1.4,3-4.3,7.1-7.5,14.3-8.5.1,0,.2-.1.2-.2,0-.1,0-.2-.2-.3-8.3-3.1-16.6,0-23.4,8.2,3-6.4,7.9-11.5,14.8-14,.1,0,.2-.2.2-.3,0-.1-.1-.2-.2-.2-3.9,0-7.5.9-12.3,3.6,3.5-5.7,2.7-15.6-2.4-22.3,0,0-.2-.1-.3,0-.1,0-.2.2-.1.3,1.2,7.2-1.3,15.3-5.6,19.6,2.2-7.6,0-14.6-5.9-19.6,0,0-.2,0-.3,0,0,0-.1.1-.2.2-1.2,9.4-11.8,19-20.6,19.8-.1,0-.2.1-.2.2s0,.2.2.3c4.3,1,8.7.5,12.4-1-2.7,2.9-5.9,5.1-9.6,6.2-.1,0-.2.2-.2.3,0,.1.1.2.2.2,4.5.3,8.9-1,12.7-3.5-4.4,6.6-11,11.5-19.4,13.5-.1,0-.2.1-.2.3,0,.1.1.2.2.2,11.9,1.3,21.7-3.3,28.2-11.9-1.6,4.9-6.4,9.8-12.9,12.6-5.8,2.5-11.8,2.9-16.4,1.5-.1,0-.2,0-.3,0,0,0,0,.2,0,.3ZM5.5,125c-4.8,10.5-4.5,18.7-.6,29.1,0,.1.2.2.3.2s.2-.1.2-.3c-.6-12.6,2.8-21.7,10.3-27.8-8.2,9.9-4.4,29.6,8.8,29.6s17.5-8,19.5-17.5c0-.1,0-.2-.2-.3-.1,0-.2,0-.3.1-2.8,4.8-7.4,7.9-12.5,7.9-8.1,0-10.5-6.5-10.5-11s4.9-11.3,8.7-11.3,5,2.8,5,4.9c0,3.9-3,7.2-6.4,8.2-.1,0-.2.2-.2.3s.1.2.2.2c4.1,0,7.6-1.9,9.6-5.6.3,2.9.3,4.7-.6,7.7,0,.1,0,.2.1.3.1,0,.2,0,.3,0,7.4-9.4,3.8-25.6-2-32.4,5.5,4,10.4,12.6,10.3,24.4,0,.1,0,.2.2.2.1,0,.2,0,.3-.2,4.1-10.3,1.9-29.2-9.3-39.9,2.9-.4,5.9-.3,9.1.7.1,0,.2,0,.3-.1,0-.1,0-.2,0-.3-4.1-3.5-9.8-4.5-15.3-4.5,4.7,5.5,3.1,16.6-4.4,16.6s-7.8-8.3-3.6-12.8c0,0,0-.2,0-.3,0,0-.2-.1-.3-.1-4.8,1.7-9.9,5.8-9.9,11s4.8,9.4,11.8,9.1c-8.8,2.5-18.1-.3-22.9-6.3,0,0-.2-.1-.3,0-.1,0-.2.2-.1.3,2.8,10.7,12,15.2,23.4,13.7-9.3,3.8-23.2.5-29.4-7.3,0,0-.2-.1-.3,0-.1,0-.2.2-.1.3,1.4,6.6,4.9,11.6,10.6,13.5Z"/>
        </g>
        <g>
          <path class="st2" d="M87.5,34.7c0-.1.1-.2.2-.2,12.9-.1,24.8-3.3,34-11.5-8,5.6-22.9,7.5-31.5,3.6-.1,0-.2-.2-.1-.3,0-.1.1-.2.3-.2,10.7.3,19.3-3,26-9-6.9-.4-12.6-4.7-12.6-9.8,0-.1,0-.2.2-.2.1,0,.2,0,.3.1,1.1,2.5,4.7,3.8,8.6,2.9,4.2-1,7-4.2,6.3-7.2-.5-2-2.4-3.4-5-3.8-.1,0-.2-.1-.2-.3,0-.1.1-.2.2-.2,1.1-.1,2.2-.1,3.3,0,6.5.6,11.5,4.6,11.9,9.2,4.7-.5,8.9-3.2,10.4-6.8,0-.1.2-.2.3-.2.1,0,.2.1.2.2.4,4.8-1.3,7.8-5,10.9,5.4-2.1,11.4-2.2,17.3.5.1,0,.2.2.1.3,0,.1-.1.2-.2.2-4.9.2-8.4,1.8-11.7,5.1,18.3-5.1,33.1,6.2,28,23.1,0,.1-.1.2-.3.2-.1,0-.2-.1-.2-.2-.9-9.7-7.7-16.1-17.9-17.1,5.4,2.1,11,7,11.6,15.5,0,.1,0,.2-.2.3-.1,0-.2,0-.3-.1-2.8-6.2-8.3-9.3-14.2-9.8,6.3,2.6,10.4,8.6,11.6,16.4,0,.1,0,.2-.2.3-.1,0-.2,0-.3-.1-3.9-7.6-12.2-12.8-22.4-8.8-10.6,4.1-15.3,16.4-16.3,25,0,.1-.1.2-.2.2s-.2,0-.3-.2c-3.7-15.7,3.6-31.9,16.6-38.8-7.1,2-13.4,6.3-17,13.4-8.3,1-14,3.9-16.9,9.2,0,.1-.2.2-.3.1-.1,0-.2-.1-.2-.3.2-2.1.9-6.3,4.1-8.3-7,0-12.5-.9-17.8-3-.1,0-.2-.2-.2-.3ZM117,88.2c0,0-.2,0-.3,0,0,0-.1.2,0,.3,1.6,2.8.1,6.8-3.1,6.8-5.7,0-8.5-10.8-7.6-20.6,2.2,5.8,4,8.1,7.3,10.8,0,0,.2,0,.3,0,0,0,.1-.2,0-.3-4.9-9.1-5.9-16.1-5.9-24.1,1.5,6,3.2,9.3,8.1,14.4,0,0,.2.1.3,0,.1,0,.1-.2,0-.3-5.3-11.6-4.9-24.4-.9-34.3,0,0,0-.2,0-.3,0,0-.2,0-.3,0-5.2,2.6-8.3,4.2-12.8,10.4,1.4,7.4.2,11-3.2,17.2,3.9-9.9,1.8-23.9-8.2-29.6-.1,0-.2,0-.3,0,0,0,0,.2,0,.3,3.8,4,6.5,10.6,4.2,17.9,1.5-10.4-7.6-19.1-17.8-19.1s-16.2,7.5-15.6,14.9c.5,7.4,5.4,11,9.7,12.5.1,0,.2,0,.3-.1,0-.1,0-.2,0-.3-5.6-5.7-6.4-16.5,3.6-19.8-5.9,5.1-3.7,16.8,5.7,17.7.1,0,.2,0,.3-.2s0-.2-.1-.3c-2-1.3-3.7-3.8-3.7-6.6,0-4.7,3.4-6.5,5.7-6.5,3.4,0,6.3,3.3,6.3,8.2s-5.3,10.7-12,11.4c-6.6.7-12.8-2.2-15.7-6.5,0-.1-.2-.1-.3,0s-.2.2-.1.3c3,11.7,16.8,16.9,26.9,9.5-6.6,7.5-17,7.6-25.7,0,0,0-.2,0-.3,0,0,0-.1.2,0,.3,2.7,5.4,9.3,11.8,18.6,10.9,8.6-.9,13.5-9,14.5-15.7.6,8.5-1.4,14.5-8.8,20.1,0,0-.1.2,0,.3,0,.1.2.2.3.1,6.8-2,12.2-5.4,15-12.5,0,6.2-2.1,12.4-7.5,16.5,0,0-.1.2,0,.3s.2.2.3.1c3.5-1,6.2-2.5,8.1-5.2,1.3,11.1,6.5,17.7,12.5,17.7s7.2-3,7.2-7.9-1.5-6.8-4.8-9ZM216.2-3.5c-3.2-3.9-9.5-5.4-16.4-4,.5-4.3-.3-8.8-1.6-11.5,0-.1-.2-.2-.3-.1-.1,0-.2.1-.2.3.4,8.8-4.6,15.8-13.4,18.9,6.9-4.8,8.9-14.2,5.6-19.1,0,0-.2-.1-.3,0-.1,0-.2.2-.2.3.4,2.1-.6,4.7-2.7,6.7-2.9,2.8-6.8,3.5-8.8,1.4-2-2-1.2-5.9,1.7-8.8,1.1-1,2.3-1.8,3.4-2.2.1,0,.2-.2.2-.3,0-.1-.1-.2-.2-.2-6.4-.6-10.8,3.3-13.5,7.9-2.8,4.7-7.6,8.4-13.2,7.7-.1,0-.2,0-.3.2,0,.1,0,.2.1.3,2.8,1.7,5.9,2.4,9.9,1.1-5.8,4.9-14,7.7-21.8,5.2-.1,0-.2,0-.3.1,0,0,0,.2,0,.3,5.9,6.6,17.7,6.7,25.1,1.4-3,4.3-7.1,7.5-14.3,8.5-.1,0-.2.1-.2.2,0,.1,0,.2.2.3,8.3,3.1,16.6,0,23.4-8.2-3,6.4-7.9,11.5-14.8,14-.1,0-.2.2-.2.3,0,.1.1.2.2.2,3.9,0,7.5-.9,12.3-3.6-3.5,5.7-2.7,15.6,2.4,22.3,0,0,.2.1.3,0,.1,0,.2-.2.1-.3-1.2-7.2,1.3-15.3,5.6-19.6-2.2,7.6,0,14.6,5.9,19.6,0,0,.2,0,.3,0,0,0,.1-.1.2-.2,1.2-9.4,11.8-19,20.6-19.8.1,0,.2-.1.2-.2s0-.2-.2-.3c-4.3-1-8.7-.5-12.4,1,2.7-2.9,5.9-5.1,9.6-6.2.1,0,.2-.2.2-.3,0-.1-.1-.2-.2-.2-4.5-.3-8.9,1-12.7,3.5,4.4-6.6,11-11.5,19.4-13.5.1,0,.2-.1.2-.3,0-.1-.1-.2-.2-.2-11.9-1.3-21.7,3.3-28.2,11.9,1.6-4.9,6.4-9.8,12.9-12.6,5.8-2.5,11.9-2.9,16.4-1.5.1,0,.2,0,.3,0,0,0,0-.2,0-.3ZM163.3,72.1c4.8-10.5,4.5-18.7.6-29.1,0-.1-.2-.2-.3-.2-.1,0-.2.1-.2.3.6,12.6-2.8,21.7-10.3,27.8,8.2-9.9,4.4-29.6-8.8-29.6s-17.5,8-19.5,17.5c0,.1,0,.2.2.3.1,0,.2,0,.3-.1,2.8-4.8,7.4-7.9,12.5-7.9,8.1,0,10.5,6.5,10.5,11s-4.9,11.3-8.7,11.3-5-2.8-5-4.9c0-3.9,3-7.2,6.4-8.2.1,0,.2-.2.2-.3,0-.1-.1-.2-.2-.2-4.1,0-7.6,1.9-9.6,5.6-.3-2.9-.3-4.7.6-7.7,0-.1,0-.2-.1-.3-.1,0-.2,0-.3,0-7.4,9.4-3.8,25.6,2,32.4-5.5-4-10.4-12.6-10.3-24.4,0-.1,0-.2-.2-.2-.1,0-.2,0-.3.2-4.1,10.3-1.9,29.2,9.3,39.9-2.9.4-5.9.3-9.1-.7-.1,0-.2,0-.3.1,0,.1,0,.2,0,.3,4.1,3.5,9.8,4.5,15.3,4.5-4.7-5.5-3.1-16.6,4.4-16.6s7.8,8.3,3.6,12.8c0,0,0,.2,0,.3,0,0,.2.1.3.1,4.8-1.7,9.9-5.8,9.9-11s-4.8-9.4-11.8-9.1c8.8-2.5,18.1.3,22.9,6.3,0,0,.2.1.3,0,.1,0,.2-.2.1-.3-2.8-10.7-12-15.2-23.4-13.7,9.3-3.8,23.2-.5,29.4,7.3,0,0,.2.1.3,0,.1,0,.2-.2.1-.3-1.4-6.6-4.9-11.6-10.6-13.5Z"/>
          <path class="st3" d="M189.7,52.8c0,.1-.1.2-.2.2-12.9.1-24.8,3.3-34,11.5,8-5.6,22.9-7.5,31.5-3.6.1,0,.2.2.1.3,0,.1-.1.2-.3.2-10.7-.3-19.3,3-26,9,6.9.4,12.6,4.7,12.6,9.8,0,.1,0,.2-.2.2-.1,0-.2,0-.3-.1-1.1-2.5-4.7-3.8-8.6-2.9-4.2,1-7,4.2-6.3,7.2.5,2,2.4,3.4,5,3.8.1,0,.2.1.2.3,0,.1-.1.2-.2.2-1.1.1-2.2.1-3.3,0-6.5-.6-11.5-4.6-11.9-9.2-4.7.5-8.9,3.2-10.4,6.8,0,.1-.2.2-.3.2-.1,0-.2-.1-.2-.2-.4-4.7,1.3-7.8,5-10.9-5.4,2.1-11.4,2.2-17.3-.5-.1,0-.2-.2-.1-.3,0-.1.1-.2.2-.2,4.9-.2,8.4-1.8,11.7-5.1-18.3,5.1-33.1-6.2-28-23.1,0-.1.1-.2.3-.2s.2.1.2.2c.9,9.7,7.7,16.1,17.9,17.1-5.4-2.1-11-7-11.6-15.5,0-.1,0-.2.2-.3.1,0,.2,0,.3.1,2.8,6.2,8.3,9.3,14.2,9.8-6.3-2.6-10.4-8.6-11.6-16.4,0-.1,0-.2.2-.3.1,0,.2,0,.3.1,3.9,7.6,12.2,12.8,22.4,8.8,10.6-4.1,15.3-16.4,16.3-25,0-.1.1-.2.2-.2.1,0,.2,0,.3.2,3.7,15.7-3.6,31.9-16.6,38.8,7.1-2,13.4-6.3,17-13.4,8.3-1,14-3.9,16.9-9.2,0-.1.2-.2.3-.1.1,0,.2.1.2.3-.2,2.1-.9,6.3-4.1,8.3,7,0,12.5.9,17.8,3,.1,0,.2.2.2.3ZM160.2-.6c0,0,.2,0,.3,0,0,0,.1-.2,0-.3-1.6-2.8-.1-6.8,3.1-6.8,5.7,0,8.5,10.8,7.6,20.6-2.2-5.8-4-8.1-7.3-10.8,0,0-.2,0-.3,0,0,0-.1.2,0,.3,4.9,9.1,5.9,16.1,5.9,24.1-1.5-6-3.2-9.3-8.1-14.4,0,0-.2-.1-.3,0-.1,0-.1.2,0,.3,5.3,11.6,4.9,24.4.9,34.3,0,0,0,.2,0,.3,0,0,.2,0,.3,0,5.2-2.6,8.3-4.2,12.8-10.4-1.4-7.4-.2-11,3.2-17.2-3.9,9.9-1.8,23.9,8.2,29.6.1,0,.2,0,.3,0,0,0,0-.2,0-.3-3.8-4-6.5-10.6-4.2-17.9-1.5,10.4,7.6,19.1,17.8,19.1s16.2-7.5,15.6-14.9c-.5-7.4-5.4-11-9.7-12.5-.1,0-.2,0-.3.1,0,0,0,.2,0,.3,5.6,5.7,6.4,16.5-3.6,19.8,5.9-5.1,3.7-16.8-5.7-17.7-.1,0-.2,0-.3.2,0,.1,0,.2.1.3,2,1.3,3.7,3.8,3.7,6.6,0,4.7-3.4,6.5-5.7,6.5-3.4,0-6.3-3.3-6.3-8.2s5.3-10.7,12-11.4c6.6-.7,12.8,2.2,15.8,6.5,0,.1.2.1.3,0,.1,0,.2-.2.1-.3-3-11.7-16.8-16.9-26.9-9.5,6.6-7.5,17-7.6,25.7,0,0,0,.2,0,.3,0,0,0,.1-.2,0-.3-2.7-5.4-9.3-11.8-18.6-10.9-8.6.9-13.5,9-14.5,15.7-.6-8.5,1.4-14.5,8.8-20.1,0,0,.1-.2,0-.3,0-.1-.2-.2-.3-.1-6.8,2-12.2,5.4-15,12.5,0-6.2,2.1-12.4,7.5-16.5,0,0,.1-.2,0-.3,0-.1-.2-.2-.3-.1-3.5,1-6.2,2.5-8.1,5.2-1.3-11.1-6.5-17.7-12.5-17.7s-7.2,3-7.2,7.9,1.5,6.8,4.8,9ZM61,91c3.2,3.9,9.5,5.4,16.4,4-.5,4.3.3,8.8,1.6,11.5,0,.1.2.2.3.1.1,0,.2-.1.2-.3-.4-8.8,4.6-15.8,13.4-18.9-6.9,4.8-8.9,14.2-5.6,19.1,0,0,.2.1.3,0,.1,0,.2-.2.2-.3-.4-2.1.6-4.7,2.7-6.7,2.9-2.8,6.8-3.5,8.8-1.4,2,2,1.2,5.9-1.7,8.8-1.1,1-2.3,1.8-3.4,2.2-.1,0-.2.2-.2.3,0,.1.1.2.2.2,6.4.6,10.8-3.3,13.5-7.9,2.8-4.7,7.6-8.4,13.2-7.7.1,0,.2,0,.3-.2,0-.1,0-.2-.1-.3-2.8-1.7-5.9-2.4-9.9-1.1,5.8-4.9,14-7.7,21.8-5.2.1,0,.2,0,.3-.1,0,0,0-.2,0-.3-5.9-6.6-17.7-6.7-25.1-1.4,3-4.3,7.1-7.5,14.3-8.5.1,0,.2-.1.2-.2,0-.1,0-.2-.2-.3-8.3-3.1-16.6,0-23.4,8.2,3-6.4,7.9-11.5,14.8-14,.1,0,.2-.2.2-.3,0-.1-.1-.2-.2-.2-3.9,0-7.5.9-12.3,3.6,3.5-5.7,2.7-15.6-2.4-22.3,0,0-.2-.1-.3,0-.1,0-.2.2-.1.3,1.2,7.2-1.3,15.3-5.6,19.6,2.2-7.6,0-14.6-5.9-19.6,0,0-.2,0-.3,0,0,0-.1.1-.2.2-1.2,9.4-11.8,19-20.6,19.8-.1,0-.2.1-.2.2,0,.1,0,.2.2.3,4.3,1,8.7.5,12.4-1-2.7,2.9-5.9,5.1-9.6,6.2-.1,0-.2.2-.2.3,0,.1.1.2.2.2,4.5.3,8.9-1,12.7-3.5-4.4,6.6-11,11.5-19.4,13.5-.1,0-.2.1-.2.3,0,.1.1.2.2.2,11.9,1.3,21.7-3.3,28.2-11.9-1.6,4.9-6.4,9.8-12.9,12.6-5.8,2.5-11.8,2.9-16.4,1.5-.1,0-.2,0-.3,0,0,0,0,.2,0,.3ZM113.9,15.4c-4.8,10.5-4.5,18.7-.6,29.1,0,.1.2.2.3.2.1,0,.2-.1.2-.3-.6-12.6,2.8-21.7,10.3-27.8-8.2,9.9-4.4,29.6,8.8,29.6s17.5-8,19.5-17.5c0-.1,0-.2-.2-.3-.1,0-.2,0-.3.1-2.8,4.8-7.4,7.9-12.5,7.9-8.1,0-10.5-6.5-10.5-11s4.9-11.3,8.7-11.3,5,2.8,5,4.9c0,3.9-3,7.2-6.4,8.2-.1,0-.2.2-.2.3,0,.1.1.2.2.2,4.1,0,7.6-1.9,9.6-5.6.3,2.9.3,4.7-.6,7.7,0,.1,0,.2.1.3.1,0,.2,0,.3,0,7.4-9.4,3.8-25.6-2-32.4,5.5,4,10.4,12.6,10.3,24.4,0,.1,0,.2.2.2.1,0,.2,0,.3-.2,4.1-10.3,1.9-29.2-9.3-39.9,2.9-.4,5.9-.3,9.1.7.1,0,.2,0,.3-.1,0-.1,0-.2,0-.3-4.1-3.5-9.8-4.5-15.3-4.5,4.7,5.5,3.1,16.6-4.4,16.6s-7.8-8.3-3.6-12.8c0,0,0-.2,0-.3,0,0-.2-.1-.3-.1-4.8,1.7-9.9,5.8-9.9,11s4.8,9.4,11.8,9.1c-8.8,2.5-18.1-.3-22.9-6.3,0,0-.2-.1-.3,0-.1,0-.2.2-.1.3,2.8,10.7,12,15.2,23.4,13.7-9.3,3.8-23.2.5-29.4-7.3,0,0-.2-.1-.3,0-.1,0-.2.2-.1.3,1.4,6.6,4.9,11.6,10.6,13.5Z"/>
        </g>
        <g>
          <path class="st2" d="M-20.9,34.7c0-.1.1-.2.2-.2,12.9-.1,24.8-3.3,34-11.5-8,5.6-22.9,7.5-31.5,3.6-.1,0-.2-.2-.1-.3,0-.1.1-.2.3-.2,10.7.3,19.3-3,26-9-6.9-.4-12.6-4.7-12.6-9.8,0-.1,0-.2.2-.2.1,0,.2,0,.3.1,1.1,2.5,4.7,3.8,8.6,2.9,4.2-1,7-4.2,6.3-7.2-.5-2-2.4-3.4-5-3.8-.1,0-.2-.1-.2-.3,0-.1.1-.2.2-.2,1.1-.1,2.2-.1,3.3,0,6.5.6,11.5,4.6,11.9,9.2,4.7-.5,8.9-3.2,10.4-6.8,0-.1.2-.2.3-.2.1,0,.2.1.2.2.4,4.8-1.3,7.8-5,10.9,5.4-2.1,11.4-2.2,17.3.5.1,0,.2.2.1.3,0,.1-.1.2-.2.2-4.9.2-8.4,1.8-11.7,5.1,18.3-5.1,33.1,6.2,28,23.1,0,.1-.1.2-.3.2-.1,0-.2-.1-.2-.2-.9-9.7-7.7-16.1-17.9-17.1,5.4,2.1,11,7,11.6,15.5,0,.1,0,.2-.2.3-.1,0-.2,0-.3-.1-2.8-6.2-8.3-9.3-14.2-9.8,6.3,2.6,10.4,8.6,11.6,16.4,0,.1,0,.2-.2.3-.1,0-.2,0-.3-.1-3.9-7.6-12.2-12.8-22.4-8.8-10.6,4.1-15.3,16.4-16.3,25,0,.1-.1.2-.2.2-.1,0-.2,0-.3-.2-3.7-15.7,3.6-31.9,16.6-38.8-7.1,2-13.4,6.3-17,13.4-8.3,1-14,3.9-16.9,9.2,0,.1-.2.2-.3.1-.1,0-.2-.1-.2-.3.2-2.1.9-6.3,4.1-8.3-7,0-12.5-.9-17.8-3-.1,0-.2-.2-.2-.3ZM8.6,88.2c0,0-.2,0-.3,0,0,0-.1.2,0,.3,1.6,2.8.1,6.8-3.1,6.8-5.7,0-8.5-10.8-7.6-20.6,2.2,5.8,4,8.1,7.3,10.8,0,0,.2,0,.3,0,0,0,.1-.2,0-.3C.5,76.1-.5,69.1-.5,61.1c1.5,6,3.2,9.3,8.1,14.4,0,0,.2.1.3,0,.1,0,.1-.2,0-.3-5.3-11.6-4.9-24.4-.9-34.3,0,0,0-.2,0-.3,0,0-.2,0-.3,0-5.2,2.6-8.3,4.2-12.8,10.4,1.4,7.4.2,11-3.2,17.2,3.9-9.9,1.8-23.9-8.2-29.6-.1,0-.2,0-.3,0,0,0,0,.2,0,.3,3.8,4,6.5,10.6,4.2,17.9,1.5-10.4-7.6-19.1-17.8-19.1s-16.2,7.5-15.6,14.9c.5,7.4,5.4,11,9.7,12.5.1,0,.2,0,.3-.1,0-.1,0-.2,0-.3-5.6-5.7-6.4-16.5,3.6-19.8-5.9,5.1-3.7,16.8,5.7,17.7.1,0,.2,0,.3-.2s0-.2-.1-.3c-2-1.3-3.7-3.8-3.7-6.6,0-4.7,3.4-6.5,5.7-6.5,3.4,0,6.3,3.3,6.3,8.2s-5.3,10.7-12,11.4c-6.6.7-12.8-2.2-15.7-6.5,0-.1-.2-.1-.3,0-.1,0-.2.2-.1.3,3,11.7,16.8,16.9,26.9,9.5-6.6,7.5-17,7.6-25.7,0,0,0-.2,0-.3,0,0,0-.1.2,0,.3,2.7,5.4,9.3,11.8,18.6,10.9,8.6-.9,13.5-9,14.5-15.7.6,8.5-1.4,14.5-8.8,20.1,0,0-.1.2,0,.3,0,.1.2.2.3.1,6.8-2,12.2-5.4,15-12.5,0,6.2-2.1,12.4-7.5,16.5,0,0-.1.2,0,.3s.2.2.3.1c3.5-1,6.2-2.5,8.1-5.2,1.3,11.1,6.5,17.7,12.5,17.7s7.2-3,7.2-7.9-1.5-6.8-4.8-9ZM107.8-3.5c-3.2-3.9-9.5-5.4-16.4-4,.5-4.3-.3-8.8-1.6-11.5,0-.1-.2-.2-.3-.1-.1,0-.2.1-.2.3.4,8.8-4.6,15.8-13.4,18.9,6.9-4.8,8.9-14.2,5.6-19.1,0,0-.2-.1-.3,0-.1,0-.2.2-.2.3.4,2.1-.6,4.7-2.7,6.7-2.9,2.8-6.8,3.5-8.8,1.4-2-2-1.2-5.9,1.7-8.8,1.1-1,2.3-1.8,3.4-2.2.1,0,.2-.2.2-.3,0-.1-.1-.2-.2-.2-6.4-.6-10.8,3.3-13.5,7.9-2.8,4.7-7.6,8.4-13.2,7.7-.1,0-.2,0-.3.2,0,.1,0,.2.1.3,2.8,1.7,5.9,2.4,9.9,1.1C51.8,0,43.5,2.8,35.8.2c-.1,0-.2,0-.3.1,0,0,0,.2,0,.3,5.9,6.6,17.7,6.7,25.1,1.4-3,4.3-7.1,7.5-14.3,8.5-.1,0-.2.1-.2.2,0,.1,0,.2.2.3,8.3,3.1,16.6,0,23.4-8.2-3,6.4-7.9,11.5-14.8,14-.1,0-.2.2-.2.3,0,.1.1.2.2.2,3.9,0,7.5-.9,12.3-3.6-3.5,5.7-2.7,15.6,2.4,22.3,0,0,.2.1.3,0,.1,0,.2-.2.1-.3-1.2-7.2,1.3-15.3,5.6-19.6-2.2,7.6,0,14.6,5.9,19.6,0,0,.2,0,.3,0,0,0,.1-.1.2-.2,1.2-9.4,11.8-19,20.6-19.8.1,0,.2-.1.2-.2s0-.2-.2-.3c-4.3-1-8.7-.5-12.4,1,2.7-2.9,5.9-5.1,9.6-6.2.1,0,.2-.2.2-.3,0-.1-.1-.2-.2-.2-4.5-.3-8.9,1-12.7,3.5,4.4-6.6,11-11.5,19.4-13.5.1,0,.2-.1.2-.3,0-.1-.1-.2-.2-.2-11.9-1.3-21.7,3.3-28.2,11.9,1.6-4.9,6.4-9.8,12.9-12.6,5.8-2.5,11.8-2.9,16.4-1.5.1,0,.2,0,.3,0,0,0,0-.2,0-.3ZM54.9,72.1c4.8-10.5,4.5-18.7.6-29.1,0-.1-.2-.2-.3-.2-.1,0-.2.1-.2.3.6,12.6-2.8,21.7-10.3,27.8,8.2-9.9,4.4-29.6-8.8-29.6s-17.5,8-19.5,17.5c0,.1,0,.2.2.3.1,0,.2,0,.3-.1,2.8-4.8,7.4-7.9,12.5-7.9,8.1,0,10.5,6.5,10.5,11s-4.9,11.3-8.7,11.3-5-2.8-5-4.9c0-3.9,3-7.2,6.4-8.2.1,0,.2-.2.2-.3,0-.1-.1-.2-.2-.2-4.1,0-7.6,1.9-9.6,5.6-.3-2.9-.3-4.7.6-7.7,0-.1,0-.2-.1-.3-.1,0-.2,0-.3,0-7.4,9.4-3.8,25.6,2,32.4-5.5-4-10.4-12.6-10.3-24.4,0-.1,0-.2-.2-.2-.1,0-.2,0-.3.2-4.1,10.3-1.9,29.2,9.3,39.9-2.9.4-5.9.3-9.1-.7-.1,0-.2,0-.3.1,0,.1,0,.2,0,.3,4.1,3.5,9.8,4.5,15.3,4.5-4.7-5.5-3.1-16.6,4.4-16.6s7.8,8.3,3.6,12.8c0,0,0,.2,0,.3,0,0,.2.1.3.1,4.8-1.7,9.9-5.8,9.9-11s-4.8-9.4-11.8-9.1c8.8-2.5,18.1.3,22.9,6.3,0,0,.2.1.3,0,.1,0,.2-.2.1-.3-2.8-10.7-12-15.2-23.4-13.7,9.3-3.8,23.2-.5,29.4,7.3,0,0,.2.1.3,0,.1,0,.2-.2.1-.3-1.4-6.6-4.9-11.6-10.6-13.5Z"/>
          <path class="st3" d="M81.3,52.8c0,.1-.1.2-.2.2-12.9.1-24.8,3.3-34,11.5,8-5.6,22.9-7.5,31.5-3.6.1,0,.2.2.1.3,0,.1-.1.2-.3.2-10.7-.3-19.3,3-26,9,6.9.4,12.6,4.7,12.6,9.8,0,.1,0,.2-.2.2-.1,0-.2,0-.3-.1-1.1-2.5-4.7-3.8-8.6-2.9-4.2,1-7,4.2-6.3,7.2.5,2,2.4,3.4,5,3.8.1,0,.2.1.2.3,0,.1-.1.2-.2.2-1.1.1-2.2.1-3.3,0-6.5-.6-11.5-4.6-11.9-9.2-4.7.5-8.9,3.2-10.4,6.8,0,.1-.2.2-.3.2-.1,0-.2-.1-.2-.2-.4-4.7,1.3-7.8,5-10.9-5.4,2.1-11.4,2.2-17.3-.5-.1,0-.2-.2-.1-.3,0-.1.1-.2.2-.2,4.9-.2,8.4-1.8,11.7-5.1C9.8,74.6-5,63.3.1,46.4c0-.1.1-.2.3-.2s.2.1.2.2c.9,9.7,7.7,16.1,17.9,17.1-5.4-2.1-11-7-11.6-15.5,0-.1,0-.2.2-.3.1,0,.2,0,.3.1,2.8,6.2,8.3,9.3,14.2,9.8-6.3-2.6-10.4-8.6-11.6-16.4,0-.1,0-.2.2-.3.1,0,.2,0,.3.1,3.9,7.6,12.2,12.8,22.4,8.8,10.6-4.1,15.3-16.4,16.3-25,0-.1.1-.2.2-.2.1,0,.2,0,.3.2,3.7,15.7-3.6,31.9-16.6,38.8,7.1-2,13.4-6.3,17-13.4,8.3-1,14-3.9,16.9-9.2,0-.1.2-.2.3-.1.1,0,.2.1.2.3-.2,2.1-.9,6.3-4.1,8.3,7,0,12.5.9,17.8,3,.1,0,.2.2.2.3ZM51.8-.6c0,0,.2,0,.3,0,0,0,.1-.2,0-.3-1.6-2.8-.1-6.8,3.1-6.8,5.7,0,8.5,10.8,7.6,20.6-2.2-5.8-4-8.1-7.3-10.8,0,0-.2,0-.3,0,0,0-.1.2,0,.3,4.9,9.1,5.9,16.1,5.9,24.1-1.5-6-3.2-9.3-8.1-14.4,0,0-.2-.1-.3,0-.1,0-.1.2,0,.3,5.3,11.6,4.9,24.4.9,34.3,0,0,0,.2,0,.3,0,0,.2,0,.3,0,5.2-2.6,8.3-4.2,12.8-10.4-1.4-7.4-.2-11,3.2-17.2-3.9,9.9-1.8,23.9,8.2,29.6.1,0,.2,0,.3,0,0,0,0-.2,0-.3-3.8-4-6.5-10.6-4.2-17.9-1.5,10.4,7.6,19.1,17.8,19.1s16.2-7.5,15.6-14.9c-.5-7.4-5.4-11-9.7-12.5-.1,0-.2,0-.3.1,0,0,0,.2,0,.3,5.6,5.7,6.4,16.5-3.6,19.8,5.9-5.1,3.7-16.8-5.7-17.7-.1,0-.2,0-.3.2,0,.1,0,.2.1.3,2,1.3,3.7,3.8,3.7,6.6,0,4.7-3.4,6.5-5.7,6.5-3.4,0-6.3-3.3-6.3-8.2s5.3-10.7,12-11.4c6.6-.7,12.8,2.2,15.7,6.5,0,.1.2.1.3,0,.1,0,.2-.2.1-.3-3-11.7-16.8-16.9-26.9-9.5,6.6-7.5,17-7.6,25.7,0,0,0,.2,0,.3,0,0,0,.1-.2,0-.3-2.7-5.4-9.3-11.8-18.6-10.9-8.6.9-13.5,9-14.5,15.7-.6-8.5,1.4-14.5,8.8-20.1,0,0,.1-.2,0-.3s-.2-.2-.3-.1c-6.8,2-12.2,5.4-15,12.5,0-6.2,2.1-12.4,7.5-16.5,0,0,.1-.2,0-.3,0-.1-.2-.2-.3-.1-3.5,1-6.2,2.5-8.1,5.2-1.3-11.1-6.5-17.7-12.5-17.7s-7.2,3-7.2,7.9,1.5,6.8,4.8,9ZM-47.4,91c3.2,3.9,9.5,5.4,16.4,4-.5,4.3.3,8.8,1.6,11.5,0,.1.2.2.3.1s.2-.1.2-.3c-.4-8.8,4.6-15.8,13.4-18.9-6.9,4.8-8.9,14.2-5.6,19.1,0,0,.2.1.3,0,.1,0,.2-.2.2-.3-.4-2.1.6-4.7,2.7-6.7,2.9-2.8,6.8-3.5,8.8-1.4,2,2,1.2,5.9-1.7,8.8-1.1,1-2.3,1.8-3.4,2.2-.1,0-.2.2-.2.3,0,.1.1.2.2.2,6.4.6,10.8-3.3,13.5-7.9,2.8-4.7,7.6-8.4,13.2-7.7.1,0,.2,0,.3-.2,0-.1,0-.2-.1-.3-2.8-1.7-5.9-2.4-9.9-1.1,5.8-4.9,14-7.7,21.8-5.2.1,0,.2,0,.3-.1,0,0,0-.2,0-.3-5.9-6.6-17.7-6.7-25.1-1.4,3-4.3,7.1-7.5,14.3-8.5.1,0,.2-.1.2-.2,0-.1,0-.2-.2-.3-8.3-3.1-16.6,0-23.4,8.2,3-6.4,7.9-11.5,14.8-14,.1,0,.2-.2.2-.3,0-.1-.1-.2-.2-.2-3.9,0-7.5.9-12.3,3.6,3.5-5.7,2.7-15.6-2.4-22.3,0,0-.2-.1-.3,0-.1,0-.2.2-.1.3,1.2,7.2-1.3,15.3-5.6,19.6,2.2-7.6,0-14.6-5.9-19.6,0,0-.2,0-.3,0,0,0-.1.1-.2.2-1.2,9.4-11.8,19-20.6,19.8-.1,0-.2.1-.2.2s0,.2.2.3c4.3,1,8.7.5,12.4-1-2.7,2.9-5.9,5.1-9.6,6.2-.1,0-.2.2-.2.3,0,.1.1.2.2.2,4.5.3,8.9-1,12.7-3.5-4.4,6.6-11,11.5-19.4,13.5-.1,0-.2.1-.2.3,0,.1.1.2.2.2,11.9,1.3,21.7-3.3,28.2-11.9-1.6,4.9-6.4,9.8-12.9,12.6-5.8,2.5-11.8,2.9-16.4,1.5-.1,0-.2,0-.3,0,0,0,0,.2,0,.3ZM5.5,15.4c-4.8,10.5-4.5,18.7-.6,29.1,0,.1.2.2.3.2s.2-.1.2-.3c-.6-12.6,2.8-21.7,10.3-27.8-8.2,9.9-4.4,29.6,8.8,29.6s17.5-8,19.5-17.5c0-.1,0-.2-.2-.3-.1,0-.2,0-.3.1-2.8,4.8-7.4,7.9-12.5,7.9-8.1,0-10.5-6.5-10.5-11s4.9-11.3,8.7-11.3,5,2.8,5,4.9c0,3.9-3,7.2-6.4,8.2-.1,0-.2.2-.2.3s.1.2.2.2c4.1,0,7.6-1.9,9.6-5.6.3,2.9.3,4.7-.6,7.7,0,.1,0,.2.1.3.1,0,.2,0,.3,0,7.4-9.4,3.8-25.6-2-32.4,5.5,4,10.4,12.6,10.3,24.4,0,.1,0,.2.2.2.1,0,.2,0,.3-.2,4.1-10.3,1.9-29.2-9.3-39.9,2.9-.4,5.9-.3,9.1.7.1,0,.2,0,.3-.1,0-.1,0-.2,0-.3-4.1-3.5-9.8-4.5-15.3-4.5,4.7,5.5,3.1,16.6-4.4,16.6s-7.8-8.3-3.6-12.8c0,0,0-.2,0-.3,0,0-.2-.1-.3-.1-4.8,1.7-9.9,5.8-9.9,11S17.7,1.7,24.7,1.3C15.8,3.8,6.6,1,1.8-4.9c0,0-.2-.1-.3,0-.1,0-.2.2-.1.3,2.8,10.7,12,15.2,23.4,13.7C15.5,12.7,1.5,9.5-4.7,1.7c0,0-.2-.1-.3,0-.1,0-.2.2-.1.3C-3.7,8.5-.2,13.5,5.5,15.4Z"/>
        </g>
      </g>
    </pattern>
  </defs>
  <rect class="st1" x="0" y="0" width="256" height="256"/>
</svg>